<svg xmlns="http://www.w3.org/2000/svg" viewBox="0 0 1927.38 2468.23"><defs><style>.cls-1{isolation:isolate;}.cls-2{fill:#0f0f0f;opacity:0.92;mix-blend-mode:multiply;}.cls-17,.cls-3{font-size:120px;font-family:Lato-Light, Lato;font-weight:300;}.cls-17,.cls-20,.cls-3,.cls-6{fill:#fff;}.cls-4{letter-spacing:-0.02em;}.cls-5{letter-spacing:-0.01em;}.cls-6{font-size:18px;font-family:Lato-Medium, Lato;font-weight:500;letter-spacing:0.45em;}.cls-7{letter-spacing:0.35em;}.cls-8{letter-spacing:0.45em;}.cls-9{letter-spacing:0.44em;}.cls-10{fill:none;stroke:#fff;stroke-miterlimit:10;}.cls-11{letter-spacing:-0.01em;}.cls-12{letter-spacing:-0.01em;}.cls-13{letter-spacing:0em;}.cls-14{letter-spacing:-0.01em;}.cls-15{letter-spacing:-0.03em;}.cls-16{letter-spacing:-0.01em;}.cls-17{letter-spacing:-0.01em;}.cls-18{letter-spacing:-0.01em;}.cls-19{letter-spacing:-0.01em;}</style></defs><title>Asset 1</title><g class="cls-1"><g id="Layer_2" data-name="Layer 2"><g id="Layer_1-2" data-name="Layer 1"><rect class="cls-2" x="7.38" width="1920" height="580.16"/><text class="cls-3" transform="translate(756.76 350.61)"><tspan class="cls-4">S</tspan><tspan x="61.44" y="0">tabili</tspan><tspan class="cls-5" x="306.65" y="0">z</tspan><tspan x="358.67" y="0">e</tspan></text><text class="cls-6" transform="translate(822.71 175.35)">MICHAE<tspan class="cls-7" x="118.92" y="0">L</tspan><tspan class="cls-8" x="134.49" y="0">’S P</tspan><tspan class="cls-9" x="195.99" y="0">R</tspan><tspan class="cls-8" x="215.3" y="0">OCESS</tspan></text><path class="cls-10" d="M644.81,379c-6.13-4.11-15.89-.18-17.45,7-2,9.07,10,18.78,18.44,10.82,7.58-7.13,3.55-19.81-6.61-22.06-9.07-2-19-1.2-25.26,6.57-4.07,5.08-4.28,12.42.19,17.16,5.81,6.16,15.39,3.7,22.28-.45,6.43-3.87,12.48-9.15,19.94-10,12.26-1.36,23.17,12.41,19.9,24.3s-18.49,18.36-29.75,13.33c-9.31-4.16-14.92-14.25-16.24-24.37a52.21,52.21,0,0,1,0-12.43,18.63,18.63,0,0,0-17.57-20.67,123.52,123.52,0,0,0-30.58,2.25c-2.73.55-5.57,1.25-7.66,3.1-2.49,2.22-3.47,5.68-3.86,9C568,404.07,587.54,425,609.11,425s40.87-19.48,41.76-41a10.37,10.37,0,0,0-1.14-6.08c-2.27-3.53-7.78-3.91-10.64-5.35a35.64,35.64,0,0,0-15.88-3.93c-18.92-.06-24.36-23.87-9.24-32.45,9.42-5.34,20.5-7.7,31.19-5.75,5.21,1,10.44,2.91,14.1,6.75,4.33,4.55,5.84,11,6.92,17.22,3.33,19.08,2.66,42.08-13,53.49-9.31,6.79-21.57,7.55-33.08,8.06l-25,1.1c-3.4.15-7.2.16-9.71-2.15-2.34-2.16-2.76-5.64-3-8.82-.91-10.71-1.61-22.17,3.71-31.5,9.13-16,30.86-18.38,49.3-18.87,4-.11,8.24-.19,12,1.44,9.72,4.26,11.21,17.19,11.26,27.8,0,2.47-.06,5.17-1.64,7.07s-4.25,2.45-6.71,2.47c-11,.07-20.86-8.22-31.88-8-9.3.21-17.55,6.67-22.44,14.58l-.15.24c-7.81,12.86.4,29.5,15.31,31.55a141.49,141.49,0,0,0,28.28,1c3.22-.21,6.67-.63,9.11-2.75,2.78-2.41,3.52-6.35,4.09-10L655,405.45c.29-1.8.54-3.78-.42-5.33s-2.54-2.1-4.1-2.66a85.16,85.16,0,0,0-60.84,1.78c-8.19,3.45-16.14,8.53-20.45,16.3S565.34,434.17,572,440c3.46,3,8.05,4.33,12.58,5a54.07,54.07,0,0,0,45.93-15.66c7.24-7.49,12.7-17.42,22.29-21.48,8.15-3.45,17.42-1.82,26.2-.71,2.92.37,3,3.78,5.05,5.88s5,3.81,7.85,3c2.63-.79,4.18-3.52,4.85-6.18s.72-5.47,1.69-8A12.3,12.3,0,0,1,712,394.29a4.14,4.14,0,0,1,1.64.62c1,.72,1.34,2,1.68,3.24a26.33,26.33,0,0,0,4.86,9.34c2.09,2.58,5,4.89,8.34,4.82,2.94-.06,5.52-2,7.6-4.05s4-4.45,6.53-5.9a2.73,2.73,0,0,1,1.55-.46c.93.09,1.56,1,2.22,1.64,1.83,1.86,4.64,2.4,7.25,2.36,1.23,0,2.46-.16,3.69-.29,5-.53,11.79-.22,16.77-.75h466.84"/><rect class="cls-2" y="638.56" width="1920" height="580.16"/><rect class="cls-2" y="1277.11" width="1920" height="580.16"/><text class="cls-3" transform="translate(726.57 989.17)"><tspan class="cls-11">O</tspan><tspan class="cls-12" x="93.6" y="0">p</tspan><tspan class="cls-13" x="159.06" y="0">timi</tspan><tspan class="cls-5" x="352.26" y="0">z</tspan><tspan x="404.28" y="0">e</tspan></text><text class="cls-6" transform="translate(815.33 813.91)">MICHAE<tspan class="cls-7" x="118.92" y="0">L</tspan><tspan class="cls-8" x="134.49" y="0">’S P</tspan><tspan class="cls-9" x="195.99" y="0">R</tspan><tspan class="cls-8" x="215.3" y="0">OCESS</tspan></text><path class="cls-10" d="M1417.63,897.55a1.67,1.67,0,0,0-1.67-1.67h-15.11a1.67,1.67,0,0,0-1.67,1.67v168.13a1.67,1.67,0,0,1-1.67,1.67h-15.75a1.67,1.67,0,0,1-1.67-1.67V965.53a1.68,1.68,0,0,0-1.68-1.67h-12.69a1.67,1.67,0,0,0-1.67,1.67v97.86a1.68,1.68,0,0,1-1.68,1.67h-17.61a1.68,1.68,0,0,1-1.68-1.67V924.23a1.67,1.67,0,0,0-1.67-1.67h-21.84a1.68,1.68,0,0,0-1.68,1.67v140.22a1.68,1.68,0,0,1-1.67,1.68h-20.58a1.67,1.67,0,0,1-1.67-1.68V998.53a1.68,1.68,0,0,0-1.68-1.67h-18.77a1.68,1.68,0,0,0-1.68,1.67v66.17a1.67,1.67,0,0,1-1.67,1.67h-13.7v-35.24h-17.21v34.78h-17.64v-23.67h-18.38v25.11h-513"/><text class="cls-3" transform="translate(820.62 1600.5)"><tspan class="cls-14">P</tspan><tspan class="cls-15" x="68.04" y="0">r</tspan><tspan class="cls-16" x="107.1" y="0">o</tspan><tspan x="173.04" y="0">fit</tspan></text><text class="cls-6" transform="translate(815.33 1425.25)">MICHAE<tspan class="cls-7" x="118.92" y="0">L</tspan><tspan class="cls-8" x="134.49" y="0">’S P</tspan><tspan class="cls-9" x="195.99" y="0">R</tspan><tspan class="cls-8" x="215.3" y="0">OCESS</tspan></text><polyline class="cls-10" points="716.68 1668.54 1226.85 1668.54 1226.85 1654.41 1255.99 1556.7 1271.19 1585.84 1287.02 1525.67 1295.89 1545.94 1340.86 1428.13 1357.4 1477.03 1381.4 1405.96 1634.77 1405.96"/><rect class="cls-2" y="1888.07" width="1920" height="580.16"/><text class="cls-17" transform="translate(805.71 2211.46)">I<tspan class="cls-18" x="30.3" y="0">n</tspan><tspan class="cls-19" x="95.16" y="0">v</tspan><tspan class="cls-13" x="153.9" y="0">est</tspan></text><text class="cls-6" transform="translate(815.33 2036.2)">MICHAE<tspan class="cls-7" x="118.92" y="0">L</tspan><tspan class="cls-8" x="134.49" y="0">’S P</tspan><tspan class="cls-9" x="195.99" y="0">R</tspan><tspan class="cls-8" x="215.3" y="0">OCESS</tspan></text><line class="cls-10" x1="682.87" y1="2279.5" x2="1448.64" y2="2279.5"/><circle class="cls-20" cx="1448.36" cy="2279.5" r="5.64"/><circle class="cls-10" cx="1448.25" cy="2280.04" r="24.75"/></g></g></g></svg>