<svg xmlns="http://www.w3.org/2000/svg" viewBox="0 0 1920 580.16"><defs><style>.cls-1{isolation:isolate;}.cls-2{fill:#0f0f0f;opacity:0.92;mix-blend-mode:multiply;}.cls-3{font-size:120px;font-family:Lato-Light, Lato;font-weight:300;}.cls-3,.cls-8{fill:#fff;}.cls-4{letter-spacing:-0.01em;}.cls-5{letter-spacing:-0.01em;}.cls-6{letter-spacing:0em;}.cls-7{letter-spacing:-0.01em;}.cls-8{font-size:18px;font-family:Lato-Medium, Lato;font-weight:500;letter-spacing:0.45em;}.cls-9{letter-spacing:0.35em;}.cls-10{letter-spacing:0.45em;}.cls-11{letter-spacing:0.44em;}.cls-12{fill:none;stroke:#fff;stroke-miterlimit:10;}</style></defs><title>section-2</title><g class="cls-1"><g id="Layer_2" data-name="Layer 2"><g id="Layer_1-2" data-name="Layer 1"><rect class="cls-2" width="1920" height="580.16"/><text class="cls-3" transform="translate(726.57 350.61)"><tspan class="cls-4">O</tspan><tspan class="cls-5" x="93.6" y="0">p</tspan><tspan class="cls-6" x="159.06" y="0">timi</tspan><tspan class="cls-7" x="352.26" y="0">z</tspan><tspan x="404.28" y="0">e</tspan></text><text class="cls-8" transform="translate(815.33 175.35)">MICHAE<tspan class="cls-9" x="118.92" y="0">L</tspan><tspan class="cls-10" x="134.49" y="0">’S P</tspan><tspan class="cls-11" x="195.99" y="0">R</tspan><tspan class="cls-10" x="215.3" y="0">OCESS</tspan></text><path class="cls-12" d="M1417.63,259a1.67,1.67,0,0,0-1.67-1.67h-15.11a1.67,1.67,0,0,0-1.67,1.67V427.12a1.68,1.68,0,0,1-1.67,1.68h-15.75a1.68,1.68,0,0,1-1.67-1.68V327a1.68,1.68,0,0,0-1.68-1.67h-12.69a1.67,1.67,0,0,0-1.67,1.67v97.86a1.68,1.68,0,0,1-1.68,1.68h-17.61a1.68,1.68,0,0,1-1.68-1.68V285.67a1.67,1.67,0,0,0-1.67-1.67h-21.84a1.68,1.68,0,0,0-1.68,1.67V425.9a1.67,1.67,0,0,1-1.67,1.67h-20.58a1.67,1.67,0,0,1-1.67-1.67V360a1.68,1.68,0,0,0-1.68-1.68h-18.77a1.68,1.68,0,0,0-1.68,1.68v66.16a1.67,1.67,0,0,1-1.67,1.67h-13.7V392.57h-17.21v34.78h-17.64V403.68h-18.38V428.8h-513"/></g></g></g></svg>