<svg xmlns="http://www.w3.org/2000/svg" viewBox="0 0 1566.85 1591.82"><defs><style>.cls-1,.cls-7{fill:#004289;}.cls-12,.cls-2,.cls-6{fill:#662d91;}.cls-3,.cls-8{fill:#00b5e2;}.cls-4,.cls-5{fill:none;}.cls-12,.cls-4,.cls-5,.cls-6,.cls-7,.cls-8{stroke:#fff;stroke-miterlimit:10;}.cls-4{stroke-width:4px;}.cls-5{stroke-width:2.72px;}.cls-6,.cls-7,.cls-8{stroke-width:2.76px;}.cls-9{font-size:47.96px;}.cls-10,.cls-11,.cls-13,.cls-14,.cls-15,.cls-16,.cls-9{fill:#fff;}.cls-10,.cls-11,.cls-9{font-family:OpenSans-Extrabold, OpenSans Extrabold;font-weight:800;}.cls-10{font-size:47.78px;}.cls-11{font-size:47.96px;}.cls-12{stroke-width:3.1px;}.cls-14{font-size:27.19px;}.cls-14,.cls-15{font-family:OpenSans;}.cls-15{font-size:20px;}.cls-16{font-size:40px;font-family:OpenSans-Bold, OpenSans Bold;font-weight:700;}</style></defs><title>Asset 1</title><g id="Layer_2" data-name="Layer 2"><g id="Roda"><path class="cls-1" d="M1438.51,889.46a695.21,695.21,0,0,0-114-521.44L752.09,766.34Z"/><path class="cls-2" d="M772.35,779.34,1324.52,368A697.38,697.38,0,1,0,179.66,1164.66C231,1238.42,294,1299.21,384.73,1359.28Z"/><path class="cls-3" d="M618.17,1445.83a695.2,695.2,0,0,0,521.43-114c158.07-110,256.6-273.64,288.11-449.31L764.52,774.32,376.9,1354.26C434.2,1393.15,524.47,1429,618.17,1445.83Z"/><line class="cls-4" x1="757.3" y1="769.03" x2="187.13" y2="403.26"/><line class="cls-4" x1="390.91" y1="1336.37" x2="1120.25" y2="199.48"/><line class="cls-4" x1="1415.39" y1="623.84" x2="95.77" y2="912.02"/><line class="cls-4" x1="899.67" y1="1427.74" x2="611.49" y2="108.12"/><circle class="cls-5" cx="755.33" cy="768.42" r="571.74"/><line class="cls-4" x1="1420.31" y1="887.31" x2="90.85" y2="648.55"/><line class="cls-4" x1="636.2" y1="1432.66" x2="874.96" y2="103.2"/><line class="cls-4" x1="1310.03" y1="382.31" x2="201.13" y2="1153.55"/><line class="cls-4" x1="1141.2" y1="1322.37" x2="369.96" y2="213.48"/><path class="cls-6" d="M202.13,1150.44C-9.82,845.84,65.29,427.08,369.89,215.13s723.36-136.85,935.32,167.75l65.55-45.61-.11-.15C1133.44-3.78,664.8-87.83,323.91,149.37S-101,855.22,136.17,1196.11c55.39,79.61,123.41,145.2,213.8,205.17l44.55-66.65C312.3,1280.08,251.59,1221.51,202.13,1150.44Z"/><path class="cls-7" d="M1307,384c106,152.31,140.19,333.15,109.83,502.41l78.52,14.08c34-189.37-4.29-391.68-122.8-562.1L1307,384Z"/><path class="cls-8" d="M1183.93,1384.3c170.44-118.6,276.68-295.06,310.65-484.48l-78.52-14.08c-30.36,169.26-125.28,326.94-277.59,432.91-233.53,162.51-534.16,156.27-745.75,14.62l-44.54,66.65C586.32,1559.19,922.64,1566.11,1183.93,1384.3Z"/><text class="cls-9" transform="translate(1257.32 1252.94) rotate(135.94)">S</text><text class="cls-9" transform="translate(1240.55 1269.23) rotate(137.95)">C</text><text class="cls-9" transform="matrix(-0.77, 0.64, -0.64, -0.77, 1220.12, 1287.64)">R</text><text class="cls-9" transform="translate(1200.54 1304.04) rotate(141.95)">E</text><text class="cls-9" transform="translate(1182.14 1318.44) rotate(143.77)">E</text><text class="cls-9" transform="translate(1163.41 1332.26) rotate(145.89)">N</text><text class="cls-9" transform="matrix(-0.84, 0.54, -0.54, -0.84, 1137.39, 1349.72)">I</text><text class="cls-9" transform="translate(1127.99 1355.87) rotate(149.2)">N</text><text class="cls-9" transform="translate(1101.17 1371.85) rotate(151.64)">G</text><text class="cls-9" transform="translate(1074.02 1386.35) rotate(153.24)"> </text><text class="cls-9" transform="translate(1065.21 1390.94) rotate(154.79)">A</text><text class="cls-9" transform="translate(1038.94 1403.34) rotate(157.18)">N</text><text class="cls-9" transform="translate(1010.19 1415.45) rotate(159.68)">D</text><text class="cls-9" transform="matrix(-0.95, 0.32, -0.32, -0.95, 980.39, 1426.32)"> </text><text class="cls-9" transform="translate(971.03 1429.65) rotate(163)">D</text><text class="cls-9" transform="translate(940.67 1438.78) rotate(164.71)">I</text><text class="cls-9" transform="translate(929.86 1441.87) rotate(166.31)">A</text><text class="cls-9" transform="translate(902.37 1448.6) rotate(168.63)">G</text><text class="cls-9" transform="translate(872.33 1454.65) rotate(171.08)">N</text><text class="cls-9" transform="translate(841.5 1459.52) rotate(173.62)">O</text><text class="cls-9" transform="translate(808.97 1463.07) rotate(175.84)">S</text><text class="cls-9" transform="translate(785.57 1464.7) rotate(177.21)">I</text><text class="cls-9" transform="translate(774.3 1465.33) rotate(178.58)">S</text><text class="cls-10" transform="matrix(0.61, -0.79, 0.79, 0.61, 182.34, 368.89)">M</text><text class="cls-10" transform="matrix(0.65, -0.76, 0.76, 0.65, 205.41, 339.24)">A</text><text class="cls-10" transform="translate(224.11 317.17) rotate(-47.33)">N</text><text class="cls-10" transform="translate(245.21 294.3) rotate(-45)">A</text><text class="cls-10" transform="translate(265.14 274.31) rotate(-42.77)">G</text><text class="cls-10" transform="matrix(0.76, -0.65, 0.65, 0.76, 287.63, 253.6)">E</text><text class="cls-10" transform="matrix(0.78, -0.62, 0.62, 0.78, 305.11, 238.35)">M</text><text class="cls-10" transform="matrix(0.81, -0.59, 0.59, 0.81, 335.08, 214.83)">E</text><text class="cls-10" transform="matrix(0.83, -0.56, 0.56, 0.83, 353.83, 201.12)">N</text><text class="cls-10" transform="matrix(0.85, -0.53, 0.53, 0.85, 379.72, 183.83)">T</text><text class="cls-10" transform="matrix(0.86, -0.51, 0.51, 0.86, 399.8, 171.51)"> </text><text class="cls-10" transform="translate(408.26 166.35) rotate(-28.73)">O</text><text class="cls-10" transform="translate(436.91 150.74) rotate(-26.55)">F</text><text class="cls-10" transform="matrix(0.9, -0.43, 0.43, 0.9, 457.59, 140.49)"> </text><text class="cls-10" transform="matrix(0.92, -0.4, 0.4, 0.92, 466.47, 136.13)">D</text><text class="cls-10" transform="translate(495.38 123.57) rotate(-21.46)">E</text><text class="cls-10" transform="translate(517.02 115.04) rotate(-19.56)">P</text><text class="cls-10" transform="translate(540.71 106.61) rotate(-17.57)">R</text><text class="cls-10" transform="translate(564.97 98.95) rotate(-15.66)">E</text><text class="cls-10" transform="translate(587.36 92.67) rotate(-13.84)">S</text><text class="cls-10" transform="matrix(0.98, -0.21, 0.21, 0.98, 609.99, 87.09)">S</text><text class="cls-10" transform="translate(632.86 82.29) rotate(-10.66)">I</text><text class="cls-10" transform="matrix(0.99, -0.16, 0.16, 0.99, 643.83, 80.06)">O</text><text class="cls-10" transform="translate(676.01 75) rotate(-6.47)">N</text><text class="cls-11" transform="translate(1400.21 503.36) rotate(69.12)">F</text><text class="cls-11" transform="translate(1408.51 524.86) rotate(71.31)">O</text><text class="cls-11" transform="translate(1418.92 555.92) rotate(73.48)">L</text><text class="cls-11" transform="matrix(0.25, 0.97, -0.97, 0.25, 1425.29, 577.37)">L</text><text class="cls-11" transform="matrix(0.22, 0.98, -0.98, 0.22, 1430.64, 597.16)">O</text><text class="cls-11" transform="translate(1437.92 628.97) rotate(80.18)">W</text><text class="cls-11" transform="translate(1444.46 668.05) rotate(82.31)">-</text><text class="cls-11" transform="translate(1446.52 682.37) rotate(84.11)">U</text><text class="cls-11" transform="translate(1449.63 712.94) rotate(86.34)">P</text><circle class="cls-12" cx="755.33" cy="768.42" r="451.07"/><circle class="cls-13" cx="1262.28" cy="1091.71" r="17.32"/><path class="cls-3" d="M1261.64,1088.8l3.15-4.84,3.49,2.27-3.15,4.84-2.28,3.5-3.15,4.84-3.49-2.27,3.15-4.84Z"/><text class="cls-14" transform="translate(1316.98 1055.73) rotate(118.05)">Q</text><text class="cls-14" transform="matrix(-0.5, 0.87, -0.87, -0.5, 1308.23, 1072.15)">U</text><text class="cls-14" transform="translate(1299.55 1087.31) rotate(121.1)">E</text><text class="cls-14" transform="matrix(-0.53, 0.85, -0.85, -0.53, 1292.69, 1098.69)">S</text><text class="cls-14" transform="translate(1285.59 1109.93) rotate(123.53)">T</text><text class="cls-14" transform="matrix(-0.57, 0.82, -0.82, -0.57, 1278.13, 1121.13)">I</text><text class="cls-14" transform="matrix(-0.58, 0.81, -0.81, -0.58, 1274.56, 1126.45)">O</text><text class="cls-14" transform="matrix(-0.61, 0.8, -0.8, -0.61, 1263.72, 1141.59)">N</text><text class="cls-15" transform="translate(1239.38 977.23) rotate(114.04)">R</text><text class="cls-15" transform="translate(1235.03 986.98) rotate(115.15)">E</text><text class="cls-15" transform="matrix(-0.44, 0.9, -0.9, -0.44, 1230.88, 995.84)">C</text><text class="cls-15" transform="translate(1225.97 1005.81) rotate(117.64)">O</text><text class="cls-15" transform="translate(1219.65 1017.92) rotate(119.26)">M</text><text class="cls-15" transform="translate(1211.84 1031.87) rotate(121)">M</text><text class="cls-15" transform="translate(1203.56 1045.57) rotate(122.41)">E</text><text class="cls-15" transform="translate(1198.34 1053.82) rotate(123.66)">N</text><text class="cls-15" transform="translate(1191.1 1064.7) rotate(125.1)">D</text><text class="cls-15" transform="translate(1183.64 1075.3) rotate(126.45)">A</text><text class="cls-15" transform="translate(1177.32 1083.87) rotate(127.49)">T</text><text class="cls-15" transform="translate(1171.3 1091.69) rotate(128.28)">I</text><text class="cls-15" transform="matrix(-0.63, 0.77, -0.77, -0.63, 1168.4, 1095.43)">O</text><text class="cls-15" transform="translate(1159.73 1106.02) rotate(130.74)">N</text><text class="cls-16" transform="matrix(-0.54, 0.84, -0.84, -0.54, 1163.66, 1014.33)">1</text><circle class="cls-13" cx="1262.28" cy="1091.71" r="17.32"/><path class="cls-3" d="M1261.64,1088.8l3.15-4.84,3.49,2.27-3.15,4.84,4.78,3.1-2.28,3.5-4.78-3.1-3.15,4.84-3.49-2.27,3.15-4.84-4.7-3.06,2.28-3.5Z"/><text class="cls-14" transform="matrix(-0.87, 0.49, -0.49, -0.87, 1060.41, 1321.26)">Q</text><text class="cls-14" transform="translate(1044.17 1330.3) rotate(152.72)">U</text><text class="cls-14" transform="translate(1028.63 1338.28) rotate(154.39)">E</text><text class="cls-14" transform="matrix(-0.91, 0.41, -0.41, -0.91, 1016.66, 1344.03)">S</text><text class="cls-14" transform="matrix(-0.92, 0.38, -0.38, -0.92, 1004.56, 1349.45)">T</text><text class="cls-14" transform="translate(992.14 1354.59) rotate(158.5)">I</text><text class="cls-14" transform="translate(986.22 1357) rotate(159.92)">O</text><text class="cls-14" transform="matrix(-0.95, 0.31, -0.31, -0.95, 968.78, 1363.37)">N</text><text class="cls-15" transform="matrix(-0.84, 0.55, -0.55, -0.84, 1038.98, 1212.33)">R</text><text class="cls-15" transform="translate(1030.02 1218.15) rotate(147.96)">E</text><text class="cls-15" transform="matrix(-0.86, 0.51, -0.51, -0.86, 1021.73, 1223.36)">C</text><text class="cls-15" transform="translate(1012.23 1229.07) rotate(150.47)">O</text><text class="cls-15" transform="translate(1000.34 1235.83) rotate(152.27)">M</text><text class="cls-15" transform="translate(986.21 1243.26) rotate(154.33)">M</text><text class="cls-15" transform="matrix(-0.91, 0.41, -0.41, -0.91, 971.8, 1250.14)">E</text><text class="cls-15" transform="translate(962.9 1254.12) rotate(157.59)">N</text><text class="cls-15" transform="translate(950.83 1259.1) rotate(159.38)">D</text><text class="cls-15" transform="translate(938.7 1263.66) rotate(161.05)">A</text><text class="cls-15" transform="translate(928.65 1267.11) rotate(162.3)">T</text><text class="cls-15" transform="translate(919.23 1270.1) rotate(163.23)">I</text><text class="cls-15" transform="translate(914.74 1271.5) rotate(164.37)">O</text><text class="cls-15" transform="matrix(-0.97, 0.24, -0.24, -0.97, 901.56, 1275.18)">N</text><text class="cls-16" transform="matrix(-0.92, 0.4, -0.4, -0.92, 954.34, 1202.64)">2</text><circle class="cls-13" cx="997.84" cy="1318.42" r="17.32"/><path class="cls-3" d="M998.91,1315.64l5.3-2.29,1.65,3.82-5.3,2.29-3.83,1.66-5.3,2.29-1.66-3.82,5.31-2.29Z"/><circle class="cls-13" cx="997.84" cy="1318.42" r="17.32"/><path class="cls-3" d="M998.91,1315.64l5.3-2.29,1.65,3.82-5.3,2.29,2.26,5.23-3.83,1.66-2.26-5.23-5.3,2.29-1.66-3.82,5.31-2.29-2.23-5.14,3.84-1.66Z"/><text class="cls-14" transform="matrix(-0.99, 0.11, -0.11, -0.99, 824.91, 1396)">Q</text><text class="cls-14" transform="translate(806.44 1398.12) rotate(175.29)">U</text><text class="cls-14" transform="matrix(-1, 0.05, -0.05, -1, 789.03, 1399.53)">E</text><text class="cls-14" transform="translate(775.77 1400.24) rotate(178.43)">S</text><text class="cls-14" transform="translate(762.51 1400.61) rotate(179.94)">T</text><text class="cls-14" transform="matrix(-1, -0.02, 0.02, -1, 749.07, 1400.59)">I</text><text class="cls-14" transform="matrix(-1, -0.04, 0.04, -1, 742.69, 1400.55)">O</text><text class="cls-14" transform="translate(724.13 1399.73) rotate(-175.5)">N</text><text class="cls-15" transform="translate(846.91 1287.15) rotate(169.52)">R</text><text class="cls-15" transform="translate(836.4 1289.1) rotate(170.53)">E</text><text class="cls-15" transform="translate(826.74 1290.72) rotate(171.66)">C</text><text class="cls-15" transform="matrix(-0.99, 0.12, -0.12, -0.99, 815.78, 1292.35)">O</text><text class="cls-15" transform="matrix(-1, 0.09, -0.09, -1, 802.2, 1294.03)">M</text><text class="cls-15" transform="matrix(-1, 0.05, -0.05, -1, 786.31, 1295.47)">M</text><text class="cls-15" transform="matrix(-1, 0.02, -0.02, -1, 770.36, 1296.29)">E</text><text class="cls-15" transform="matrix(-1, 0, 0, -1, 760.61, 1296.55)">N</text><text class="cls-15" transform="matrix(-1, -0.03, 0.03, -1, 747.56, 1296.52)">D</text><text class="cls-15" transform="matrix(-1, -0.06, 0.06, -1, 734.61, 1296.07)">A</text><text class="cls-15" transform="matrix(-1, -0.08, 0.08, -1, 724, 1295.41)">T</text><text class="cls-15" transform="translate(714.15 1294.55) rotate(-174.2)">I</text><text class="cls-15" transform="translate(709.47 1294.12) rotate(-173.06)">O</text><text class="cls-15" transform="translate(695.88 1292.46) rotate(-171.48)">N</text><text class="cls-16" transform="translate(772.46 1245.73) rotate(178.93)">3</text><circle class="cls-13" cx="768.22" cy="1369.38" r="17.32"/><path class="cls-3" d="M770.28,1367.22l5.77-.08.06,4.16-5.77.08-4.18.06-5.77.08-.06-4.16,5.77-.08Z"/><circle class="cls-13" cx="768.22" cy="1369.38" r="17.32"/><path class="cls-3" d="M770.28,1367.22l5.77-.08.06,4.16-5.77.08.08,5.7-4.18.06-.08-5.7-5.77.08-.06-4.16,5.77-.08-.08-5.61,4.18-.05Z"/><text class="cls-14" transform="translate(580.22 1375.07) rotate(-164.14)">Q</text><text class="cls-14" transform="matrix(-0.95, -0.3, 0.3, -0.95, 562.34, 1369.98)">U</text><text class="cls-14" transform="matrix(-0.94, -0.33, 0.33, -0.94, 545.7, 1364.64)">E</text><text class="cls-14" transform="translate(533.18 1360.24) rotate(-159.14)">S</text><text class="cls-14" transform="translate(520.79 1355.52) rotate(-157.63)">T</text><text class="cls-14" transform="translate(508.37 1350.37) rotate(-156.5)">I</text><text class="cls-14" transform="translate(502.48 1347.89) rotate(-155.09)">O</text><text class="cls-14" transform="matrix(-0.89, -0.45, 0.45, -0.89, 485.64, 1340.07)">N</text><text class="cls-15" transform="matrix(-0.98, -0.21, 0.21, -0.98, 642.11, 1282.86)">R</text><text class="cls-15" transform="matrix(-0.97, -0.22, 0.22, -0.97, 631.65, 1280.64)">E</text><text class="cls-15" transform="translate(622.11 1278.46) rotate(-165.91)">C</text><text class="cls-15" transform="translate(611.36 1275.78) rotate(-164.53)">O</text><text class="cls-15" transform="matrix(-0.95, -0.3, 0.3, -0.95, 598.16, 1272.15)">M</text><text class="cls-15" transform="translate(582.92 1267.42) rotate(-160.68)">M</text><text class="cls-15" transform="matrix(-0.93, -0.36, 0.36, -0.93, 567.86, 1262.1)">E</text><text class="cls-15" transform="matrix(-0.92, -0.38, 0.38, -0.92, 558.75, 1258.62)">N</text><text class="cls-15" transform="translate(546.7 1253.61) rotate(-155.63)">D</text><text class="cls-15" transform="translate(534.9 1248.26) rotate(-153.96)">A</text><text class="cls-15" transform="matrix(-0.89, -0.46, 0.46, -0.89, 525.35, 1243.59)">T</text><text class="cls-15" transform="translate(516.58 1239.04) rotate(-151.78)">I</text><text class="cls-15" transform="translate(512.41 1236.86) rotate(-150.63)">O</text><text class="cls-15" transform="translate(500.48 1230.14) rotate(-149.05)">N</text><text class="cls-16" transform="translate(589.1 1216.17) rotate(-158.64)">4</text><circle class="cls-13" cx="537.97" cy="1328.84" r="17.32"/><path class="cls-3" d="M540.7,1327.63l5.37,2.13-1.54,3.87-5.37-2.13-3.88-1.54-5.37-2.13,1.54-3.87,5.36,2.13Z"/><text class="cls-14" transform="matrix(-0.78, -0.62, 0.62, -0.78, 360.22, 1260.96)">Q</text><text class="cls-14" transform="translate(345.67 1249.38) rotate(-139.65)">U</text><text class="cls-14" transform="matrix(-0.74, -0.67, 0.67, -0.74, 332.37, 1238.05)">E</text><text class="cls-14" transform="matrix(-0.73, -0.69, 0.69, -0.73, 322.51, 1229.17)">S</text><text class="cls-14" transform="matrix(-0.71, -0.71, 0.71, -0.71, 312.89, 1220.04)">T</text><text class="cls-14" transform="matrix(-0.69, -0.72, 0.72, -0.69, 303.41, 1210.51)">I</text><text class="cls-14" transform="translate(298.93 1205.96) rotate(-132.45)">O</text><text class="cls-14" transform="matrix(-0.65, -0.76, 0.76, -0.65, 286.39, 1192.25)">N</text><text class="cls-15" transform="matrix(-0.82, -0.57, 0.57, -0.82, 452.82, 1199.64)">R</text><text class="cls-15" transform="translate(444.02 1193.57) rotate(-144.41)">E</text><text class="cls-15" transform="matrix(-0.8, -0.6, 0.6, -0.8, 436.05, 1187.88)">C</text><text class="cls-15" transform="matrix(-0.79, -0.62, 0.62, -0.79, 427.16, 1181.27)">O</text><text class="cls-15" transform="matrix(-0.77, -0.64, 0.64, -0.77, 416.38, 1172.84)">M</text><text class="cls-15" transform="matrix(-0.74, -0.67, 0.67, -0.74, 404.13, 1162.61)">M</text><text class="cls-15" transform="matrix(-0.72, -0.69, 0.69, -0.72, 392.28, 1151.9)">E</text><text class="cls-15" transform="matrix(-0.7, -0.71, 0.71, -0.7, 385.21, 1145.18)">N</text><text class="cls-15" transform="translate(376.02 1135.92) rotate(-132.99)">D</text><text class="cls-15" transform="translate(367.18 1126.44) rotate(-131.32)">A</text><text class="cls-15" transform="translate(360.16 1118.46) rotate(-130.07)">T</text><text class="cls-15" transform="translate(353.82 1110.88) rotate(-129.14)">I</text><text class="cls-15" transform="translate(350.82 1107.27) rotate(-128)">O</text><text class="cls-15" transform="translate(342.39 1096.47) rotate(-126.42)">N</text><text class="cls-16" transform="matrix(-0.72, -0.69, 0.69, -0.72, 429.56, 1117.68)">5</text><circle class="cls-13" cx="339.02" cy="1202.01" r="17.32"/><path class="cls-2" d="M342,1202l4.14,4-2.9,3-4.14-4-3-2.92-4.14-4,2.9-3,4.14,4Z"/><circle class="cls-13" cx="339.02" cy="1202.01" r="17.32"/><path class="cls-2" d="M342,1202l4.14,4-2.9,3-4.14-4-4,4.08-3-2.92,4-4.08-4.14-4,2.9-3,4.14,4,3.91-4,3,2.91Z"/><text class="cls-14" transform="matrix(-0.49, -0.87, 0.87, -0.49, 202.05, 1072.61)">Q</text><text class="cls-14" transform="translate(193.03 1056.36) rotate(-117.19)">U</text><text class="cls-14" transform="translate(185.07 1040.8) rotate(-115.52)">E</text><text class="cls-14" transform="translate(179.35 1028.83) rotate(-114.04)">S</text><text class="cls-14" transform="translate(173.94 1016.71) rotate(-112.54)">T</text><text class="cls-14" transform="translate(168.82 1004.29) rotate(-111.41)">I</text><text class="cls-14" transform="translate(166.42 998.37) rotate(-109.99)">O</text><text class="cls-14" transform="matrix(-0.31, -0.95, 0.95, -0.31, 160.07, 980.91)">N</text><text class="cls-15" transform="translate(310.98 1051.35) rotate(-122.96)">R</text><text class="cls-15" transform="matrix(-0.53, -0.85, 0.85, -0.53, 305.17, 1042.38)">E</text><text class="cls-15" transform="matrix(-0.51, -0.86, 0.86, -0.51, 299.98, 1034.08)">C</text><text class="cls-15" transform="translate(294.29 1024.57) rotate(-119.44)">O</text><text class="cls-15" transform="translate(287.54 1012.67) rotate(-117.64)">M</text><text class="cls-15" transform="matrix(-0.43, -0.9, 0.9, -0.43, 280.13, 998.53)">M</text><text class="cls-15" transform="translate(273.28 984.11) rotate(-113.87)">E</text><text class="cls-15" transform="translate(269.31 975.2) rotate(-112.32)">N</text><text class="cls-15" transform="translate(264.35 963.13) rotate(-110.53)">D</text><text class="cls-15" transform="translate(259.81 950.99) rotate(-108.86)">A</text><text class="cls-15" transform="matrix(-0.3, -0.95, 0.95, -0.3, 256.37, 940.93)">T</text><text class="cls-15" transform="translate(253.4 931.51) rotate(-106.68)">I</text><text class="cls-15" transform="matrix(-0.27, -0.96, 0.96, -0.27, 252.01, 927.02)">O</text><text class="cls-15" transform="matrix(-0.24, -0.97, 0.97, -0.24, 248.35, 913.83)">N</text><text class="cls-16" transform="translate(320.8 966.73) rotate(-113.54)">6</text><circle class="cls-13" cx="204.94" cy="1010.06" r="17.32"/><path class="cls-2" d="M207.72,1011.14l2.29,5.3-3.83,1.65-2.28-5.31-1.65-3.84-2.28-5.3,3.82-1.65,2.28,5.31Z"/><circle class="cls-13" cx="204.94" cy="1010.06" r="17.32"/><path class="cls-2" d="M207.72,1011.14l2.29,5.3-3.83,1.65-2.28-5.31-5.23,2.25L197,1011.2l5.23-2.26-2.28-5.3,3.82-1.65,2.28,5.31,5.15-2.22,1.65,3.84Z"/><text class="cls-14" transform="matrix(-0.11, -0.99, 0.99, -0.11, 127.8, 838.02)">Q</text><text class="cls-14" transform="translate(125.68 819.56) rotate(-94.72)">U</text><text class="cls-14" transform="matrix(-0.05, -1, 1, -0.05, 124.27, 802.14)">E</text><text class="cls-14" transform="translate(123.56 788.89) rotate(-91.57)">S</text><text class="cls-14" transform="translate(123.19 775.63) rotate(-90.06)">T</text><text class="cls-14" transform="translate(123.21 762.19) rotate(-88.93)">I</text><text class="cls-14" transform="translate(123.25 755.8) rotate(-87.52)">O</text><text class="cls-14" transform="translate(124.06 737.24) rotate(-85.5)">N</text><text class="cls-15" transform="matrix(-0.18, -0.98, 0.98, -0.18, 236.59, 860.05)">R</text><text class="cls-15" transform="translate(234.64 849.54) rotate(-99.48)">E</text><text class="cls-15" transform="matrix(-0.15, -0.99, 0.99, -0.15, 233.02, 839.89)">C</text><text class="cls-15" transform="translate(231.39 828.93) rotate(-96.97)">O</text><text class="cls-15" transform="translate(229.71 815.35) rotate(-95.17)">M</text><text class="cls-15" transform="matrix(-0.05, -1, 1, -0.05, 228.27, 799.45)">M</text><text class="cls-15" transform="translate(227.45 783.5) rotate(-91.4)">E</text><text class="cls-15" transform="translate(227.19 773.76) rotate(-89.85)">N</text><text class="cls-15" transform="translate(227.22 760.68) rotate(-88.05)">D</text><text class="cls-15" transform="translate(227.66 747.76) rotate(-86.39)">A</text><text class="cls-15" transform="translate(228.33 737.14) rotate(-85.14)">T</text><text class="cls-15" transform="translate(229.18 727.3) rotate(-84.21)">I</text><text class="cls-15" transform="translate(229.61 722.62) rotate(-83.06)">O</text><text class="cls-15" transform="translate(231.27 709.03) rotate(-81.49)">N</text><text class="cls-16" transform="matrix(-0.02, -1, 1, -0.02, 278.01, 785.61)">7</text><circle class="cls-13" cx="154.38" cy="781.35" r="17.32"/><path class="cls-2" d="M156.53,783.41l.08,5.77-4.16.06-.08-5.77-.06-4.18-.08-5.78,4.16,0,.08,5.77Z"/><circle class="cls-13" cx="154.38" cy="781.35" r="17.32"/><path class="cls-2" d="M156.53,783.41l.08,5.77-4.16.06-.08-5.77-5.7.08-.06-4.18,5.7-.08-.08-5.78,4.16,0,.08,5.77,5.61-.08.06,4.18Z"/><text class="cls-14" transform="translate(149.82 589.51) rotate(-73.78)">Q</text><text class="cls-14" transform="translate(155.02 571.66) rotate(-71.93)">U</text><text class="cls-14" transform="matrix(0.34, -0.94, 0.94, 0.34, 160.46, 555.05)">E</text><text class="cls-14" transform="translate(164.94 542.56) rotate(-68.78)">S</text><text class="cls-14" transform="matrix(0.39, -0.92, 0.92, 0.39, 169.74, 530.19)">T</text><text class="cls-14" transform="translate(174.96 517.81) rotate(-66.14)">I</text><text class="cls-14" transform="translate(177.48 511.94) rotate(-64.73)">O</text><text class="cls-14" transform="translate(185.41 495.15) rotate(-62.71)">N</text><text class="cls-15" transform="translate(241.61 651.95) rotate(-77.7)">R</text><text class="cls-15" transform="matrix(0.23, -0.97, 0.97, 0.23, 243.89, 641.5)">E</text><text class="cls-15" transform="translate(246.13 631.97) rotate(-75.55)">C</text><text class="cls-15" transform="translate(248.88 621.24) rotate(-74.18)">O</text><text class="cls-15" transform="translate(252.59 608.07) rotate(-72.38)">M</text><text class="cls-15" transform="matrix(0.34, -0.94, 0.94, 0.34, 257.42, 592.85)">M</text><text class="cls-15" transform="translate(262.84 577.83) rotate(-68.61)">E</text><text class="cls-15" transform="translate(266.37 568.74) rotate(-67.05)">N</text><text class="cls-15" transform="translate(271.46 556.7) rotate(-65.26)">D</text><text class="cls-15" transform="translate(276.88 544.96) rotate(-63.6)">A</text><text class="cls-15" transform="translate(281.6 535.43) rotate(-62.35)">T</text><text class="cls-15" transform="matrix(0.48, -0.88, 0.88, 0.48, 286.21, 526.69)">I</text><text class="cls-15" transform="matrix(0.5, -0.87, 0.87, 0.5, 288.41, 522.54)">O</text><text class="cls-15" transform="matrix(0.52, -0.85, 0.85, 0.52, 295.21, 510.65)">N</text><text class="cls-16" transform="matrix(0.37, -0.93, 0.93, 0.37, 308.63, 599.36)">8</text><circle class="cls-13" cx="196.28" cy="547.55" r="17.32"/><path class="cls-2" d="M197.47,550.29l-2.16,5.35-3.86-1.55,2.17-5.36,1.56-3.87,2.16-5.36,3.86,1.56L199,546.41Z"/><circle class="cls-13" cx="196.28" cy="547.55" r="17.32"/><path class="cls-2" d="M197.47,550.29l-2.16,5.35-3.86-1.55,2.17-5.36-5.29-2.13,1.57-3.88,5.28,2.14,2.16-5.36,3.86,1.56L199,546.41l5.2,2.1-1.57,3.88Z"/><text class="cls-14" transform="translate(260.86 375.81) rotate(-51.79)">Q</text><text class="cls-14" transform="translate(272.36 361.2) rotate(-49.94)">U</text><text class="cls-14" transform="matrix(0.67, -0.75, 0.75, 0.67, 283.63, 347.85)">E</text><text class="cls-14" transform="matrix(0.68, -0.73, 0.73, 0.68, 292.46, 337.94)">S</text><text class="cls-14" transform="translate(301.54 328.27) rotate(-45.28)">T</text><text class="cls-14" transform="matrix(0.72, -0.7, 0.7, 0.72, 311.02, 318.74)">I</text><text class="cls-14" transform="matrix(0.73, -0.68, 0.68, 0.73, 315.55, 314.24)">O</text><text class="cls-14" transform="translate(329.19 301.64) rotate(-40.72)">N</text><text class="cls-15" transform="matrix(0.56, -0.83, 0.83, 0.56, 322.57, 468.1)">R</text><text class="cls-15" transform="matrix(0.58, -0.82, 0.82, 0.58, 328.59, 459.27)">E</text><text class="cls-15" transform="translate(334.24 451.27) rotate(-53.57)">C</text><text class="cls-15" transform="matrix(0.61, -0.79, 0.79, 0.61, 340.8, 442.34)">O</text><text class="cls-15" transform="matrix(0.64, -0.77, 0.77, 0.64, 349.18, 431.52)">M</text><text class="cls-15" transform="translate(359.35 419.22) rotate(-48.33)">M</text><text class="cls-15" transform="translate(370 407.32) rotate(-46.62)">E</text><text class="cls-15" transform="matrix(0.71, -0.71, 0.71, 0.71, 376.68, 400.22)">N</text><text class="cls-15" transform="translate(385.91 390.96) rotate(-43.27)">D</text><text class="cls-15" transform="matrix(0.75, -0.66, 0.66, 0.75, 395.33, 382.1)">A</text><text class="cls-15" transform="translate(403.28 375.03) rotate(-40.36)">T</text><text class="cls-15" transform="translate(410.82 368.65) rotate(-39.43)">I</text><text class="cls-15" transform="translate(414.42 365.63) rotate(-38.28)">O</text><text class="cls-15" transform="matrix(0.8, -0.6, 0.6, 0.8, 425.17, 357.15)">N</text><text class="cls-16" transform="matrix(0.69, -0.72, 0.72, 0.69, 404.4, 444.43)">9</text><circle class="cls-13" cx="319.65" cy="354.29" r="17.32"/><path class="cls-2" d="M319.74,357.27l-4,4.16-3-2.89,4-4.16,2.9-3,4-4.16,3,2.89-4,4.16Z"/><circle class="cls-13" cx="319.65" cy="354.29" r="17.32"/><path class="cls-2" d="M319.74,357.27l-4,4.16-3-2.89,4-4.16-4.1-3.95,2.9-3,4.1,4,4-4.16,3,2.89-4,4.16,4,3.89-2.9,3Z"/><text class="cls-14" transform="matrix(0.87, -0.49, 0.49, 0.87, 449.78, 215.85)">Q</text><text class="cls-14" transform="matrix(0.89, -0.46, 0.46, 0.89, 466.01, 206.79)">U</text><text class="cls-14" transform="matrix(0.9, -0.43, 0.43, 0.9, 481.54, 198.79)">E</text><text class="cls-14" transform="translate(493.51 193.04) rotate(-24.19)">S</text><text class="cls-14" transform="translate(505.61 187.6) rotate(-22.68)">T</text><text class="cls-14" transform="translate(518.02 182.45) rotate(-21.55)">I</text><text class="cls-14" transform="translate(523.93 180.03) rotate(-20.13)">O</text><text class="cls-14" transform="translate(541.37 173.65) rotate(-18.12)">N</text><text class="cls-15" transform="matrix(0.84, -0.55, 0.55, 0.84, 471.28, 324.8)">R</text><text class="cls-15" transform="matrix(0.85, -0.53, 0.53, 0.85, 480.24, 318.96)">E</text><text class="cls-15" transform="translate(488.53 313.75) rotate(-30.96)">C</text><text class="cls-15" transform="matrix(0.87, -0.49, 0.49, 0.87, 498.02, 308.03)">O</text><text class="cls-15" transform="translate(509.91 301.26) rotate(-27.78)">M</text><text class="cls-15" transform="translate(524.03 293.82) rotate(-25.73)">M</text><text class="cls-15" transform="translate(538.43 286.92) rotate(-24.01)">E</text><text class="cls-15" transform="translate(547.33 282.93) rotate(-22.46)">N</text><text class="cls-15" transform="translate(559.39 277.95) rotate(-20.67)">D</text><text class="cls-15" transform="translate(571.52 273.38) rotate(-19)">A</text><text class="cls-15" transform="translate(581.57 269.91) rotate(-17.75)">T</text><text class="cls-15" transform="matrix(0.96, -0.29, 0.29, 0.96, 590.98, 266.92)">I</text><text class="cls-15" transform="matrix(0.96, -0.27, 0.27, 0.96, 595.47, 265.51)">O</text><text class="cls-15" transform="translate(608.65 261.82) rotate(-14.1)">N</text><text class="cls-16" transform="translate(546.84 338.83) rotate(-25.2)">1</text><text class="cls-16" transform="translate(565.1 330.23) rotate(-22.16)">0</text><circle class="cls-13" cx="512.32" cy="218.64" r="17.32"/><path class="cls-2" d="M511.25,221.42l-5.3,2.29-1.65-3.81,5.3-2.3,3.83-1.66,5.3-2.3,1.66,3.82-5.3,2.3Z"/><circle class="cls-13" cx="512.32" cy="218.64" r="17.32"/><path class="cls-2" d="M511.25,221.42l-5.3,2.29-1.65-3.81,5.3-2.3-2.27-5.23,3.84-1.66,2.26,5.23,5.3-2.3,1.66,3.82-5.3,2.3,2.22,5.14-3.83,1.66Z"/><text class="cls-14" transform="translate(681.74 141.31) rotate(-6.93)">Q</text><text class="cls-14" transform="translate(700.19 139.07) rotate(-5.08)">U</text><text class="cls-14" transform="matrix(1, -0.06, 0.06, 1, 717.6, 137.55)">E</text><text class="cls-14" transform="matrix(1, -0.03, 0.03, 1, 730.85, 136.76)">S</text><text class="cls-14" transform="translate(744.11 136.31) rotate(-0.43)">T</text><text class="cls-14" transform="translate(757.55 136.24) rotate(0.7)">I</text><text class="cls-14" transform="translate(763.93 136.24) rotate(2.12)">O</text><text class="cls-14" transform="matrix(1, 0.07, -0.07, 1, 782.49, 136.94)">N</text><text class="cls-15" transform="matrix(0.98, -0.19, 0.19, 0.98, 660.41, 250.26)">R</text><text class="cls-15" transform="matrix(0.99, -0.17, 0.17, 0.99, 670.9, 248.25)">E</text><text class="cls-15" transform="matrix(0.99, -0.15, 0.15, 0.99, 680.55, 246.56)">C</text><text class="cls-15" transform="matrix(0.99, -0.13, 0.13, 0.99, 691.5, 244.87)">O</text><text class="cls-15" transform="translate(705.07 243.1) rotate(-5.53)">M</text><text class="cls-15" transform="matrix(1, -0.06, 0.06, 1, 720.95, 241.55)">M</text><text class="cls-15" transform="translate(736.9 240.63) rotate(-1.76)">E</text><text class="cls-15" transform="matrix(1, 0, 0, 1, 746.64, 240.31)">N</text><text class="cls-15" transform="translate(759.69 240.26) rotate(1.58)">D</text><text class="cls-15" transform="translate(772.64 240.62) rotate(3.25)">A</text><text class="cls-15" transform="translate(783.26 241.21) rotate(4.49)">T</text><text class="cls-15" transform="translate(793.11 242.01) rotate(5.43)">I</text><text class="cls-15" transform="translate(797.79 242.41) rotate(6.57)">O</text><text class="cls-15" transform="translate(811.39 243.98) rotate(8.15)">N</text><text class="cls-16" transform="translate(725.03 291.86) rotate(-2.95)">1</text><text class="cls-16" transform="translate(745.18 290.81) rotate(0.09)">1</text><circle class="cls-13" cx="738.58" cy="167.56" r="17.32"/><path class="cls-2" d="M736.54,169.73l-5.78.12-.08-4.16,5.77-.12,4.18-.09,5.77-.12.09,4.16-5.78.12Z"/><text class="cls-14" transform="translate(932.52 162.39) rotate(16.06)">Q</text><text class="cls-14" transform="translate(950.38 167.53) rotate(17.91)">U</text><text class="cls-14" transform="translate(967 172.93) rotate(19.58)">E</text><text class="cls-14" transform="translate(979.51 177.38) rotate(21.06)">S</text><text class="cls-14" transform="translate(991.89 182.14) rotate(22.56)">T</text><text class="cls-14" transform="translate(1004.29 187.33) rotate(23.69)">I</text><text class="cls-14" transform="translate(1010.16 189.83) rotate(25.11)">O</text><text class="cls-14" transform="matrix(0.89, 0.46, -0.46, 0.89, 1026.98, 197.71)">N</text><text class="cls-15" transform="matrix(0.98, 0.21, -0.21, 0.98, 870.34, 254.36)">R</text><text class="cls-15" transform="matrix(0.97, 0.23, -0.23, 0.97, 880.79, 256.61)">E</text><text class="cls-15" transform="matrix(0.97, 0.25, -0.25, 0.97, 890.33, 258.83)">C</text><text class="cls-15" transform="matrix(0.96, 0.27, -0.27, 0.96, 901.07, 261.54)">O</text><text class="cls-15" transform="matrix(0.95, 0.3, -0.3, 0.95, 914.25, 265.22)">M</text><text class="cls-15" transform="translate(929.48 270) rotate(19.52)">M</text><text class="cls-15" transform="matrix(0.93, 0.36, -0.36, 0.93, 944.52, 275.38)">E</text><text class="cls-15" transform="translate(953.61 278.89) rotate(22.78)">N</text><text class="cls-15" transform="translate(965.65 283.94) rotate(24.57)">D</text><text class="cls-15" transform="translate(977.43 289.33) rotate(26.24)">A</text><text class="cls-15" transform="matrix(0.89, 0.46, -0.46, 0.89, 986.97, 294.03)">T</text><text class="cls-15" transform="translate(995.72 298.61) rotate(28.42)">I</text><text class="cls-15" transform="translate(999.88 300.8) rotate(29.56)">O</text><text class="cls-15" transform="translate(1011.78 307.56) rotate(31.14)">N</text><text class="cls-16" transform="translate(913.58 317.9) rotate(20.05)">1</text><text class="cls-16" transform="translate(932.54 324.81) rotate(23.08)">2</text><circle class="cls-13" cx="974.62" cy="208.75" r="17.32"/><path class="cls-2" d="M971.89,210l-5.36-2.14,1.55-3.87,5.36,2.15,3.88,1.55,5.36,2.15-1.55,3.86-5.36-2.14Z"/><circle class="cls-13" cx="974.62" cy="208.75" r="17.32"/><path class="cls-2" d="M971.89,210l-5.36-2.14,1.55-3.87,5.36,2.15,2.12-5.29,3.87,1.55-2.11,5.29,5.36,2.15-1.55,3.86-5.36-2.14-2.08,5.2-3.88-1.55Z"/><text class="cls-14" transform="matrix(0.78, 0.62, -0.62, 0.78, 1151.17, 276.54)">Q</text><text class="cls-14" transform="translate(1165.7 288.14) rotate(40.44)">U</text><text class="cls-14" transform="matrix(0.74, 0.67, -0.67, 0.74, 1178.98, 299.49)">E</text><text class="cls-14" transform="translate(1188.83 308.39) rotate(43.58)">S</text><text class="cls-14" transform="matrix(0.71, 0.71, -0.71, 0.71, 1198.44, 317.53)">T</text><text class="cls-14" transform="matrix(0.69, 0.72, -0.72, 0.69, 1207.91, 327.07)">I</text><text class="cls-14" transform="translate(1212.38 331.63) rotate(47.64)">O</text><text class="cls-14" transform="translate(1224.89 345.36) rotate(49.65)">N</text><text class="cls-15" transform="translate(1058.51 337.62) rotate(34.67)">R</text><text class="cls-15" transform="translate(1067.3 343.7) rotate(35.68)">E</text><text class="cls-15" transform="translate(1075.26 349.4) rotate(36.81)">C</text><text class="cls-15" transform="matrix(0.79, 0.62, -0.62, 0.79, 1084.14, 356.03)">O</text><text class="cls-15" transform="matrix(0.77, 0.64, -0.64, 0.77, 1094.91, 364.47)">M</text><text class="cls-15" transform="matrix(0.74, 0.67, -0.67, 0.74, 1107.15, 374.72)">M</text><text class="cls-15" transform="matrix(0.72, 0.69, -0.69, 0.72, 1118.98, 385.45)">E</text><text class="cls-15" transform="translate(1126.04 392.18) rotate(45.31)">N</text><text class="cls-15" transform="matrix(0.68, 0.73, -0.73, 0.68, 1135.23, 401.47)">D</text><text class="cls-15" transform="matrix(0.66, 0.75, -0.75, 0.66, 1144.03, 410.95)">A</text><text class="cls-15" transform="translate(1151.04 418.94) rotate(50.02)">T</text><text class="cls-15" transform="translate(1157.38 426.53) rotate(50.95)">I</text><text class="cls-15" transform="translate(1160.37 430.15) rotate(52.09)">O</text><text class="cls-15" transform="matrix(0.59, 0.81, -0.81, 0.59, 1168.78, 440.95)">N</text><text class="cls-16" transform="matrix(0.74, 0.68, -0.68, 0.74, 1074.11, 412.88)">1</text><text class="cls-16" transform="translate(1088.98 426.52) rotate(45.61)">3</text><circle class="cls-13" cx="1172.32" cy="335.48" r="17.32"/><path class="cls-2" d="M1169.34,335.54l-4.13-4,2.91-3,4.13,4,3,2.92,4.13,4-2.91,3-4.13-4Z"/><circle class="cls-13" cx="1172.32" cy="335.48" r="17.32"/><path class="cls-2" d="M1169.34,335.54l-4.13-4,2.91-3,4.13,4,4-4.08,3,2.92-4,4.08,4.13,4-2.91,3-4.13-4-3.91,4-3-2.92Z"/><text class="cls-14" transform="translate(1307.5 462.22) rotate(60.75)">Q</text><text class="cls-14" transform="translate(1316.58 478.44) rotate(62.6)">U</text><text class="cls-14" transform="matrix(0.43, 0.9, -0.9, 0.43, 1324.59, 493.97)">E</text><text class="cls-14" transform="matrix(0.41, 0.91, -0.91, 0.41, 1330.36, 505.92)">S</text><text class="cls-14" transform="translate(1335.81 518.01) rotate(67.25)">T</text><text class="cls-14" transform="translate(1340.97 530.42) rotate(68.38)">I</text><text class="cls-14" transform="translate(1343.4 536.33) rotate(69.8)">O</text><text class="cls-14" transform="translate(1349.81 553.76) rotate(71.81)">N</text><text class="cls-15" transform="translate(1198.62 483.81) rotate(56.83)">R</text><text class="cls-15" transform="matrix(0.53, 0.85, -0.85, 0.53, 1204.47, 492.76)">E</text><text class="cls-15" transform="translate(1209.69 501.04) rotate(58.97)">C</text><text class="cls-15" transform="translate(1215.42 510.53) rotate(60.35)">O</text><text class="cls-15" transform="translate(1222.21 522.41) rotate(62.15)">M</text><text class="cls-15" transform="translate(1229.67 536.52) rotate(64.21)">M</text><text class="cls-15" transform="translate(1236.58 550.92) rotate(65.92)">E</text><text class="cls-15" transform="translate(1240.58 559.81) rotate(67.47)">N</text><text class="cls-15" transform="translate(1245.58 571.86) rotate(69.26)">D</text><text class="cls-15" transform="translate(1250.16 583.98) rotate(70.93)">A</text><text class="cls-15" transform="matrix(0.31, 0.95, -0.95, 0.31, 1253.64, 594.03)">T</text><text class="cls-15" transform="matrix(0.29, 0.96, -0.96, 0.29, 1256.65, 603.44)">I</text><text class="cls-15" transform="translate(1258.05 607.93) rotate(74.26)">O</text><text class="cls-15" transform="matrix(0.24, 0.97, -0.97, 0.24, 1261.76, 621.1)">N</text><text class="cls-16" transform="translate(1184.68 559.39) rotate(64.74)">1</text><text class="cls-16" transform="translate(1193.3 577.64) rotate(67.77)">4</text><circle class="cls-13" cx="1304.82" cy="524.76" r="17.32"/><path class="cls-1" d="M1302,523.69l-2.3-5.3,3.81-1.66,2.31,5.3,1.66,3.83,2.3,5.3-3.81,1.66-2.3-5.3Z"/><circle class="cls-13" cx="1304.82" cy="524.76" r="17.32"/><path class="cls-1" d="M1302,523.69l-2.3-5.3,3.81-1.66,2.31,5.3,5.22-2.27,1.67,3.83-5.23,2.27,2.3,5.3-3.81,1.66-2.3-5.3-5.15,2.23-1.66-3.83Z"/><text class="cls-14" transform="translate(1382.56 695.83) rotate(83.16)">Q</text><text class="cls-14" transform="matrix(0.09, 1, -1, 0.09, 1384.77, 714.28)">U</text><text class="cls-14" transform="matrix(0.06, 1, -1, 0.06, 1386.27, 731.69)">E</text><text class="cls-14" transform="translate(1387.04 744.94) rotate(88.15)">S</text><text class="cls-14" transform="matrix(0.01, 1, -1, 0.01, 1387.47, 758.2)">T</text><text class="cls-14" transform="translate(1387.51 771.64) rotate(90.79)">I</text><text class="cls-14" transform="translate(1387.5 778.03) rotate(92.21)">O</text><text class="cls-14" transform="matrix(-0.07, 1, -1, -0.07, 1386.78, 796.59)">N</text><text class="cls-15" transform="translate(1273.64 674.33) rotate(79.24)">R</text><text class="cls-15" transform="translate(1275.64 684.83) rotate(80.25)">E</text><text class="cls-15" transform="translate(1277.31 694.47) rotate(81.38)">C</text><text class="cls-15" transform="matrix(0.13, 0.99, -0.99, 0.13, 1278.99, 705.43)">O</text><text class="cls-15" transform="translate(1280.73 719) rotate(84.56)">M</text><text class="cls-15" transform="matrix(0.06, 1, -1, 0.06, 1282.25, 734.89)">M</text><text class="cls-15" transform="matrix(0.03, 1, -1, 0.03, 1283.15, 750.83)">E</text><text class="cls-15" transform="matrix(0, 1, -1, 0, 1283.46, 760.58)">N</text><text class="cls-15" transform="translate(1283.49 773.65) rotate(91.67)">D</text><text class="cls-15" transform="translate(1283.11 786.58) rotate(93.34)">A</text><text class="cls-15" transform="matrix(-0.08, 1, -1, -0.08, 1282.49, 797.19)">T</text><text class="cls-15" transform="matrix(-0.1, 1, -1, -0.1, 1281.68, 807.04)">I</text><text class="cls-15" transform="translate(1281.27 811.72) rotate(96.66)">O</text><text class="cls-15" transform="matrix(-0.14, 0.99, -0.99, -0.14, 1279.68, 825.32)">N</text><text class="cls-16" transform="matrix(0.05, 1, -1, 0.05, 1231.94, 738.88)">1</text><text class="cls-16" transform="matrix(0, 1, -1, 0, 1232.96, 759.04)">5</text><circle class="cls-13" cx="1356.22" cy="752.63" r="17.32"/><path class="cls-1" d="M1354.05,750.59l-.11-5.78,4.16-.08.11,5.78.08,4.17.11,5.78-4.16.08-.11-5.78Z"/><circle class="cls-13" cx="1356.22" cy="752.63" r="17.32"/><path class="cls-1" d="M1354.05,750.59l-.11-5.78,4.16-.08.11,5.78,5.7-.11.08,4.18-5.7.1.11,5.78-4.16.08-.11-5.78-5.6.11-.08-4.18Z"/></g></g></svg>