<svg xmlns="http://www.w3.org/2000/svg" viewBox="0 0 1877.4 1518.04">
  <defs>
    <style>
      .cls-1, .cls-7 {
        fill: #004289;
      }

      .cls-12, .cls-2, .cls-6 {
        fill: #662d91;
      }

      .cls-3, .cls-8 {
        fill: #00b5e2;
      }

      .cls-4, .cls-5 {
        fill: none;
      }

      .cls-12, .cls-4, .cls-5, .cls-6, .cls-7, .cls-8 {
        stroke: #fff;
        stroke-miterlimit: 10;
      }

      .cls-4 {
        stroke-width: 4px;
      }

      .cls-5 {
        stroke-width: 2.72px;
      }

      .cls-6, .cls-7, .cls-8 {
        stroke-width: 2.76px;
      }

      .cls-9 {
        font-size: 47.96px;
      }

      .cls-10, .cls-11, .cls-13, .cls-14, .cls-15, .cls-16, .cls-9 {
        fill: #fff;
      }

      .cls-10, .cls-11, .cls-9 {
        font-family: OpenSans-Extrabold, OpenSans Extrabold;
        font-weight: 800;
      }

      .cls-10 {
        font-size: 47.78px;
      }

      .cls-11 {
        font-size: 47.96px;
      }

      .cls-12 {
        stroke-width: 3.1px;
      }

      .cls-14 {
        font-size: 27.19px;
      }

      .cls-14, .cls-15 {
        font-family: OpenSans;
      }

      .cls-15 {
        font-size: 20px;
      }

      .cls-16 {
        font-size: 40px;
        font-family: OpenSans-Bold, OpenSans Bold;
        font-weight: 700;
      }

      .cls-17 {
        fill: #c1272d;
      }
    </style>
  </defs>
  <title>Asset 4</title>
  <g id="Layer_2" data-name="Layer 2">
    <g id="Roda">
      <g>
        <g>
          <g>
            <path class="cls-1" d="M1522.85,362.48A695.17,695.17,0,0,0,1071.1,78.21L953.83,765.65Z"/>
            <path class="cls-2" d="M977.3,760.32l93.8-682.11A697.38,697.38,0,1,0,836.56,1453.1c88.58,15.11,176.11,12.79,282.55-9.79Z"/>
            <path class="cls-3" d="M1344.49,1337.52a695.27,695.27,0,0,0,284.27-451.75c32.38-189.84-15.25-374.82-118.43-520.45L968.23,762.38l141.81,683C1178,1431.77,1266.81,1392.55,1344.49,1337.52Z"/>
          </g>
          <line class="cls-4" x1="959.4" y1="763.82" x2="298.84" y2="913.98"/>
          <line class="cls-4" x1="1107.11" y1="1422.84" x2="807.7" y2="105.71"/>
          <g>
            <line class="cls-4" x1="1317.22" y1="192.75" x2="597.59" y2="1335.8"/>
            <line class="cls-4" x1="1528.93" y1="1124.09" x2="385.88" y2="404.46"/>
          </g>
          <circle class="cls-5" cx="957.58" cy="764.8" r="571.74"/>
          <g>
            <line class="cls-4" x1="1508.55" y1="373.95" x2="406.26" y2="1154.6"/>
            <line class="cls-4" x1="1347.73" y1="1315.42" x2="567.08" y2="213.13"/>
          </g>
          <g>
            <line class="cls-4" x1="1071.12" y1="98.55" x2="843.69" y2="1430"/>
            <line class="cls-4" x1="1623.13" y1="877.99" x2="291.68" y2="650.56"/>
          </g>
          <path class="cls-6" d="M842.18,1427.1c-365.81-62.4-611.77-409.53-549.37-775.34S702.35,40,1068.15,102.39l13.43-78.71-.19,0C672-46.19,283.52,229.07,213.69,638.45s205.42,797.87,614.81,867.71c95.6,16.31,190.06,13.79,296.19-8.63l-16.3-78.49C1011.86,1439.43,927.53,1441.66,842.18,1427.1Z"/>
          <path class="cls-7" d="M1070.23,101.92c182.9,31.2,335.85,133.59,435.26,273.9l65.09-46.12c-111.22-157-282.31-271.54-486.92-306.49l-13.43,78.71Z"/>
          <path class="cls-8" d="M1697.24,890.94c34.92-204.69-16.44-404.16-127.69-561.18l-65.09,46.12c99.41,140.31,145.3,318.54,114.1,501.45-47.84,280.45-263,490.46-512.39,542l16.3,78.49C1403,1439.7,1643.71,1204.72,1697.24,890.94Z"/>
          <g>
            <text class="cls-9" transform="translate(1655 746.51) rotate(90.45)">S</text>
            <text class="cls-9" transform="translate(1654.86 769.89) rotate(92.46)">C</text>
            <text class="cls-9" transform="matrix(-0.08, 1, -1, -0.08, 1653.67, 797.37)">R</text>
            <text class="cls-9" transform="matrix(-0.11, 0.99, -0.99, -0.11, 1651.63, 822.82)">E</text>
            <text class="cls-9" transform="translate(1649 846.04) rotate(98.29)">E</text>
            <text class="cls-9" transform="translate(1645.72 869.08) rotate(100.4)">N</text>
            <text class="cls-9" transform="translate(1639.93 899.88) rotate(102.05)">I</text>
            <text class="cls-9" transform="translate(1637.73 910.92) rotate(103.72)">N</text>
            <text class="cls-9" transform="translate(1630.33 941.22) rotate(106.15)">G</text>
            <text class="cls-9" transform="translate(1621.63 970.75) rotate(107.76)"> </text>
            <text class="cls-9" transform="matrix(-0.33, 0.94, -0.94, -0.33, 1618.73, 980.25)">A</text>
            <text class="cls-9" transform="matrix(-0.37, 0.93, -0.93, -0.37, 1609.15, 1007.67)">N</text>
            <text class="cls-9" transform="translate(1597.63 1036.67) rotate(114.19)">D</text>
            <text class="cls-9" transform="translate(1584.49 1065.54) rotate(115.85)"> </text>
            <text class="cls-9" transform="translate(1580.31 1074.55) rotate(117.51)">D</text>
            <text class="cls-9" transform="translate(1565.53 1102.6) rotate(119.22)">I</text>
            <text class="cls-9" transform="translate(1560.15 1112.47) rotate(120.83)">A</text>
            <text class="cls-9" transform="matrix(-0.55, 0.84, -0.84, -0.55, 1545.68, 1136.8)">G</text>
            <text class="cls-9" transform="translate(1528.94 1162.46) rotate(125.6)">N</text>
            <text class="cls-9" transform="translate(1510.79 1187.86) rotate(128.13)">O</text>
            <text class="cls-9" transform="matrix(-0.65, 0.76, -0.76, -0.65, 1490.52, 1213.54)">S</text>
            <text class="cls-9" transform="matrix(-0.67, 0.75, -0.75, -0.67, 1475.28, 1231.38)">I</text>
            <text class="cls-9" transform="translate(1467.82 1239.85) rotate(133.09)">S</text>
          </g>
          <g>
            <text class="cls-10" transform="translate(270.98 893.3) rotate(-97.74)">M</text>
            <text class="cls-10" transform="matrix(-0.09, -1, 1, -0.09, 266, 856.06)">A</text>
            <text class="cls-10" transform="matrix(-0.05, -1, 1, -0.05, 263.38, 827.25)">N</text>
            <text class="cls-10" transform="translate(261.86 796.17) rotate(-90.49)">A</text>
            <text class="cls-10" transform="translate(261.59 767.94) rotate(-88.25)">G</text>
            <text class="cls-10" transform="translate(262.58 737.39) rotate(-86.19)">E</text>
            <text class="cls-10" transform="translate(263.96 714.23) rotate(-83.83)">M</text>
            <text class="cls-10" transform="translate(268.2 676.37) rotate(-81.46)">E</text>
            <text class="cls-10" transform="translate(271.57 653.39) rotate(-79.34)">N</text>
            <text class="cls-10" transform="matrix(0.22, -0.98, 0.98, 0.22, 277.39, 622.81)">T</text>
            <text class="cls-10" transform="matrix(0.24, -0.97, 0.97, 0.24, 282.68, 599.85)"> </text>
            <text class="cls-10" transform="translate(284.93 590.2) rotate(-74.22)">O</text>
            <text class="cls-10" transform="matrix(0.31, -0.95, 0.95, 0.31, 293.89, 558.83)">F</text>
            <text class="cls-10" transform="translate(301.08 536.89) rotate(-70.73)"> </text>
            <text class="cls-10" transform="translate(304.19 527.5) rotate(-69.1)">D</text>
            <text class="cls-10" transform="matrix(0.39, -0.92, 0.92, 0.39, 315.5, 498.08)">E</text>
            <text class="cls-10" transform="translate(324.59 476.67) rotate(-65.05)">P</text>
            <text class="cls-10" transform="matrix(0.45, -0.89, 0.89, 0.45, 335.19, 453.87)">R</text>
            <text class="cls-10" transform="translate(346.73 431.19) rotate(-61.15)">E</text>
            <text class="cls-10" transform="matrix(0.51, -0.86, 0.86, 0.51, 357.95, 410.82)">S</text>
            <text class="cls-10" transform="matrix(0.54, -0.84, 0.84, 0.54, 369.83, 390.78)">S</text>
            <text class="cls-10" transform="translate(382.45 371.1) rotate(-56.15)">I</text>
            <text class="cls-10" transform="matrix(0.58, -0.81, 0.81, 0.58, 388.55, 361.72)">O</text>
            <text class="cls-10" transform="matrix(0.62, -0.79, 0.79, 0.62, 407.5, 335.22)">N</text>
          </g>
          <g>
            <text class="cls-11" transform="matrix(0.92, 0.4, -0.4, 0.92, 1220.67, 119.14)">F</text>
            <text class="cls-11" transform="matrix(0.9, 0.44, -0.44, 0.9, 1241.82, 128.29)">O</text>
            <text class="cls-11" transform="matrix(0.88, 0.47, -0.47, 0.88, 1271.27, 142.64)">L</text>
            <text class="cls-11" transform="translate(1291.03 153.14) rotate(29.76)">L</text>
            <text class="cls-11" transform="translate(1308.89 163.2) rotate(31.8)">O</text>
            <text class="cls-11" transform="matrix(0.82, 0.57, -0.57, 0.82, 1336.68, 180.31)">W</text>
            <text class="cls-11" transform="translate(1369.13 203.05) rotate(36.82)">-</text>
            <text class="cls-11" transform="translate(1380.79 211.61) rotate(38.62)">U</text>
            <text class="cls-11" transform="translate(1404.77 230.83) rotate(40.85)">P</text>
          </g>
          <circle class="cls-12" cx="957.58" cy="764.8" r="451.07"/>
        </g>
        <g>
          <g>
            <g>
              <circle class="cls-13" cx="1543.53" cy="629.93" r="17.32"/>
              <path class="cls-3" d="M1541,628.35l-1.25-5.64,4.07-.89,1.24,5.64.9,4.07,1.25,5.64-4.07.9-1.24-5.64Z"/>
            </g>
            <g>
              <text class="cls-14" transform="translate(1556.19 565.7) rotate(72.56)">Q</text>
              <text class="cls-14" transform="matrix(0.27, 0.96, -0.96, 0.27, 1561.76, 583.45)">U</text>
              <text class="cls-14" transform="translate(1566.49 600.26) rotate(75.61)">E</text>
              <text class="cls-14" transform="translate(1569.79 613.13) rotate(76.82)">S</text>
              <text class="cls-14" transform="translate(1572.83 626.11) rotate(78.04)">T</text>
              <text class="cls-14" transform="translate(1575.59 639.25) rotate(78.95)">I</text>
              <text class="cls-14" transform="translate(1576.88 645.53) rotate(80.09)">O</text>
              <text class="cls-14" transform="matrix(0.14, 0.99, -0.99, 0.14, 1580.08, 663.87)">N</text>
            </g>
            <g>
              <text class="cls-15" transform="translate(1445.81 566) rotate(68.55)">R</text>
              <text class="cls-15" transform="matrix(0.35, 0.94, -0.94, 0.35, 1449.71, 575.94)">E</text>
              <text class="cls-15" transform="translate(1453.12 585.11) rotate(70.83)">C</text>
              <text class="cls-15" transform="matrix(0.31, 0.95, -0.95, 0.31, 1456.78, 595.59)">O</text>
              <text class="cls-15" transform="translate(1460.99 608.6) rotate(73.77)">M</text>
              <text class="cls-15" transform="matrix(0.25, 0.97, -0.97, 0.25, 1465.46, 623.95)">M</text>
              <text class="cls-15" transform="matrix(0.23, 0.97, -0.97, 0.23, 1469.42, 639.46)">E</text>
              <text class="cls-15" transform="translate(1471.65 648.96) rotate(78.17)">N</text>
              <text class="cls-15" transform="matrix(0.18, 0.98, -0.98, 0.18, 1474.33, 661.75)">D</text>
              <text class="cls-15" transform="translate(1476.67 674.5) rotate(80.96)">A</text>
              <text class="cls-15" transform="matrix(0.14, 0.99, -0.99, 0.14, 1478.34, 685.01)">T</text>
              <text class="cls-15" transform="matrix(0.13, 0.99, -0.99, 0.13, 1479.7, 694.79)">I</text>
              <text class="cls-15" transform="translate(1480.33 699.48) rotate(83.8)">O</text>
              <text class="cls-15" transform="translate(1481.81 713.09) rotate(85.26)">N</text>
            </g>
            <text class="cls-16" transform="translate(1419.18 646) rotate(76.97)">1</text>
            <g>
              <circle class="cls-13" cx="1543.53" cy="629.93" r="17.32"/>
              <path class="cls-3" d="M1541,628.35l-1.25-5.64,4.07-.89,1.24,5.64,5.57-1.23.9,4.08-5.57,1.22,1.25,5.64-4.07.9-1.24-5.64-5.48,1.21-.9-4.08Z"/>
            </g>
          </g>
          <g>
            <text class="cls-14" transform="translate(1565.66 934.81) rotate(105.38)">Q</text>
            <text class="cls-14" transform="translate(1560.73 952.73) rotate(107.24)">U</text>
            <text class="cls-14" transform="translate(1555.52 969.41) rotate(108.9)">E</text>
            <text class="cls-14" transform="matrix(-0.35, 0.94, -0.94, -0.35, 1551.23, 981.97)">S</text>
            <text class="cls-14" transform="translate(1546.61 994.4) rotate(111.89)">T</text>
            <text class="cls-14" transform="translate(1541.57 1006.86) rotate(113.02)">I</text>
            <text class="cls-14" transform="matrix(-0.41, 0.91, -0.91, -0.41, 1539.14, 1012.77)">O</text>
            <text class="cls-14" transform="translate(1531.45 1029.68) rotate(116.45)">N</text>
            <text class="cls-15" transform="translate(1472.98 873.72) rotate(101.46)">R</text>
            <text class="cls-15" transform="translate(1470.85 884.19) rotate(102.48)">E</text>
            <text class="cls-15" transform="matrix(-0.24, 0.97, -0.97, -0.24, 1468.75, 893.75)">C</text>
            <text class="cls-15" transform="translate(1466.16 904.53) rotate(104.98)">O</text>
            <text class="cls-15" transform="translate(1462.64 917.75) rotate(106.78)">M</text>
            <text class="cls-15" transform="translate(1458.04 933.03) rotate(108.84)">M</text>
            <text class="cls-15" transform="translate(1452.84 948.14) rotate(110.56)">E</text>
            <text class="cls-15" transform="translate(1449.44 957.27) rotate(112.11)">N</text>
            <text class="cls-15" transform="translate(1444.53 969.36) rotate(113.89)">D</text>
            <text class="cls-15" transform="translate(1439.28 981.21) rotate(115.56)">A</text>
            <text class="cls-15" transform="translate(1434.7 990.8) rotate(116.81)">T</text>
            <text class="cls-15" transform="matrix(-0.47, 0.89, -0.89, -0.47, 1430.22, 999.61)">I</text>
            <text class="cls-15" transform="translate(1428.07 1003.79) rotate(118.89)">O</text>
            <text class="cls-15" transform="matrix(-0.51, 0.86, -0.86, -0.51, 1421.45, 1015.78)">N</text>
            <text class="cls-16" transform="translate(1406.73 927.28) rotate(110.88)">2</text>
            <g>
              <circle class="cls-13" cx="1519.8" cy="977.45" r="17.32"/>
              <path class="cls-3" d="M1518.57,974.74l2.08-5.39,3.89,1.5-2.09,5.39-1.5,3.89-2.09,5.39L1515,984l2.08-5.39Z"/>
            </g>
            <g>
              <circle class="cls-13" cx="1519.8" cy="977.45" r="17.32"/>
              <path class="cls-3" d="M1518.57,974.74l2.08-5.39,3.89,1.5-2.09,5.39,5.32,2-1.51,3.9-5.31-2.06-2.09,5.39L1515,984l2.08-5.39-5.22-2,1.5-3.89Z"/>
            </g>
          </g>
          <g>
            <text class="cls-14" transform="translate(1453.87 1155.13) rotate(127.95)">Q</text>
            <text class="cls-14" transform="matrix(-0.64, 0.77, -0.77, -0.64, 1442.44, 1169.79)">U</text>
            <text class="cls-14" transform="matrix(-0.66, 0.75, -0.75, -0.66, 1431.23, 1183.19)">E</text>
            <text class="cls-14" transform="translate(1422.44 1193.14) rotate(132.94)">S</text>
            <text class="cls-14" transform="translate(1413.41 1202.85) rotate(134.45)">T</text>
            <text class="cls-14" transform="matrix(-0.71, 0.7, -0.7, -0.71, 1403.97, 1212.42)">I</text>
            <text class="cls-14" transform="translate(1399.47 1216.95) rotate(137)">O</text>
            <text class="cls-14" transform="translate(1385.88 1229.61) rotate(139.01)">N</text>
            <text class="cls-15" transform="matrix(-0.56, 0.83, -0.83, -0.56, 1391.73, 1063.15)">R</text>
            <text class="cls-15" transform="matrix(-0.57, 0.82, -0.82, -0.57, 1385.74, 1072.01)">E</text>
            <text class="cls-15" transform="matrix(-0.59, 0.81, -0.81, -0.59, 1380.13, 1080.03)">C</text>
            <text class="cls-15" transform="translate(1373.61 1088.99) rotate(127.55)">O</text>
            <text class="cls-15" transform="translate(1365.29 1099.85) rotate(129.35)">M</text>
            <text class="cls-15" transform="translate(1355.17 1112.19) rotate(131.4)">M</text>
            <text class="cls-15" transform="translate(1344.57 1124.14) rotate(133.12)">E</text>
            <text class="cls-15" transform="translate(1337.93 1131.28) rotate(134.67)">N</text>
            <text class="cls-15" transform="matrix(-0.72, 0.69, -0.69, -0.72, 1328.75, 1140.56)">D</text>
            <text class="cls-15" transform="matrix(-0.74, 0.67, -0.67, -0.74, 1319.36, 1149.48)">A</text>
            <text class="cls-15" transform="translate(1311.45 1156.58) rotate(139.37)">T</text>
            <text class="cls-15" transform="matrix(-0.77, 0.64, -0.64, -0.77, 1303.93, 1163)">I</text>
            <text class="cls-15" transform="translate(1300.35 1166.04) rotate(141.45)">O</text>
            <text class="cls-15" transform="translate(1289.63 1174.57) rotate(143.03)">N</text>
            <text class="cls-16" transform="translate(1310 1087.2) rotate(133.44)">3</text>
            <g>
              <circle class="cls-13" cx="1395.16" cy="1176.91" r="17.32"/>
              <path class="cls-3" d="M1395.07,1173.93l4-4.17,3,2.87-4,4.18-2.88,3-4,4.17-3-2.87,4-4.18Z"/>
            </g>
            <g>
              <circle class="cls-13" cx="1395.16" cy="1176.91" r="17.32"/>
              <path class="cls-3" d="M1395.07,1173.93l4-4.17,3,2.87-4,4.18,4.12,3.94-2.88,3-4.12-3.93-4,4.17-3-2.87,4-4.18-4-3.87,2.88-3Z"/>
            </g>
          </g>
          <g>
            <text class="cls-14" transform="translate(1267.42 1314.95) rotate(150.38)">Q</text>
            <text class="cls-14" transform="matrix(-0.88, 0.47, -0.47, -0.88, 1251.25, 1324.13)">U</text>
            <text class="cls-14" transform="matrix(-0.9, 0.44, -0.44, -0.9, 1235.78, 1332.25)">E</text>
            <text class="cls-14" transform="matrix(-0.91, 0.42, -0.42, -0.91, 1223.86, 1338.1)">S</text>
            <text class="cls-14" transform="translate(1211.81 1343.63) rotate(156.88)">T</text>
            <text class="cls-14" transform="matrix(-0.93, 0.37, -0.37, -0.93, 1199.43, 1348.87)">I</text>
            <text class="cls-14" transform="translate(1193.54 1351.33) rotate(159.42)">O</text>
            <text class="cls-14" transform="translate(1176.15 1357.86) rotate(161.44)">N</text>
            <text class="cls-15" transform="matrix(-0.83, 0.55, -0.55, -0.83, 1245.06, 1206.22)">R</text>
            <text class="cls-15" transform="translate(1236.15 1212.12) rotate(147.47)">E</text>
            <text class="cls-15" transform="translate(1227.9 1217.39) rotate(148.6)">C</text>
            <text class="cls-15" transform="matrix(-0.87, 0.5, -0.5, -0.87, 1218.46, 1223.19)">O</text>
            <text class="cls-15" transform="translate(1206.62 1230.05) rotate(151.78)">M</text>
            <text class="cls-15" transform="translate(1192.56 1237.6) rotate(153.83)">M</text>
            <text class="cls-15" transform="matrix(-0.91, 0.41, -0.41, -0.91, 1178.21, 1244.61)">E</text>
            <text class="cls-15" transform="translate(1169.34 1248.67) rotate(157.1)">N</text>
            <text class="cls-15" transform="translate(1157.32 1253.75) rotate(158.89)">D</text>
            <text class="cls-15" transform="translate(1145.23 1258.41) rotate(160.56)">A</text>
            <text class="cls-15" transform="translate(1135.21 1261.96) rotate(161.8)">T</text>
            <text class="cls-15" transform="matrix(-0.95, 0.3, -0.3, -0.95, 1125.82, 1265.02)">I</text>
            <text class="cls-15" transform="translate(1121.34 1266.46) rotate(163.88)">O</text>
            <text class="cls-15" transform="matrix(-0.97, 0.25, -0.25, -0.97, 1108.19, 1270.26)">N</text>
            <text class="cls-16" transform="translate(1160.35 1197.26) rotate(155.87)">4</text>
            <g>
              <circle class="cls-13" cx="1204.84" cy="1312.68" r="17.32"/>
              <path class="cls-3" d="M1205.88,1309.89l5.29-2.33,1.68,3.8-5.28,2.34-3.82,1.69-5.28,2.34-1.69-3.81,5.28-2.34Z"/>
            </g>
          </g>
          <g>
            <text class="cls-14" transform="translate(1031.81 1391.82) rotate(173.01)">Q</text>
            <text class="cls-14" transform="matrix(-1, 0.09, -0.09, -1, 1013.36, 1394.07)">U</text>
            <text class="cls-14" transform="translate(995.95 1395.61) rotate(176.53)">E</text>
            <text class="cls-14" transform="translate(982.7 1396.42) rotate(178.01)">S</text>
            <text class="cls-14" transform="matrix(-1, 0.01, -0.01, -1, 969.45, 1396.88)">T</text>
            <text class="cls-14" transform="matrix(-1, -0.01, 0.01, -1, 956.01, 1396.96)">I</text>
            <text class="cls-14" transform="translate(949.62 1396.97) rotate(-177.94)">O</text>
            <text class="cls-14" transform="translate(931.06 1396.29) rotate(-175.92)">N</text>
            <text class="cls-15" transform="translate(1053.03 1282.86) rotate(169.09)">R</text>
            <text class="cls-15" transform="translate(1042.53 1284.88) rotate(170.1)">E</text>
            <text class="cls-15" transform="matrix(-0.99, 0.15, -0.15, -0.99, 1032.89, 1286.57)">C</text>
            <text class="cls-15" transform="translate(1021.94 1288.28) rotate(172.61)">O</text>
            <text class="cls-15" transform="translate(1008.37 1290.06) rotate(174.41)">M</text>
            <text class="cls-15" transform="translate(992.49 1291.62) rotate(176.47)">M</text>
            <text class="cls-15" transform="translate(976.54 1292.56) rotate(178.18)">E</text>
            <text class="cls-15" transform="matrix(-1, 0, 0, -1, 966.8, 1292.89)">N</text>
            <text class="cls-15" transform="translate(953.75 1292.96) rotate(-178.48)">D</text>
            <text class="cls-15" transform="translate(940.8 1292.61) rotate(-176.81)">A</text>
            <text class="cls-15" transform="translate(930.18 1292.02) rotate(-175.56)">T</text>
            <text class="cls-15" transform="translate(920.33 1291.24) rotate(-174.63)">I</text>
            <text class="cls-15" transform="translate(915.65 1290.84) rotate(-173.48)">O</text>
            <text class="cls-15" transform="translate(902.05 1289.28) rotate(-171.91)">N</text>
            <text class="cls-16" transform="translate(978.28 1241.99) rotate(178.51)">5</text>
            <g>
              <circle class="cls-13" cx="974.92" cy="1365.64" r="17.32"/>
              <path class="cls-2" d="M977,1363.47l5.78-.12.08,4.16-5.77.12-4.18.09-5.77.12-.09-4.16,5.78-.12Z"/>
            </g>
            <g>
              <circle class="cls-13" cx="974.92" cy="1365.64" r="17.32"/>
              <path class="cls-2" d="M977,1363.47l5.78-.12.08,4.16-5.77.12.12,5.7-4.17.09-.13-5.7-5.77.12-.09-4.16,5.78-.12-.12-5.6,4.17-.09Z"/>
            </g>
          </g>
          <g>
            <text class="cls-14" transform="matrix(-0.96, -0.27, 0.27, -0.96, 786.61, 1372.61)">Q</text>
            <text class="cls-14" transform="translate(768.7 1367.64) rotate(-162.67)">U</text>
            <text class="cls-14" transform="translate(752.02 1362.41) rotate(-161.01)">E</text>
            <text class="cls-14" transform="translate(739.47 1358.1) rotate(-159.53)">S</text>
            <text class="cls-14" transform="translate(727.04 1353.46) rotate(-158.02)">T</text>
            <text class="cls-14" transform="translate(714.59 1348.4) rotate(-156.89)">I</text>
            <text class="cls-14" transform="translate(708.69 1345.96) rotate(-155.48)">O</text>
            <text class="cls-14" transform="translate(691.79 1338.25) rotate(-153.46)">N</text>
            <text class="cls-15" transform="translate(847.85 1280.02) rotate(-168.44)">R</text>
            <text class="cls-15" transform="translate(837.38 1277.88) rotate(-167.43)">E</text>
            <text class="cls-15" transform="translate(827.82 1275.76) rotate(-166.3)">C</text>
            <text class="cls-15" transform="translate(817.05 1273.16) rotate(-164.92)">O</text>
            <text class="cls-15" transform="translate(803.83 1269.62) rotate(-163.13)">M</text>
            <text class="cls-15" transform="translate(788.56 1264.99) rotate(-161.07)">M</text>
            <text class="cls-15" transform="matrix(-0.94, -0.35, 0.35, -0.94, 773.46, 1259.77)">E</text>
            <text class="cls-15" transform="translate(764.33 1256.35) rotate(-157.8)">N</text>
            <text class="cls-15" transform="translate(752.25 1251.42) rotate(-156.02)">D</text>
            <text class="cls-15" transform="matrix(-0.9, -0.43, 0.43, -0.9, 740.41, 1246.15)">A</text>
            <text class="cls-15" transform="translate(730.82 1241.55) rotate(-153.1)">T</text>
            <text class="cls-15" transform="translate(722.02 1237.07) rotate(-152.17)">I</text>
            <text class="cls-15" transform="translate(717.84 1234.91) rotate(-151.02)">O</text>
            <text class="cls-15" transform="matrix(-0.86, -0.51, 0.51, -0.86, 705.87, 1228.27)">N</text>
            <text class="cls-16" transform="matrix(-0.93, -0.36, 0.36, -0.93, 794.39, 1213.69)">6</text>
            <g>
              <circle class="cls-13" cx="744.04" cy="1326.68" r="17.32"/>
              <path class="cls-2" d="M746.76,1325.46l5.38,2.09-1.51,3.88-5.38-2.1-3.89-1.51-5.39-2.09,1.51-3.88,5.38,2.09Z"/>
            </g>
            <g>
              <circle class="cls-13" cx="744.04" cy="1326.68" r="17.32"/>
              <path class="cls-2" d="M746.76,1325.46l5.38,2.09-1.51,3.88-5.38-2.1-2.06,5.32-3.9-1.52,2.07-5.31-5.39-2.09,1.51-3.88,5.38,2.09,2-5.22,3.9,1.51Z"/>
            </g>
          </g>
          <g>
            <text class="cls-14" transform="translate(567.28 1261.11) rotate(-142.06)">Q</text>
            <text class="cls-14" transform="matrix(-0.77, -0.64, 0.64, -0.77, 552.62, 1249.68)">U</text>
            <text class="cls-14" transform="translate(539.22 1238.48) rotate(-138.54)">E</text>
            <text class="cls-14" transform="translate(529.27 1229.69) rotate(-137.06)">S</text>
            <text class="cls-14" transform="translate(519.55 1220.65) rotate(-135.55)">T</text>
            <text class="cls-14" transform="matrix(-0.7, -0.71, 0.71, -0.7, 509.98, 1211.22)">I</text>
            <text class="cls-14" transform="translate(505.46 1206.71) rotate(-133.01)">O</text>
            <text class="cls-14" transform="matrix(-0.66, -0.75, 0.75, -0.66, 492.79, 1193.13)">N</text>
            <text class="cls-15" transform="translate(659.26 1198.96) rotate(-145.97)">R</text>
            <text class="cls-15" transform="matrix(-0.82, -0.57, 0.57, -0.82, 650.4, 1192.98)">E</text>
            <text class="cls-15" transform="matrix(-0.81, -0.59, 0.59, -0.81, 642.38, 1187.37)">C</text>
            <text class="cls-15" transform="matrix(-0.79, -0.61, 0.61, -0.79, 633.42, 1180.85)">O</text>
            <text class="cls-15" transform="matrix(-0.77, -0.63, 0.63, -0.77, 622.56, 1172.52)">M</text>
            <text class="cls-15" transform="translate(610.21 1162.41) rotate(-138.6)">M</text>
            <text class="cls-15" transform="matrix(-0.73, -0.68, 0.68, -0.73, 598.26, 1151.81)">E</text>
            <text class="cls-15" transform="matrix(-0.71, -0.7, 0.7, -0.71, 591.12, 1145.17)">N</text>
            <text class="cls-15" transform="matrix(-0.69, -0.72, 0.72, -0.69, 581.84, 1136)">D</text>
            <text class="cls-15" transform="translate(572.92 1126.6) rotate(-131.88)">A</text>
            <text class="cls-15" transform="matrix(-0.65, -0.76, 0.76, -0.65, 565.82, 1118.69)">T</text>
            <text class="cls-15" transform="translate(559.4 1111.18) rotate(-129.69)">I</text>
            <text class="cls-15" transform="translate(556.36 1107.59) rotate(-128.55)">O</text>
            <text class="cls-15" transform="translate(547.83 1096.88) rotate(-126.97)">N</text>
            <text class="cls-16" transform="matrix(-0.73, -0.69, 0.69, -0.73, 635.21, 1117.24)">7</text>
            <g>
              <circle class="cls-13" cx="545.49" cy="1202.4" r="17.32"/>
              <path class="cls-2" d="M548.47,1202.31l4.18,4-2.88,3-4.17-4-3-2.89-4.18-4,2.88-3,4.17,4Z"/>
            </g>
            <g>
              <circle class="cls-13" cx="545.49" cy="1202.4" r="17.32"/>
              <path class="cls-2" d="M548.47,1202.31l4.18,4-2.88,3-4.17-4-3.94,4.12-3-2.89,3.94-4.12-4.18-4,2.88-3,4.17,4,3.88-4.05,3,2.89Z"/>
            </g>
          </g>
          <g>
            <text class="cls-14" transform="translate(405.5 1071.18) rotate(-119.27)">Q</text>
            <text class="cls-14" transform="translate(396.42 1054.96) rotate(-117.41)">U</text>
            <text class="cls-14" transform="translate(388.4 1039.44) rotate(-115.75)">E</text>
            <text class="cls-14" transform="matrix(-0.41, -0.91, 0.91, -0.41, 382.63, 1027.48)">S</text>
            <text class="cls-14" transform="translate(377.17 1015.39) rotate(-112.76)">T</text>
            <text class="cls-14" transform="matrix(-0.37, -0.93, 0.93, -0.37, 372, 1002.99)">I</text>
            <text class="cls-14" transform="translate(369.58 997.08) rotate(-110.22)">O</text>
            <text class="cls-14" transform="matrix(-0.31, -0.95, 0.95, -0.31, 363.17, 979.65)">N</text>
            <text class="cls-15" transform="translate(514.37 1049.51) rotate(-123.18)">R</text>
            <text class="cls-15" transform="translate(508.52 1040.56) rotate(-122.17)">E</text>
            <text class="cls-15" transform="matrix(-0.52, -0.86, 0.86, -0.52, 503.3, 1032.28)">C</text>
            <text class="cls-15" transform="translate(497.57 1022.8) rotate(-119.66)">O</text>
            <text class="cls-15" transform="matrix(-0.47, -0.88, 0.88, -0.47, 490.78, 1010.92)">M</text>
            <text class="cls-15" transform="translate(483.31 996.81) rotate(-115.81)">M</text>
            <text class="cls-15" transform="translate(476.4 982.41) rotate(-114.09)">E</text>
            <text class="cls-15" transform="matrix(-0.38, -0.92, 0.92, -0.38, 472.4, 973.52)">N</text>
            <text class="cls-15" transform="translate(467.38 961.45) rotate(-110.75)">D</text>
            <text class="cls-15" transform="translate(462.8 949.35) rotate(-109.09)">A</text>
            <text class="cls-15" transform="matrix(-0.31, -0.95, 0.95, -0.31, 459.32, 939.31)">T</text>
            <text class="cls-15" transform="translate(456.31 929.9) rotate(-106.9)">I</text>
            <text class="cls-15" transform="translate(454.9 925.41) rotate(-105.76)">O</text>
            <text class="cls-15" transform="translate(451.19 912.23) rotate(-104.18)">N</text>
            <text class="cls-16" transform="translate(523.85 964.85) rotate(-113.77)">8</text>
            <g>
              <circle class="cls-13" cx="408.16" cy="1008.61" r="17.32"/>
              <path class="cls-2" d="M410.94,1009.68l2.3,5.3-3.81,1.66-2.31-5.3-1.66-3.83-2.31-5.3,3.82-1.66,2.3,5.3Z"/>
            </g>
            <g>
              <circle class="cls-13" cx="408.16" cy="1008.61" r="17.32"/>
              <path class="cls-2" d="M410.94,1009.68l2.3,5.3-3.81,1.66-2.31-5.3-5.22,2.27-1.67-3.83,5.23-2.27-2.31-5.3,3.82-1.66,2.3,5.3,5.14-2.24,1.67,3.83Z"/>
            </g>
          </g>
          <g>
            <text class="cls-14" transform="translate(330.94 842.17) rotate(-97.28)">Q</text>
            <text class="cls-14" transform="translate(328.59 823.73) rotate(-95.42)">U</text>
            <text class="cls-14" transform="translate(326.97 806.33) rotate(-93.76)">E</text>
            <text class="cls-14" transform="translate(326.09 793.09) rotate(-92.28)">S</text>
            <text class="cls-14" transform="matrix(-0.01, -1, 1, -0.01, 325.56, 779.83)">T</text>
            <text class="cls-14" transform="translate(325.42 766.39) rotate(-89.64)">I</text>
            <text class="cls-14" transform="translate(325.38 760.01) rotate(-88.23)">O</text>
            <text class="cls-14" transform="translate(325.96 741.44) rotate(-86.21)">N</text>
            <text class="cls-15" transform="matrix(-0.19, -0.98, 0.98, -0.19, 440.01, 862.84)">R</text>
            <text class="cls-15" transform="translate(437.93 852.36) rotate(-100.18)">E</text>
            <text class="cls-15" transform="translate(436.19 842.72) rotate(-99.05)">C</text>
            <text class="cls-15" transform="translate(434.43 831.78) rotate(-97.67)">O</text>
            <text class="cls-15" transform="matrix(-0.1, -0.99, 0.99, -0.1, 432.58, 818.22)">M</text>
            <text class="cls-15" transform="matrix(-0.07, -1, 1, -0.07, 430.94, 802.35)">M</text>
            <text class="cls-15" transform="translate(429.92 786.41) rotate(-92.1)">E</text>
            <text class="cls-15" transform="translate(429.54 776.66) rotate(-90.55)">N</text>
            <text class="cls-15" transform="matrix(0.02, -1, 1, 0.02, 429.41, 763.62)">D</text>
            <text class="cls-15" transform="matrix(0.05, -1, 1, 0.05, 429.69, 750.66)">A</text>
            <text class="cls-15" transform="matrix(0.07, -1, 1, 0.07, 430.23, 740.04)">T</text>
            <text class="cls-15" transform="translate(430.96 730.19) rotate(-84.92)">I</text>
            <text class="cls-15" transform="translate(431.33 725.5) rotate(-83.77)">O</text>
            <text class="cls-15" transform="translate(432.82 711.89) rotate(-82.19)">N</text>
            <text class="cls-16" transform="translate(480.5 787.89) rotate(-91.78)">9</text>
            <g>
              <circle class="cls-13" cx="356.83" cy="785.15" r="17.32"/>
              <path class="cls-2" d="M359,787.18l.16,5.78-4.16.11-.16-5.78-.11-4.17-.15-5.78,4.16-.11.15,5.78Z"/>
            </g>
            <g>
              <circle class="cls-13" cx="356.83" cy="785.15" r="17.32"/>
              <path class="cls-2" d="M359,787.18l.16,5.78-4.16.11-.16-5.78-5.69.15-.11-4.17,5.69-.15-.15-5.78,4.16-.11.15,5.78,5.61-.15.11,4.17Z"/>
            </g>
          </g>
          <g>
            <text class="cls-14" transform="translate(349.35 595.34) rotate(-74.67)">Q</text>
            <text class="cls-14" transform="matrix(0.3, -0.96, 0.96, 0.3, 354.27, 577.41)">U</text>
            <text class="cls-14" transform="translate(359.46 560.73) rotate(-71.15)">E</text>
            <text class="cls-14" transform="matrix(0.35, -0.94, 0.94, 0.35, 363.74, 548.17)">S</text>
            <text class="cls-14" transform="translate(368.35 535.73) rotate(-68.17)">T</text>
            <text class="cls-14" transform="translate(373.38 523.26) rotate(-67.04)">I</text>
            <text class="cls-14" transform="translate(375.8 517.35) rotate(-65.62)">O</text>
            <text class="cls-14" transform="translate(383.47 500.44) rotate(-63.6)">N</text>
            <text class="cls-15" transform="translate(442.09 656.35) rotate(-78.59)">R</text>
            <text class="cls-15" transform="translate(444.2 645.87) rotate(-77.58)">E</text>
            <text class="cls-15" transform="translate(446.3 636.31) rotate(-76.45)">C</text>
            <text class="cls-15" transform="matrix(0.26, -0.97, 0.97, 0.26, 448.88, 625.53)">O</text>
            <text class="cls-15" transform="matrix(0.29, -0.96, 0.96, 0.29, 452.38, 612.3)">M</text>
            <text class="cls-15" transform="matrix(0.32, -0.95, 0.95, 0.32, 456.97, 597.02)">M</text>
            <text class="cls-15" transform="translate(462.16 581.91) rotate(-69.5)">E</text>
            <text class="cls-15" transform="translate(465.55 572.77) rotate(-67.95)">N</text>
            <text class="cls-15" transform="translate(470.45 560.67) rotate(-66.16)">D</text>
            <text class="cls-15" transform="matrix(0.43, -0.9, 0.9, 0.43, 475.69, 548.82)">A</text>
            <text class="cls-15" transform="translate(480.26 539.22) rotate(-63.24)">T</text>
            <text class="cls-15" transform="translate(484.73 530.41) rotate(-62.31)">I</text>
            <text class="cls-15" transform="matrix(0.48, -0.88, 0.88, 0.48, 486.87, 526.23)">O</text>
            <text class="cls-15" transform="translate(493.48 514.24) rotate(-59.59)">N</text>
            <text class="cls-16" transform="translate(505.07 612.3) rotate(-70.68)">1</text>
            <text class="cls-16" transform="translate(511.73 593.25) rotate(-67.65)">0</text>
            <g>
              <circle class="cls-13" cx="395.17" cy="552.65" r="17.32"/>
              <path class="cls-2" d="M396.4,555.37l-2.08,5.39-3.88-1.5,2.08-5.39L394,550l2.08-5.39,3.88,1.5-2.08,5.39Z"/>
            </g>
            <g>
              <circle class="cls-13" cx="395.17" cy="552.65" r="17.32"/>
              <path class="cls-2" d="M396.4,555.37l-2.08,5.39-3.88-1.5,2.08-5.39-5.32-2,1.5-3.9L394,550l2.08-5.39,3.88,1.5-2.08,5.39,5.23,2-1.5,3.89Z"/>
            </g>
          </g>
          <g>
            <text class="cls-14" transform="matrix(0.61, -0.79, 0.79, 0.61, 458.8, 377.66)">Q</text>
            <text class="cls-14" transform="matrix(0.64, -0.77, 0.77, 0.64, 470.14, 362.93)">U</text>
            <text class="cls-14" transform="translate(481.26 349.45) rotate(-48.91)">E</text>
            <text class="cls-14" transform="translate(489.98 339.44) rotate(-47.42)">S</text>
            <text class="cls-14" transform="matrix(0.7, -0.72, 0.72, 0.7, 498.95, 329.68)">T</text>
            <text class="cls-14" transform="translate(508.33 320.04) rotate(-44.79)">I</text>
            <text class="cls-14" transform="matrix(0.73, -0.69, 0.69, 0.73, 512.8, 315.49)">O</text>
            <text class="cls-14" transform="matrix(0.75, -0.66, 0.66, 0.75, 526.31, 302.74)">N</text>
            <text class="cls-15" transform="translate(521.53 469.24) rotate(-56.34)">R</text>
            <text class="cls-15" transform="translate(527.46 460.34) rotate(-55.33)">E</text>
            <text class="cls-15" transform="matrix(0.59, -0.81, 0.81, 0.59, 533.02, 452.28)">C</text>
            <text class="cls-15" transform="translate(539.48 443.29) rotate(-52.82)">O</text>
            <text class="cls-15" transform="matrix(0.63, -0.78, 0.78, 0.63, 547.73, 432.37)">M</text>
            <text class="cls-15" transform="translate(557.77 419.96) rotate(-48.97)">M</text>
            <text class="cls-15" transform="translate(568.29 407.94) rotate(-47.25)">E</text>
            <text class="cls-15" transform="translate(574.89 400.76) rotate(-45.7)">N</text>
            <text class="cls-15" transform="matrix(0.72, -0.69, 0.69, 0.72, 584, 391.42)">D</text>
            <text class="cls-15" transform="translate(593.34 382.44) rotate(-42.24)">A</text>
            <text class="cls-15" transform="matrix(0.75, -0.66, 0.66, 0.75, 601.21, 375.29)">T</text>
            <text class="cls-15" transform="matrix(0.77, -0.64, 0.64, 0.77, 608.68, 368.82)">I</text>
            <text class="cls-15" transform="translate(612.25 365.77) rotate(-38.92)">O</text>
            <text class="cls-15" transform="translate(622.9 357.17) rotate(-37.34)">N</text>
            <text class="cls-16" transform="translate(596.5 452.32) rotate(-48.44)">1</text>
            <text class="cls-16" transform="matrix(0.7, -0.71, 0.71, 0.7, 609.88, 437.21)">1</text>
            <g>
              <circle class="cls-13" cx="517.37" cy="355.5" r="17.32"/>
              <path class="cls-2" d="M517.48,358.48l-4,4.2-3-2.86,4-4.2,2.87-3,4-4.2,3,2.86-4,4.2Z"/>
            </g>
            <g>
              <circle class="cls-13" cx="517.37" cy="355.5" r="17.32"/>
              <path class="cls-2" d="M517.48,358.48l-4,4.2-3-2.86,4-4.2-4.14-3.91,2.87-3,4.14,3.91,4-4.2,3,2.86-4,4.2,4.07,3.85-2.86,3Z"/>
            </g>
          </g>
          <g>
            <text class="cls-14" transform="matrix(0.87, -0.49, 0.49, 0.87, 649.65, 213.58)">Q</text>
            <text class="cls-14" transform="translate(665.84 204.45) rotate(-27.57)">U</text>
            <text class="cls-14" transform="translate(681.34 196.39) rotate(-25.91)">E</text>
            <text class="cls-14" transform="matrix(0.91, -0.41, 0.41, 0.91, 693.28, 190.58)">S</text>
            <text class="cls-14" transform="matrix(0.92, -0.39, 0.39, 0.92, 705.35, 185.1)">T</text>
            <text class="cls-14" transform="translate(717.75 179.89) rotate(-21.79)">I</text>
            <text class="cls-14" transform="translate(723.65 177.45) rotate(-20.38)">O</text>
            <text class="cls-14" transform="translate(741.06 170.99) rotate(-18.36)">N</text>
            <text class="cls-15" transform="translate(671.62 322.39) rotate(-33.35)">R</text>
            <text class="cls-15" transform="translate(680.55 316.51) rotate(-32.33)">E</text>
            <text class="cls-15" transform="matrix(0.86, -0.52, 0.52, 0.86, 688.82, 311.27)">C</text>
            <text class="cls-15" transform="translate(698.29 305.51) rotate(-29.82)">O</text>
            <text class="cls-15" transform="translate(710.15 298.69) rotate(-28.03)">M</text>
            <text class="cls-15" transform="translate(724.24 291.18) rotate(-25.97)">M</text>
            <text class="cls-15" transform="translate(738.61 284.23) rotate(-24.25)">E</text>
            <text class="cls-15" transform="translate(747.49 280.2) rotate(-22.7)">N</text>
            <text class="cls-15" transform="matrix(0.93, -0.36, 0.36, 0.93, 759.53, 275.16)">D</text>
            <text class="cls-15" transform="matrix(0.94, -0.33, 0.33, 0.94, 771.64, 270.54)">A</text>
            <text class="cls-15" transform="matrix(0.95, -0.31, 0.31, 0.95, 781.67, 267.03)">T</text>
            <text class="cls-15" transform="translate(791.07 264) rotate(-17.07)">I</text>
            <text class="cls-15" transform="translate(795.55 262.57) rotate(-15.92)">O</text>
            <text class="cls-15" transform="translate(808.72 258.82) rotate(-14.34)">N</text>
            <text class="cls-16" transform="matrix(0.9, -0.43, 0.43, 0.9, 747.24, 336.1)">1</text>
            <text class="cls-16" transform="translate(765.47 327.42) rotate(-22.41)">2</text>
            <g>
              <circle class="cls-13" cx="712.22" cy="216.06" r="17.32"/>
              <path class="cls-2" d="M711.16,218.85l-5.29,2.32-1.67-3.82,5.29-2.31,3.83-1.68,5.29-2.32,1.67,3.81L715,217.17Z"/>
            </g>
            <g>
              <circle class="cls-13" cx="712.22" cy="216.06" r="17.32"/>
              <path class="cls-2" d="M711.16,218.85l-5.29,2.32-1.67-3.82,5.29-2.31-2.29-5.22,3.83-1.68,2.29,5.22,5.29-2.32,1.67,3.81L715,217.17l2.25,5.13L713.41,224Z"/>
            </g>
          </g>
          <g>
            <text class="cls-14" transform="matrix(0.99, -0.12, 0.12, 0.99, 884.34, 137.66)">Q</text>
            <text class="cls-14" transform="translate(902.79 135.43) rotate(-5.05)">U</text>
            <text class="cls-14" transform="translate(920.2 133.92) rotate(-3.38)">E</text>
            <text class="cls-14" transform="translate(933.45 133.14) rotate(-1.9)">S</text>
            <text class="cls-14" transform="matrix(1, -0.01, 0.01, 1, 946.71, 132.69)">T</text>
            <text class="cls-14" transform="translate(960.15 132.64) rotate(0.73)">I</text>
            <text class="cls-14" transform="translate(966.53 132.64) rotate(2.15)">O</text>
            <text class="cls-14" transform="translate(985.1 133.34) rotate(4.17)">N</text>
            <text class="cls-15" transform="translate(862.95 246.59) rotate(-10.82)">R</text>
            <text class="cls-15" transform="matrix(0.99, -0.17, 0.17, 0.99, 873.45, 244.58)">E</text>
            <text class="cls-15" transform="translate(883.1 242.91) rotate(-8.68)">C</text>
            <text class="cls-15" transform="translate(894.04 241.21) rotate(-7.3)">O</text>
            <text class="cls-15" transform="matrix(1, -0.1, 0.1, 1, 907.62, 239.45)">M</text>
            <text class="cls-15" transform="translate(923.5 237.92) rotate(-3.44)">M</text>
            <text class="cls-15" transform="matrix(1, -0.03, 0.03, 1, 939.45, 237.01)">E</text>
            <text class="cls-15" transform="translate(949.19 236.69) rotate(-0.18)">N</text>
            <text class="cls-15" transform="matrix(1, 0.03, -0.03, 1, 962.24, 236.64)">D</text>
            <text class="cls-15" transform="matrix(1, 0.06, -0.06, 1, 975.2, 237.01)">A</text>
            <text class="cls-15" transform="translate(985.81 237.62) rotate(4.53)">T</text>
            <text class="cls-15" transform="matrix(1, 0.1, -0.1, 1, 995.66, 238.42)">I</text>
            <text class="cls-15" transform="matrix(0.99, 0.12, -0.12, 0.99, 1000.34, 238.82)">O</text>
            <text class="cls-15" transform="translate(1013.94 240.4) rotate(8.18)">N</text>
            <text class="cls-16" transform="matrix(1, -0.05, 0.05, 1, 927.55, 288.22)">1</text>
            <text class="cls-16" transform="translate(947.7 287.19) rotate(0.12)">3</text>
            <g>
              <circle class="cls-13" cx="941.19" cy="163.93" r="17.32"/>
              <path class="cls-2" d="M939.14,166.1l-5.77.11-.09-4.16,5.78-.12,4.17-.08,5.78-.11.08,4.16-5.77.11Z"/>
            </g>
            <g>
              <circle class="cls-13" cx="941.19" cy="163.93" r="17.32"/>
              <path class="cls-2" d="M939.14,166.1l-5.77.11-.09-4.16,5.78-.12-.12-5.69,4.18-.09.11,5.7,5.78-.11.08,4.16-5.77.11.11,5.61-4.18.08Z"/>
            </g>
          </g>
          <g>
            <text class="cls-14" transform="translate(1126.31 156.36) rotate(15.26)">Q</text>
            <text class="cls-14" transform="translate(1144.25 161.26) rotate(17.12)">U</text>
            <text class="cls-14" transform="translate(1160.94 166.43) rotate(18.78)">E</text>
            <text class="cls-14" transform="translate(1173.51 170.7) rotate(20.26)">S</text>
            <text class="cls-14" transform="translate(1185.95 175.29) rotate(21.77)">T</text>
            <text class="cls-14" transform="matrix(0.92, 0.39, -0.39, 0.92, 1198.42, 180.3)">I</text>
            <text class="cls-14" transform="translate(1204.33 182.72) rotate(24.31)">O</text>
            <text class="cls-14" transform="translate(1221.26 190.37) rotate(26.33)">N</text>
            <text class="cls-15" transform="translate(1065.42 249.17) rotate(11.34)">R</text>
            <text class="cls-15" transform="translate(1075.89 251.28) rotate(12.36)">E</text>
            <text class="cls-15" transform="translate(1085.46 253.36) rotate(13.49)">C</text>
            <text class="cls-15" transform="translate(1096.24 255.93) rotate(14.86)">O</text>
            <text class="cls-15" transform="translate(1109.47 259.41) rotate(16.66)">M</text>
            <text class="cls-15" transform="matrix(0.95, 0.32, -0.32, 0.95, 1124.76, 263.99)">M</text>
            <text class="cls-15" transform="matrix(0.94, 0.35, -0.35, 0.94, 1139.88, 269.15)">E</text>
            <text class="cls-15" transform="translate(1149.02 272.54) rotate(21.99)">N</text>
            <text class="cls-15" transform="translate(1161.12 277.42) rotate(23.77)">D</text>
            <text class="cls-15" transform="matrix(0.9, 0.43, -0.43, 0.9, 1172.98, 282.65)">A</text>
            <text class="cls-15" transform="matrix(0.89, 0.45, -0.45, 0.89, 1182.58, 287.21)">T</text>
            <text class="cls-15" transform="translate(1191.4 291.67) rotate(27.62)">I</text>
            <text class="cls-15" transform="translate(1195.59 293.8) rotate(28.77)">O</text>
            <text class="cls-15" transform="matrix(0.86, 0.51, -0.51, 0.86, 1207.59, 300.4)">N</text>
            <text class="cls-16" transform="translate(1109.53 312.1) rotate(19.25)">1</text>
            <text class="cls-16" transform="matrix(0.93, 0.38, -0.38, 0.93, 1128.59, 318.74)">4</text>
            <g>
              <circle class="cls-13" cx="1169.05" cy="202.13" r="17.32"/>
              <path class="cls-1" d="M1166.34,203.37,1161,201.3l1.49-3.89,5.39,2.07,3.9,1.5,5.39,2.07-1.49,3.89-5.39-2.07Z"/>
            </g>
            <g>
              <circle class="cls-13" cx="1169.05" cy="202.13" r="17.32"/>
              <path class="cls-1" d="M1166.34,203.37,1161,201.3l1.49-3.89,5.39,2.07,2.05-5.32,3.9,1.5-2,5.32,5.39,2.07-1.49,3.89-5.39-2.07-2,5.23-3.9-1.5Z"/>
            </g>
          </g>
          <g>
            <text class="cls-14" transform="translate(1345.52 266.63) rotate(37.67)">Q</text>
            <text class="cls-14" transform="translate(1360.23 278) rotate(39.52)">U</text>
            <text class="cls-14" transform="translate(1373.69 289.14) rotate(41.19)">E</text>
            <text class="cls-14" transform="translate(1383.68 297.88) rotate(42.67)">S</text>
            <text class="cls-14" transform="matrix(0.72, 0.7, -0.7, 0.72, 1393.44, 306.86)">T</text>
            <text class="cls-14" transform="translate(1403.05 316.25) rotate(45.31)">I</text>
            <text class="cls-14" transform="translate(1407.6 320.74) rotate(46.72)">O</text>
            <text class="cls-14" transform="matrix(0.66, 0.75, -0.75, 0.66, 1420.33, 334.27)">N</text>
            <text class="cls-15" transform="translate(1253.84 329.22) rotate(33.75)">R</text>
            <text class="cls-15" transform="translate(1262.72 335.16) rotate(34.76)">E</text>
            <text class="cls-15" transform="translate(1270.77 340.73) rotate(35.89)">C</text>
            <text class="cls-15" transform="matrix(0.8, 0.61, -0.61, 0.8, 1279.76, 347.21)">O</text>
            <text class="cls-15" transform="matrix(0.78, 0.63, -0.63, 0.78, 1290.67, 355.48)">M</text>
            <text class="cls-15" transform="matrix(0.75, 0.66, -0.66, 0.75, 1303.06, 365.54)">M</text>
            <text class="cls-15" transform="translate(1315.06 376.08) rotate(42.84)">E</text>
            <text class="cls-15" transform="matrix(0.71, 0.7, -0.7, 0.71, 1322.23, 382.69)">N</text>
            <text class="cls-15" transform="translate(1331.55 391.82) rotate(46.18)">D</text>
            <text class="cls-15" transform="matrix(0.67, 0.74, -0.74, 0.67, 1340.52, 401.17)">A</text>
            <text class="cls-15" transform="translate(1347.66 409.05) rotate(49.1)">T</text>
            <text class="cls-15" transform="matrix(0.64, 0.77, -0.77, 0.64, 1354.11, 416.53)">I</text>
            <text class="cls-15" transform="translate(1357.17 420.11) rotate(51.18)">O</text>
            <text class="cls-15" transform="translate(1365.75 430.77) rotate(52.75)">N</text>
            <text class="cls-16" transform="matrix(0.75, 0.66, -0.66, 0.75, 1270.64, 404.21)">1</text>
            <text class="cls-16" transform="matrix(0.71, 0.7, -0.7, 0.71, 1285.72, 417.62)">5</text>
            <g>
              <circle class="cls-13" cx="1367.58" cy="325.24" r="17.32"/>
              <path class="cls-1" d="M1364.6,325.35l-4.19-4,2.86-3,4.2,4,3,2.87,4.19,4-2.86,3-4.19-4Z"/>
            </g>
            <g>
              <circle class="cls-13" cx="1367.58" cy="325.24" r="17.32"/>
              <path class="cls-1" d="M1364.6,325.35l-4.19-4,2.86-3,4.2,4,3.91-4.14,3,2.87-3.92,4.14,4.19,4-2.86,3-4.19-4-3.86,4.07-3-2.87Z"/>
            </g>
          </g>
        </g>
      </g>
    </g>
    <g id="Header">
      <path class="cls-17" d="M1007.3,8.2,952.13,73.92l-50-68.14A232.16,232.16,0,0,1,955.74,0a204,204,0,0,1,39.07,4.4c2.65.56,5.3,1.18,7.93,1.85"/>
    </g>
  </g>
</svg>
