<svg xmlns="http://www.w3.org/2000/svg" viewBox="0 0 1880.04 1591.3">
  <defs>
    <style>
      .cls-1, .cls-7 {
        fill: #004289;
      }

      .cls-12, .cls-2, .cls-6 {
        fill: #662d91;
      }

      .cls-3, .cls-8 {
        fill: #00b5e2;
      }

      .cls-4, .cls-5 {
        fill: none;
      }

      .cls-12, .cls-4, .cls-5, .cls-6, .cls-7, .cls-8 {
        stroke: #fff;
        stroke-miterlimit: 10;
      }

      .cls-4 {
        stroke-width: 4px;
      }

      .cls-5 {
        stroke-width: 2.72px;
      }

      .cls-6, .cls-7, .cls-8 {
        stroke-width: 2.76px;
      }

      .cls-9 {
        font-size: 47.96px;
      }

      .cls-10, .cls-11, .cls-13, .cls-14, .cls-15, .cls-16, .cls-17, .cls-29, .cls-30, .cls-9 {
        fill: #fff;
      }

      .cls-10, .cls-11, .cls-17, .cls-29, .cls-9 {
        font-family: OpenSans-Extrabold, OpenSans Extrabold;
        font-weight: 800;
      }

      .cls-10 {
        font-size: 47.78px;
      }

      .cls-11 {
        font-size: 47.96px;
      }

      .cls-12 {
        stroke-width: 3.1px;
      }

      .cls-14 {
        font-size: 27.19px;
      }

      .cls-14, .cls-15, .cls-20, .cls-21, .cls-22, .cls-23, .cls-24, .cls-25, .cls-30 {
        font-family: OpenSans;
      }

      .cls-15 {
        font-size: 20px;
      }

      .cls-16 {
        font-size: 40px;
        font-family: OpenSans-Bold, OpenSans Bold;
        font-weight: 700;
      }

      .cls-17, .cls-30 {
        font-size: 29.14px;
      }

      .cls-18 {
        letter-spacing: 0.01em;
      }

      .cls-19, .cls-23 {
        letter-spacing: -0.01em;
      }

      .cls-20, .cls-21, .cls-22, .cls-23, .cls-24, .cls-25 {
        font-weight: 400;
      }

      .cls-20, .cls-32 {
        letter-spacing: 0em;
      }

      .cls-22, .cls-26 {
        letter-spacing: 0em;
      }

      .cls-24, .cls-33 {
        letter-spacing: -0.01em;
      }

      .cls-25, .cls-35 {
        letter-spacing: 0em;
      }

      .cls-27 {
        letter-spacing: -0.01em;
      }

      .cls-28 {
        letter-spacing: -0.01em;
      }

      .cls-29 {
        font-size: 47.83px;
      }

      .cls-31 {
        letter-spacing: 0.01em;
      }

      .cls-34 {
        letter-spacing: 0em;
      }

      .cls-36 {
        letter-spacing: -0.01em;
      }

      .cls-37 {
        letter-spacing: 0em;
      }

      .cls-38 {
        letter-spacing: 0em;
      }

      .cls-39 {
        letter-spacing: -0.01em;
      }

      .cls-40 {
        letter-spacing: -0.01em;
      }

      .cls-41 {
        letter-spacing: -0.01em;
      }

      .cls-42 {
        letter-spacing: -0.01em;
      }

      .cls-43 {
        letter-spacing: -0.01em;
      }

      .cls-44 {
        letter-spacing: -0.02em;
      }

      .cls-45 {
        letter-spacing: -0.01em;
      }

      .cls-46 {
        letter-spacing: -0.08em;
      }
    </style>
  </defs>
  <title>Asset 1</title>
  <g id="Layer_2" data-name="Layer 2">
    <g id="Roda">
      <g>
        <g>
          <g>
            <path class="cls-1" d="M563.59,1335a695.25,695.25,0,0,0,524.22,100.38l-140.94-683Z"/>
            <path class="cls-2" d="M927,765.9l160.86,669.47A697.37,697.37,0,1,0,805.94,69.4c-88,18.16-168.7,52.17-259.62,111.94Z"/>
            <path class="cls-3" d="M374.89,361.89A695.27,695.27,0,0,0,274.51,886.12c38.92,188.6,150.6,343.57,299.7,441.66l360.44-567.1L554,176.12C495.71,213.49,427.21,282.37,374.89,361.89Z"/>
          </g>
          <line class="cls-4" x1="942.35" y1="756.12" x2="1502.97" y2="375.88"/>
          <line class="cls-4" x1="564.95" y1="196.04" x2="1323.13" y2="1313.9"/>
          <g>
            <line class="cls-4" x1="816.88" y1="1418.25" x2="1071.2" y2="91.69"/>
            <line class="cls-4" x1="280.76" y1="627.81" x2="1607.32" y2="882.13"/>
          </g>
          <circle class="cls-5" cx="943.69" cy="754.55" r="571.74"/>
          <g>
            <line class="cls-4" x1="572.73" y1="1319.1" x2="1315.35" y2="190.84"/>
            <line class="cls-4" x1="379.91" y1="383.66" x2="1508.17" y2="1126.28"/>
          </g>
          <g>
            <line class="cls-4" x1="1080.38" y1="1416.43" x2="807.7" y2="93.51"/>
            <line class="cls-4" x1="282.58" y1="891.31" x2="1605.5" y2="618.63"/>
          </g>
          <path class="cls-6" d="M810.16,95.66C1173.6,20.66,1529,254.49,1604,617.92s-158.83,718.85-522.26,793.85l16.14,78.21.18,0c406.73-83.93,668.41-481.69,584.48-888.42S1200.86-66.89,794.14,17c-95,19.6-182.06,56.32-272.75,115.83l43.74,67.18C647.63,145.92,725.36,113.15,810.16,95.66Z"/>
          <path class="cls-7" d="M1080,1413c-181.72,37.49-361.43-2.21-505.09-96.72l-43.85,66.64c160.72,105.74,361.77,150.18,565.07,108.28L1080,1413Z"/>
          <path class="cls-8" d="M208.84,906.22c42,203.37,162.38,370.47,323.15,476.24l43.85-66.65C432.18,1221.3,324.57,1072,287.08,890.27c-57.5-278.64,66.53-552.56,280-691.34l-43.74-67.18C283.22,288,144.51,594.48,208.84,906.22Z"/>
          <g>
            <text class="cls-9" transform="translate(300.73 1025.39) rotate(-110.89)">S</text>
            <text class="cls-9" transform="translate(292.35 1003.55) rotate(-108.88)">C</text>
            <text class="cls-9" transform="translate(283.47 977.53) rotate(-106.79)">R</text>
            <text class="cls-9" transform="matrix(-0.26, -0.97, 0.97, -0.26, 276.1, 953.07)">E</text>
            <text class="cls-9" transform="translate(270.1 930.49) rotate(-103.05)">E</text>
            <text class="cls-9" transform="translate(264.77 907.83) rotate(-100.94)">N</text>
            <text class="cls-9" transform="translate(258.96 877.04) rotate(-99.29)">I</text>
            <text class="cls-9" transform="translate(257 865.99) rotate(-97.62)">N</text>
            <text class="cls-9" transform="matrix(-0.09, -1, 1, -0.09, 252.86, 835.04)">G</text>
            <text class="cls-9" transform="translate(250.21 804.37) rotate(-93.58)"> </text>
            <text class="cls-9" transform="translate(249.46 794.47) rotate(-92.04)">A</text>
            <text class="cls-9" transform="matrix(0.01, -1, 1, 0.01, 248.4, 765.44)">N</text>
            <text class="cls-9" transform="translate(248.58 734.24) rotate(-87.15)">D</text>
            <text class="cls-9" transform="translate(250.31 702.57) rotate(-85.49)"> </text>
            <text class="cls-9" transform="matrix(0.11, -0.99, 0.99, 0.11, 250.93, 692.65)">D</text>
            <text class="cls-9" transform="matrix(0.14, -0.99, 0.99, 0.14, 254.49, 661.15)">I</text>
            <text class="cls-9" transform="translate(255.9 650) rotate(-80.51)">A</text>
            <text class="cls-9" transform="translate(260.53 622.07) rotate(-78.2)">G</text>
            <text class="cls-9" transform="translate(266.78 592.08) rotate(-75.74)">N</text>
            <text class="cls-9" transform="translate(274.45 561.82) rotate(-73.21)">O</text>
            <text class="cls-9" transform="translate(283.98 530.51) rotate(-70.99)">S</text>
            <text class="cls-9" transform="translate(291.69 508.36) rotate(-69.62)">I</text>
            <text class="cls-9" transform="matrix(0.37, -0.93, 0.93, 0.37, 295.55, 497.75)">S</text>
          </g>
          <g>
            <text class="cls-10" transform="translate(1536.46 385) rotate(60.92)">M</text>
            <text class="cls-10" transform="translate(1554.64 417.87) rotate(63.5)">A</text>
            <text class="cls-10" transform="translate(1567.57 443.75) rotate(65.84)">N</text>
            <text class="cls-10" transform="translate(1580.3 472.15) rotate(68.17)">A</text>
            <text class="cls-10" transform="translate(1590.82 498.34) rotate(70.41)">G</text>
            <text class="cls-10" transform="translate(1601.02 527.16) rotate(72.47)">E</text>
            <text class="cls-10" transform="translate(1608.16 549.23) rotate(74.82)">M</text>
            <text class="cls-10" transform="translate(1617.99 586.03) rotate(77.2)">E</text>
            <text class="cls-10" transform="matrix(0.19, 0.98, -0.98, 0.19, 1623.21, 608.66)">N</text>
            <text class="cls-10" transform="translate(1628.92 639.27) rotate(81.45)">T</text>
            <text class="cls-10" transform="matrix(0.13, 0.99, -0.99, 0.13, 1632.34, 662.58)"> </text>
            <text class="cls-10" transform="matrix(0.1, 1, -1, 0.1, 1633.76, 672.39)">O</text>
            <text class="cls-10" transform="matrix(0.06, 1, -1, 0.06, 1636.84, 704.87)">F</text>
            <text class="cls-10" transform="translate(1638.12 727.91) rotate(87.92)"> </text>
            <text class="cls-10" transform="translate(1638.64 737.79) rotate(89.56)">D</text>
            <text class="cls-10" transform="translate(1638.81 769.34) rotate(91.71)">E</text>
            <text class="cls-10" transform="translate(1638.14 792.57) rotate(93.61)">P</text>
            <text class="cls-10" transform="translate(1636.56 817.66) rotate(95.6)">R</text>
            <text class="cls-10" transform="matrix(-0.13, 0.99, -0.99, -0.13, 1634.06, 842.98)">E</text>
            <text class="cls-10" transform="translate(1631.03 866.03) rotate(99.33)">S</text>
            <text class="cls-10" transform="translate(1627.25 889.03) rotate(101.16)">S</text>
            <text class="cls-10" transform="matrix(-0.22, 0.98, -0.98, -0.22, 1622.66, 911.95)">I</text>
            <text class="cls-10" transform="matrix(-0.25, 0.97, -0.97, -0.25, 1620.4, 922.91)">O</text>
            <text class="cls-10" transform="matrix(-0.29, 0.96, -0.96, -0.29, 1612.38, 954.49)">N</text>
          </g>
          <g>
            <text class="cls-11" transform="translate(933.63 1451.69) rotate(-177.71)">F</text>
            <text class="cls-11" transform="translate(910.59 1450.87) rotate(-175.52)">O</text>
            <text class="cls-11" transform="matrix(-0.99, -0.12, 0.12, -0.99, 877.95, 1448.21)">L</text>
            <text class="cls-11" transform="matrix(-0.99, -0.15, 0.15, -0.99, 855.72, 1445.63)">L</text>
            <text class="cls-11" transform="translate(835.42 1442.75) rotate(-169.54)">O</text>
            <text class="cls-11" transform="matrix(-0.97, -0.23, 0.23, -0.97, 803.29, 1436.93)">W</text>
            <text class="cls-11" transform="translate(764.81 1427.56) rotate(-164.52)">-</text>
            <text class="cls-11" transform="translate(750.83 1423.83) rotate(-162.72)">U</text>
            <text class="cls-11" transform="matrix(-0.94, -0.33, 0.33, -0.94, 721.5, 1414.65)">P</text>
          </g>
          <circle class="cls-12" cx="943.69" cy="754.55" r="451.07"/>
        </g>
        <g>
          <g>
            <g>
              <circle class="cls-13" cx="447" cy="1093.39" r="17.32"/>
              <path class="cls-3" d="M449.92,1094l3.22,4.8-3.46,2.31-3.21-4.8-2.33-3.47-3.21-4.8,3.46-2.32,3.21,4.81Z"/>
            </g>
            <g>
              <text class="cls-14" transform="translate(458.57 1157.8) rotate(-128.78)">Q</text>
              <text class="cls-14" transform="matrix(-0.6, -0.8, 0.8, -0.6, 446.92, 1143.29)">U</text>
              <text class="cls-14" transform="translate(436.4 1129.36) rotate(-125.73)">E</text>
              <text class="cls-14" transform="translate(428.64 1118.57) rotate(-124.52)">S</text>
              <text class="cls-14" transform="translate(421.1 1107.62) rotate(-123.3)">T</text>
              <text class="cls-14" transform="matrix(-0.54, -0.84, 0.84, -0.54, 413.74, 1096.35)">I</text>
              <text class="cls-14" transform="matrix(-0.52, -0.85, 0.85, -0.52, 410.25, 1090.98)">O</text>
              <text class="cls-14" transform="translate(400.6 1075.06) rotate(-119.59)">N</text>
            </g>
            <g>
              <text class="cls-15" transform="matrix(-0.68, -0.73, 0.73, -0.68, 561.28, 1117.36)">R</text>
              <text class="cls-15" transform="translate(554.03 1109.52) rotate(-131.68)">E</text>
              <text class="cls-15" transform="translate(547.52 1102.21) rotate(-130.51)">C</text>
              <text class="cls-15" transform="translate(540.29 1093.78) rotate(-129.18)">O</text>
              <text class="cls-15" transform="matrix(-0.61, -0.79, 0.79, -0.61, 531.64, 1083.2)">M</text>
              <text class="cls-15" transform="matrix(-0.59, -0.81, 0.81, -0.59, 521.89, 1070.53)">M</text>
              <text class="cls-15" transform="matrix(-0.57, -0.82, 0.82, -0.57, 512.55, 1057.53)">E</text>
              <text class="cls-15" transform="matrix(-0.55, -0.84, 0.84, -0.55, 507.02, 1049.48)">N</text>
              <text class="cls-15" transform="translate(499.87 1038.55) rotate(-121.73)">D</text>
              <text class="cls-15" transform="matrix(-0.51, -0.86, 0.86, -0.51, 493.05, 1027.52)">A</text>
              <text class="cls-15" transform="translate(487.66 1018.34) rotate(-119.34)">T</text>
              <text class="cls-15" transform="translate(482.84 1009.73) rotate(-118.55)">I</text>
              <text class="cls-15" transform="matrix(-0.46, -0.89, 0.89, -0.46, 480.54, 1005.59)">O</text>
              <text class="cls-15" transform="translate(474.22 993.45) rotate(-116.08)">N</text>
            </g>
            <text class="cls-16" transform="translate(556.97 1033.15) rotate(-124.37)">1</text>
            <g>
              <circle class="cls-13" cx="447" cy="1093.39" r="17.32"/>
              <path class="cls-3" d="M449.92,1094l3.22,4.8-3.46,2.31-3.21-4.8-4.74,3.17-2.32-3.47,4.73-3.17-3.21-4.8,3.46-2.32,3.21,4.81,4.66-3.12,2.32,3.47Z"/>
            </g>
          </g>
          <g>
            <text class="cls-14" transform="translate(315.43 817.45) rotate(-95.96)">Q</text>
            <text class="cls-14" transform="translate(313.5 798.96) rotate(-94.11)">U</text>
            <text class="cls-14" transform="translate(312.28 781.53) rotate(-92.44)">E</text>
            <text class="cls-14" transform="translate(311.71 768.27) rotate(-90.96)">S</text>
            <text class="cls-14" transform="matrix(0.01, -1, 1, 0.01, 311.49, 755)">T</text>
            <text class="cls-14" transform="translate(311.65 741.57) rotate(-88.32)">I</text>
            <text class="cls-14" transform="matrix(0.05, -1, 1, 0.05, 311.76, 735.18)">O</text>
            <text class="cls-14" transform="translate(312.77 716.63) rotate(-84.89)">N</text>
            <text class="cls-15" transform="matrix(-0.17, -0.99, 0.99, -0.17, 423.98, 840.64)">R</text>
            <text class="cls-15" transform="matrix(-0.15, -0.99, 0.99, -0.15, 422.15, 830.11)">E</text>
            <text class="cls-15" transform="translate(420.63 820.44) rotate(-97.73)">C</text>
            <text class="cls-15" transform="translate(419.12 809.46) rotate(-96.36)">O</text>
            <text class="cls-15" transform="translate(417.58 795.86) rotate(-94.56)">M</text>
            <text class="cls-15" transform="translate(416.31 779.95) rotate(-92.5)">M</text>
            <text class="cls-15" transform="translate(415.66 764) rotate(-90.79)">E</text>
            <text class="cls-15" transform="translate(415.5 754.25) rotate(-89.23)">N</text>
            <text class="cls-15" transform="translate(415.67 741.17) rotate(-87.44)">D</text>
            <text class="cls-15" transform="matrix(0.07, -1, 1, 0.07, 416.25, 728.25)">A</text>
            <text class="cls-15" transform="translate(417.03 717.65) rotate(-84.53)">T</text>
            <text class="cls-15" transform="matrix(0.11, -0.99, 0.99, 0.11, 417.99, 707.82)">I</text>
            <text class="cls-15" transform="translate(418.47 703.14) rotate(-82.45)">O</text>
            <text class="cls-15" transform="translate(420.28 689.57) rotate(-80.87)">N</text>
            <text class="cls-16" transform="translate(466.19 766.64) rotate(-90.46)">2</text>
            <g>
              <circle class="cls-13" cx="342.63" cy="761.07" r="17.32"/>
              <path class="cls-3" d="M344.76,763.15l0,5.77-4.16,0,0-5.78V759l0-5.78h4.16l0,5.77Z"/>
            </g>
            <g>
              <circle class="cls-13" cx="342.63" cy="761.07" r="17.32"/>
              <path class="cls-3" d="M344.76,763.15l0,5.77-4.16,0,0-5.78-5.7,0V759l5.7,0,0-5.78h4.16l0,5.77,5.6,0,0,4.18Z"/>
            </g>
          </g>
          <g>
            <text class="cls-14" transform="matrix(0.29, -0.96, 0.96, 0.29, 339.38, 571.6)">Q</text>
            <text class="cls-14" transform="translate(344.69 553.78) rotate(-71.54)">U</text>
            <text class="cls-14" transform="matrix(0.34, -0.94, 0.94, 0.34, 350.25, 537.22)">E</text>
            <text class="cls-14" transform="translate(354.82 524.75) rotate(-68.4)">S</text>
            <text class="cls-14" transform="translate(359.7 512.42) rotate(-66.89)">T</text>
            <text class="cls-14" transform="translate(365 500.07) rotate(-65.76)">I</text>
            <text class="cls-14" transform="matrix(0.43, -0.9, 0.9, 0.43, 367.55, 494.22)">O</text>
            <text class="cls-14" transform="translate(375.6 477.48) rotate(-62.33)">N</text>
            <text class="cls-15" transform="translate(430.76 634.66) rotate(-77.31)">R</text>
            <text class="cls-15" transform="translate(433.11 624.24) rotate(-76.3)">E</text>
            <text class="cls-15" transform="matrix(0.26, -0.97, 0.97, 0.26, 435.42, 614.72)">C</text>
            <text class="cls-15" transform="translate(438.24 604) rotate(-73.79)">O</text>
            <text class="cls-15" transform="matrix(0.31, -0.95, 0.95, 0.31, 442.04, 590.86)">M</text>
            <text class="cls-15" transform="matrix(0.34, -0.94, 0.94, 0.34, 446.97, 575.68)">M</text>
            <text class="cls-15" transform="translate(452.49 560.69) rotate(-68.22)">E</text>
            <text class="cls-15" transform="matrix(0.4, -0.92, 0.92, 0.4, 456.08, 551.63)">N</text>
            <text class="cls-15" transform="translate(461.25 539.64) rotate(-64.88)">D</text>
            <text class="cls-15" transform="translate(466.75 527.91) rotate(-63.21)">A</text>
            <text class="cls-15" transform="matrix(0.47, -0.88, 0.88, 0.47, 471.54, 518.42)">T</text>
            <text class="cls-15" transform="translate(476.2 509.71) rotate(-61.03)">I</text>
            <text class="cls-15" transform="translate(478.44 505.57) rotate(-59.89)">O</text>
            <text class="cls-15" transform="matrix(0.53, -0.85, 0.85, 0.53, 485.31, 493.73)">N</text>
            <text class="cls-16" transform="matrix(0.38, -0.93, 0.93, 0.38, 498.14, 582.52)">3</text>
            <g>
              <circle class="cls-13" cx="386.14" cy="529.93" r="17.32"/>
              <path class="cls-3" d="M387.31,532.67l-2.2,5.34-3.85-1.58,2.2-5.35,1.59-3.86,2.2-5.34,3.85,1.58-2.2,5.35Z"/>
            </g>
            <g>
              <circle class="cls-13" cx="386.14" cy="529.93" r="17.32"/>
              <path class="cls-3" d="M387.31,532.67l-2.2,5.34-3.85-1.58,2.2-5.35-5.27-2.16,1.59-3.87,5.27,2.17,2.2-5.34,3.85,1.58-2.2,5.35,5.18,2.13-1.59,3.86Z"/>
            </g>
          </g>
          <g>
            <text class="cls-14" transform="translate(454.88 354.89) rotate(-50.96)">Q</text>
            <text class="cls-14" transform="translate(466.59 340.46) rotate(-49.11)">U</text>
            <text class="cls-14" transform="translate(478.05 327.27) rotate(-47.45)">E</text>
            <text class="cls-14" transform="matrix(0.7, -0.72, 0.72, 0.7, 487.02, 317.49)">S</text>
            <text class="cls-14" transform="matrix(0.71, -0.7, 0.7, 0.71, 496.24, 307.95)">T</text>
            <text class="cls-14" transform="translate(505.85 298.56) rotate(-43.33)">I</text>
            <text class="cls-14" transform="translate(510.45 294.12) rotate(-41.92)">O</text>
            <text class="cls-14" transform="translate(524.27 281.72) rotate(-39.9)">N</text>
            <text class="cls-15" transform="translate(515.29 448.02) rotate(-54.88)">R</text>
            <text class="cls-15" transform="matrix(0.59, -0.81, 0.81, 0.59, 521.44, 439.28)">E</text>
            <text class="cls-15" transform="matrix(0.61, -0.8, 0.8, 0.61, 527.21, 431.36)">C</text>
            <text class="cls-15" transform="matrix(0.62, -0.78, 0.78, 0.62, 533.9, 422.53)">O</text>
            <text class="cls-15" transform="matrix(0.65, -0.76, 0.76, 0.65, 542.42, 411.83)">M</text>
            <text class="cls-15" transform="translate(552.77 399.68) rotate(-47.51)">M</text>
            <text class="cls-15" transform="matrix(0.7, -0.72, 0.72, 0.7, 563.59, 387.93)">E</text>
            <text class="cls-15" transform="translate(570.38 380.92) rotate(-44.24)">N</text>
            <text class="cls-15" transform="translate(579.74 371.8) rotate(-42.45)">D</text>
            <text class="cls-15" transform="translate(589.29 363.07) rotate(-40.78)">A</text>
            <text class="cls-15" transform="matrix(0.77, -0.64, 0.64, 0.77, 597.33, 356.12)">T</text>
            <text class="cls-15" transform="translate(604.96 349.85) rotate(-38.6)">I</text>
            <text class="cls-15" transform="translate(608.61 346.88) rotate(-37.46)">O</text>
            <text class="cls-15" transform="translate(619.48 338.56) rotate(-35.88)">N</text>
            <text class="cls-16" transform="matrix(0.7, -0.71, 0.71, 0.7, 597.46, 425.53)">4</text>
            <g>
              <circle class="cls-13" cx="514.01" cy="334.2" r="17.32"/>
              <path class="cls-3" d="M514,337.18l-4.07,4.1-3-2.93,4.07-4.1,2.94-3,4.07-4.1,3,2.93-4.07,4.1Z"/>
            </g>
            <g>
              <circle class="cls-13" cx="514.01" cy="334.2" r="17.32"/>
              <path class="cls-3" d="M514,337.18l-4.07,4.1-3-2.93,4.07-4.1-4-4,2.94-3,4,4,4.07-4.1,3,2.93-4.07,4.1,4,3.95-2.94,3Z"/>
            </g>
          </g>
          <g>
            <text class="cls-14" transform="translate(646.39 197.52) rotate(-28.33)">Q</text>
            <text class="cls-14" transform="translate(662.75 188.71) rotate(-26.48)">U</text>
            <text class="cls-14" transform="translate(678.4 180.94) rotate(-24.81)">E</text>
            <text class="cls-14" transform="matrix(0.92, -0.4, 0.4, 0.92, 690.45, 175.37)">S</text>
            <text class="cls-14" transform="translate(702.63 170.11) rotate(-21.83)">T</text>
            <text class="cls-14" transform="matrix(0.94, -0.35, 0.35, 0.94, 715.12, 165.15)">I</text>
            <text class="cls-14" transform="translate(721.07 162.82) rotate(-19.28)">O</text>
            <text class="cls-14" transform="matrix(0.95, -0.3, 0.3, 0.95, 738.6, 156.69)">N</text>
            <text class="cls-15" transform="translate(666.24 306.76) rotate(-32.25)">R</text>
            <text class="cls-15" transform="translate(675.28 301.06) rotate(-31.24)">E</text>
            <text class="cls-15" transform="matrix(0.87, -0.5, 0.5, 0.87, 683.65, 295.98)">C</text>
            <text class="cls-15" transform="matrix(0.88, -0.48, 0.48, 0.88, 693.22, 290.4)">O</text>
            <text class="cls-15" transform="translate(705.22 283.8) rotate(-26.93)">M</text>
            <text class="cls-15" transform="matrix(0.91, -0.42, 0.42, 0.91, 719.44, 276.57)">M</text>
            <text class="cls-15" transform="translate(733.95 269.9) rotate(-23.16)">E</text>
            <text class="cls-15" transform="matrix(0.93, -0.37, 0.37, 0.93, 742.91, 266.04)">N</text>
            <text class="cls-15" transform="translate(755.04 261.23) rotate(-19.82)">D</text>
            <text class="cls-15" transform="translate(767.23 256.84) rotate(-18.15)">A</text>
            <text class="cls-15" transform="translate(777.33 253.53) rotate(-16.9)">T</text>
            <text class="cls-15" transform="translate(786.79 250.67) rotate(-15.97)">I</text>
            <text class="cls-15" transform="translate(791.3 249.34) rotate(-14.82)">O</text>
            <text class="cls-15" transform="matrix(0.97, -0.23, 0.23, 0.97, 804.53, 245.84)">N</text>
            <text class="cls-16" transform="translate(750.74 317.63) rotate(-22.83)">5</text>
            <g>
              <circle class="cls-13" cx="708.89" cy="201.21" r="17.32"/>
              <path class="cls-2" d="M707.77,204l-5.33,2.22-1.6-3.84,5.34-2.22,3.85-1.6,5.34-2.22,1.59,3.84-5.33,2.22Z"/>
            </g>
            <g>
              <circle class="cls-13" cx="708.89" cy="201.21" r="17.32"/>
              <path class="cls-2" d="M707.77,204l-5.33,2.22-1.6-3.84,5.34-2.22L704,194.87l3.86-1.6,2.18,5.26,5.34-2.22,1.59,3.84-5.33,2.22,2.15,5.18-3.85,1.6Z"/>
            </g>
          </g>
          <g>
            <text class="cls-14" transform="translate(881.74 126.16) rotate(-5.87)">Q</text>
            <text class="cls-14" transform="matrix(1, -0.07, 0.07, 1, 900.24, 124.27)">U</text>
            <text class="cls-14" transform="matrix(1, -0.04, 0.04, 1, 917.67, 123.07)">E</text>
            <text class="cls-14" transform="translate(930.93 122.52) rotate(-0.87)">S</text>
            <text class="cls-14" transform="translate(944.19 122.32) rotate(0.64)">T</text>
            <text class="cls-14" transform="translate(957.63 122.5) rotate(1.77)">I</text>
            <text class="cls-14" transform="matrix(1, 0.06, -0.06, 1, 964.02, 122.62)">O</text>
            <text class="cls-14" transform="matrix(1, 0.09, -0.09, 1, 982.56, 123.66)">N</text>
            <text class="cls-15" transform="translate(858.41 234.75) rotate(-9.79)">R</text>
            <text class="cls-15" transform="translate(868.94 232.93) rotate(-8.77)">E</text>
            <text class="cls-15" transform="translate(878.62 231.43) rotate(-7.64)">C</text>
            <text class="cls-15" transform="translate(889.59 229.93) rotate(-6.26)">O</text>
            <text class="cls-15" transform="translate(903.2 228.42) rotate(-4.47)">M</text>
            <text class="cls-15" transform="matrix(1, -0.04, 0.04, 1, 919.11, 227.17)">M</text>
            <text class="cls-15" transform="translate(935.07 226.54) rotate(-0.69)">E</text>
            <text class="cls-15" transform="translate(944.82 226.4) rotate(0.86)">N</text>
            <text class="cls-15" transform="translate(957.86 226.59) rotate(2.64)">D</text>
            <text class="cls-15" transform="matrix(1, 0.08, -0.08, 1, 970.81, 227.19)">A</text>
            <text class="cls-15" transform="translate(981.41 227.99) rotate(5.56)">T</text>
            <text class="cls-15" transform="matrix(0.99, 0.11, -0.11, 0.99, 991.24, 228.97)">I</text>
            <text class="cls-15" transform="translate(995.92 229.45) rotate(7.64)">O</text>
            <text class="cls-15" transform="translate(1009.49 231.28) rotate(9.22)">N</text>
            <text class="cls-16" transform="translate(932.34 277.07) rotate(-0.37)">6</text>
            <g>
              <circle class="cls-13" cx="938.11" cy="153.48" r="17.32"/>
              <path class="cls-2" d="M936,155.61h-5.78v-4.16H946v4.16H936Z"/>
            </g>
          </g>
          <g>
            <text class="cls-14" transform="translate(1126.6 150.26) rotate(16.6)">Q</text>
            <text class="cls-14" transform="translate(1144.41 155.57) rotate(18.46)">U</text>
            <text class="cls-14" transform="translate(1160.98 161.13) rotate(20.12)">E</text>
            <text class="cls-14" transform="matrix(0.93, 0.37, -0.37, 0.93, 1173.44, 165.7)">S</text>
            <text class="cls-14" transform="translate(1185.78 170.58) rotate(23.11)">T</text>
            <text class="cls-14" transform="translate(1198.12 175.88) rotate(24.24)">I</text>
            <text class="cls-14" transform="translate(1203.98 178.43) rotate(25.65)">O</text>
            <text class="cls-14" transform="translate(1220.72 186.48) rotate(27.67)">N</text>
            <text class="cls-15" transform="matrix(0.98, 0.22, -0.22, 0.98, 1063.56, 241.55)">R</text>
            <text class="cls-15" transform="translate(1073.99 243.9) rotate(13.7)">E</text>
            <text class="cls-15" transform="translate(1083.5 246.21) rotate(14.83)">C</text>
            <text class="cls-15" transform="translate(1094.22 249.03) rotate(16.21)">O</text>
            <text class="cls-15" transform="translate(1107.37 252.82) rotate(18)">M</text>
            <text class="cls-15" transform="matrix(0.94, 0.34, -0.34, 0.94, 1122.55, 257.75)">M</text>
            <text class="cls-15" transform="translate(1137.53 263.27) rotate(21.78)">E</text>
            <text class="cls-15" transform="matrix(0.92, 0.4, -0.4, 0.92, 1146.6, 266.87)">N</text>
            <text class="cls-15" transform="translate(1158.58 272.03) rotate(25.11)">D</text>
            <text class="cls-15" transform="translate(1170.31 277.54) rotate(26.78)">A</text>
            <text class="cls-15" transform="translate(1179.81 282.32) rotate(28.03)">T</text>
            <text class="cls-15" transform="matrix(0.87, 0.48, -0.48, 0.87, 1188.52, 286.98)">I</text>
            <text class="cls-15" transform="translate(1192.65 289.22) rotate(30.11)">O</text>
            <text class="cls-15" transform="translate(1204.49 296.09) rotate(31.69)">N</text>
            <text class="cls-16" transform="translate(1115.71 308.92) rotate(22.1)">7</text>
            <g>
              <circle class="cls-13" cx="1168.27" cy="196.98" r="17.32"/>
              <path class="cls-2" d="M1165.53,198.16l-5.34-2.2,1.58-3.85,5.34,2.2,3.87,1.59,5.34,2.2-1.59,3.84-5.34-2.19Z"/>
            </g>
            <g>
              <circle class="cls-13" cx="1168.27" cy="196.98" r="17.32"/>
              <path class="cls-2" d="M1165.53,198.16l-5.34-2.2,1.58-3.85,5.34,2.2,2.17-5.27,3.86,1.59L1171,195.9l5.34,2.2-1.59,3.84-5.34-2.19-2.13,5.18-3.86-1.59Z"/>
            </g>
          </g>
          <g>
            <text class="cls-14" transform="matrix(0.77, 0.63, -0.63, 0.77, 1346.42, 268.23)">Q</text>
            <text class="cls-14" transform="translate(1360.78 280.03) rotate(41.25)">U</text>
            <text class="cls-14" transform="matrix(0.73, 0.68, -0.68, 0.73, 1373.9, 291.57)">E</text>
            <text class="cls-14" transform="translate(1383.63 300.61) rotate(44.39)">S</text>
            <text class="cls-14" transform="matrix(0.7, 0.72, -0.72, 0.7, 1393.11, 309.88)">T</text>
            <text class="cls-14" transform="translate(1402.44 319.56) rotate(47.03)">I</text>
            <text class="cls-14" transform="matrix(0.66, 0.75, -0.75, 0.66, 1406.85, 324.18)">O</text>
            <text class="cls-14" transform="matrix(0.64, 0.77, -0.77, 0.64, 1419.16, 338.08)">N</text>
            <text class="cls-15" transform="translate(1252.89 328.07) rotate(35.48)">R</text>
            <text class="cls-15" transform="matrix(0.8, 0.59, -0.59, 0.8, 1261.59, 334.27)">E</text>
            <text class="cls-15" transform="translate(1269.47 340.09) rotate(37.62)">C</text>
            <text class="cls-15" transform="translate(1278.26 346.83) rotate(39)">O</text>
            <text class="cls-15" transform="matrix(0.76, 0.65, -0.65, 0.76, 1288.91, 355.43)">M</text>
            <text class="cls-15" transform="matrix(0.73, 0.68, -0.68, 0.73, 1300.99, 365.85)">M</text>
            <text class="cls-15" transform="matrix(0.71, 0.7, -0.7, 0.71, 1312.67, 376.75)">E</text>
            <text class="cls-15" transform="matrix(0.69, 0.72, -0.72, 0.69, 1319.63, 383.57)">N</text>
            <text class="cls-15" transform="translate(1328.68 392.98) rotate(47.91)">D</text>
            <text class="cls-15" transform="translate(1337.37 402.59) rotate(49.57)">A</text>
            <text class="cls-15" transform="matrix(0.63, 0.78, -0.78, 0.63, 1344.26, 410.69)">T</text>
            <text class="cls-15" transform="translate(1350.49 418.36) rotate(51.76)">I</text>
            <text class="cls-15" transform="matrix(0.6, 0.8, -0.8, 0.6, 1353.43, 422.02)">O</text>
            <text class="cls-15" transform="translate(1361.69 432.94) rotate(54.48)">N</text>
            <text class="cls-16" transform="matrix(0.71, 0.71, -0.71, 0.71, 1274.86, 410.38)">8</text>
            <g>
              <circle class="cls-13" cx="1366.71" cy="327.51" r="17.32"/>
              <path class="cls-2" d="M1363.73,327.53l-4.07-4.1,2.95-2.93,4.07,4.09,3,3,4.07,4.1-3,2.93-4.07-4.09Z"/>
            </g>
            <g>
              <circle class="cls-13" cx="1366.71" cy="327.51" r="17.32"/>
              <path class="cls-2" d="M1363.73,327.53l-4.07-4.1,2.95-2.93,4.07,4.09,4-4,3,3-4,4,4.07,4.1-3,2.93-4.07-4.09-4,3.95-2.94-3Z"/>
            </g>
          </g>
          <g>
            <text class="cls-14" transform="translate(1499.2 454.45) rotate(61.38)">Q</text>
            <text class="cls-14" transform="translate(1508.1 470.77) rotate(63.24)">U</text>
            <text class="cls-14" transform="translate(1515.95 486.38) rotate(64.9)">E</text>
            <text class="cls-14" transform="matrix(0.4, 0.92, -0.92, 0.4, 1521.58, 498.4)">S</text>
            <text class="cls-14" transform="translate(1526.9 510.55) rotate(67.89)">T</text>
            <text class="cls-14" transform="matrix(0.36, 0.93, -0.93, 0.36, 1531.93, 523.02)">I</text>
            <text class="cls-14" transform="translate(1534.28 528.95) rotate(70.43)">O</text>
            <text class="cls-14" transform="translate(1540.5 546.45) rotate(72.45)">N</text>
            <text class="cls-15" transform="translate(1390.11 474.85) rotate(57.46)">R</text>
            <text class="cls-15" transform="translate(1395.86 483.86) rotate(58.48)">E</text>
            <text class="cls-15" transform="translate(1400.99 492.2) rotate(59.61)">C</text>
            <text class="cls-15" transform="translate(1406.61 501.75) rotate(60.99)">O</text>
            <text class="cls-15" transform="translate(1413.27 513.71) rotate(62.78)">M</text>
            <text class="cls-15" transform="translate(1420.57 527.9) rotate(64.84)">M</text>
            <text class="cls-15" transform="translate(1427.32 542.37) rotate(66.56)">E</text>
            <text class="cls-15" transform="matrix(0.37, 0.93, -0.93, 0.37, 1431.22, 551.31)">N</text>
            <text class="cls-15" transform="translate(1436.09 563.42) rotate(69.89)">D</text>
            <text class="cls-15" transform="matrix(0.32, 0.95, -0.95, 0.32, 1440.54, 575.59)">A</text>
            <text class="cls-15" transform="translate(1443.91 585.67) rotate(72.81)">T</text>
            <text class="cls-15" transform="translate(1446.81 595.11) rotate(73.74)">I</text>
            <text class="cls-15" transform="matrix(0.26, 0.97, -0.97, 0.26, 1448.17, 599.61)">O</text>
            <text class="cls-15" transform="translate(1451.73 612.83) rotate(76.47)">N</text>
            <text class="cls-16" transform="matrix(0.39, 0.92, -0.92, 0.39, 1379.67, 559.4)">9</text>
            <g>
              <circle class="cls-13" cx="1495.84" cy="516.97" r="17.32"/>
              <path class="cls-2" d="M1493.07,515.87l-2.25-5.32,3.84-1.61,2.24,5.32,1.62,3.85,2.25,5.32-3.84,1.62-2.24-5.33Z"/>
            </g>
            <g>
              <circle class="cls-13" cx="1495.84" cy="516.97" r="17.32"/>
              <path class="cls-2" d="M1493.07,515.87l-2.25-5.32,3.84-1.61,2.24,5.32,5.25-2.22,1.62,3.85-5.25,2.22,2.25,5.32-3.84,1.62-2.24-5.33-5.16,2.18-1.63-3.85Z"/>
            </g>
          </g>
          <g>
            <text class="cls-14" transform="translate(1571.91 691.03) rotate(83.99)">Q</text>
            <text class="cls-14" transform="translate(1573.85 709.52) rotate(85.84)">U</text>
            <text class="cls-14" transform="translate(1575.09 726.95) rotate(87.5)">E</text>
            <text class="cls-14" transform="translate(1575.67 740.21) rotate(88.99)">S</text>
            <text class="cls-14" transform="translate(1575.9 753.47) rotate(90.49)">T</text>
            <text class="cls-14" transform="translate(1575.76 766.91) rotate(91.62)">I</text>
            <text class="cls-14" transform="translate(1575.65 773.3) rotate(93.04)">O</text>
            <text class="cls-14" transform="matrix(-0.09, 1, -1, -0.09, 1574.66, 791.84)">N</text>
            <text class="cls-15" transform="translate(1463.31 667.97) rotate(80.07)">R</text>
            <text class="cls-15" transform="translate(1465.15 678.5) rotate(81.08)">E</text>
            <text class="cls-15" transform="matrix(0.14, 0.99, -0.99, 0.14, 1466.68, 688.17)">C</text>
            <text class="cls-15" transform="matrix(0.11, 0.99, -0.99, 0.11, 1468.2, 699.15)">O</text>
            <text class="cls-15" transform="translate(1469.75 712.74) rotate(85.39)">M</text>
            <text class="cls-15" transform="translate(1471.03 728.65) rotate(87.45)">M</text>
            <text class="cls-15" transform="matrix(0.01, 1, -1, 0.01, 1471.7, 744.61)">E</text>
            <text class="cls-15" transform="matrix(-0.01, 1, -1, -0.01, 1471.87, 754.36)">N</text>
            <text class="cls-15" transform="translate(1471.71 767.41) rotate(92.5)">D</text>
            <text class="cls-15" transform="translate(1471.14 780.35) rotate(94.17)">A</text>
            <text class="cls-15" transform="translate(1470.37 790.96) rotate(95.42)">T</text>
            <text class="cls-15" transform="translate(1469.42 800.79) rotate(96.35)">I</text>
            <text class="cls-15" transform="translate(1468.94 805.47) rotate(97.49)">O</text>
            <text class="cls-15" transform="translate(1467.15 819.04) rotate(99.07)">N</text>
            <text class="cls-16" transform="translate(1420.67 731.91) rotate(87.98)">1</text>
            <text class="cls-16" transform="translate(1421.4 752.08) rotate(91.01)">0</text>
            <g>
              <circle class="cls-13" cx="1544.74" cy="747.48" r="17.32"/>
              <path class="cls-2" d="M1542.6,745.4l0-5.77,4.16,0,0,5.77,0,4.18,0,5.78h-4.16l0-5.77Z"/>
            </g>
            <g>
              <circle class="cls-13" cx="1544.74" cy="747.48" r="17.32"/>
              <path class="cls-2" d="M1542.6,745.4l0-5.77,4.16,0,0,5.77,5.7,0,0,4.17-5.7,0,0,5.78h-4.16l0-5.77-5.6,0,0-4.17Z"/>
            </g>
          </g>
          <g>
            <text class="cls-14" transform="translate(1549.16 933.63) rotate(106.24)">Q</text>
            <text class="cls-14" transform="translate(1543.96 951.48) rotate(108.09)">U</text>
            <text class="cls-14" transform="translate(1538.51 968.08) rotate(109.75)">E</text>
            <text class="cls-14" transform="translate(1534.02 980.58) rotate(111.23)">S</text>
            <text class="cls-14" transform="matrix(-0.39, 0.92, -0.92, -0.39, 1529.22, 992.94)">T</text>
            <text class="cls-14" transform="translate(1523.99 1005.32) rotate(113.87)">I</text>
            <text class="cls-14" transform="translate(1521.48 1011.19) rotate(115.29)">O</text>
            <text class="cls-14" transform="translate(1513.54 1027.98) rotate(117.3)">N</text>
            <text class="cls-15" transform="translate(1457.4 871.18) rotate(102.32)">R</text>
            <text class="cls-15" transform="matrix(-0.23, 0.97, -0.97, -0.23, 1455.12, 881.62)">E</text>
            <text class="cls-15" transform="translate(1452.87 891.15) rotate(104.46)">C</text>
            <text class="cls-15" transform="translate(1450.12 901.88) rotate(105.84)">O</text>
            <text class="cls-15" transform="translate(1446.41 915.05) rotate(107.64)">M</text>
            <text class="cls-15" transform="translate(1441.58 930.26) rotate(109.69)">M</text>
            <text class="cls-15" transform="matrix(-0.37, 0.93, -0.93, -0.37, 1436.15, 945.29)">E</text>
            <text class="cls-15" transform="translate(1432.61 954.37) rotate(112.96)">N</text>
            <text class="cls-15" transform="matrix(-0.42, 0.91, -0.91, -0.42, 1427.52, 966.41)">D</text>
            <text class="cls-15" transform="translate(1422.1 978.16) rotate(116.42)">A</text>
            <text class="cls-15" transform="matrix(-0.46, 0.89, -0.89, -0.46, 1417.37, 987.68)">T</text>
            <text class="cls-15" transform="translate(1412.76 996.42) rotate(118.6)">I</text>
            <text class="cls-15" transform="translate(1410.55 1000.57) rotate(119.74)">O</text>
            <text class="cls-15" transform="translate(1403.76 1012.45) rotate(121.32)">N</text>
            <text class="cls-16" transform="translate(1393.73 914.21) rotate(110.22)">1</text>
            <text class="cls-16" transform="translate(1386.76 933.16) rotate(113.26)">1</text>
            <g>
              <circle class="cls-13" cx="1502.66" cy="975.58" r="17.32"/>
              <path class="cls-2" d="M1501.47,972.85l2.17-5.35,3.86,1.55-2.17,5.36-1.56,3.87-2.17,5.36-3.85-1.56,2.16-5.36Z"/>
            </g>
            <g>
              <circle class="cls-13" cx="1502.66" cy="975.58" r="17.32"/>
              <path class="cls-2" d="M1501.47,972.85l2.17-5.35,3.86,1.55-2.17,5.36,5.29,2.13-1.57,3.88-5.28-2.14-2.17,5.36-3.85-1.56,2.16-5.36-5.2-2.1,1.57-3.87Z"/>
            </g>
          </g>
          <g>
            <text class="cls-14" transform="translate(1431.08 1155.89) rotate(129.23)">Q</text>
            <text class="cls-14" transform="translate(1419.31 1170.29) rotate(131.09)">U</text>
            <text class="cls-14" transform="matrix(-0.68, 0.73, -0.73, -0.68, 1407.81, 1183.44)">E</text>
            <text class="cls-14" transform="matrix(-0.7, 0.72, -0.72, -0.7, 1398.8, 1193.19)">S</text>
            <text class="cls-14" transform="matrix(-0.72, 0.7, -0.7, -0.72, 1389.55, 1202.7)">T</text>
            <text class="cls-14" transform="matrix(-0.73, 0.68, -0.68, -0.73, 1379.9, 1212.05)">I</text>
            <text class="cls-14" transform="translate(1375.3 1216.47) rotate(138.28)">O</text>
            <text class="cls-14" transform="matrix(-0.77, 0.64, -0.64, -0.77, 1361.43, 1228.83)">N</text>
            <text class="cls-15" transform="translate(1371.05 1062.53) rotate(125.31)">R</text>
            <text class="cls-15" transform="matrix(-0.59, 0.81, -0.81, -0.59, 1364.87, 1071.25)">E</text>
            <text class="cls-15" transform="translate(1359.07 1079.15) rotate(127.46)">C</text>
            <text class="cls-15" transform="matrix(-0.63, 0.78, -0.78, -0.63, 1352.35, 1087.96)">O</text>
            <text class="cls-15" transform="translate(1343.79 1098.63) rotate(130.63)">M</text>
            <text class="cls-15" transform="translate(1333.4 1110.74) rotate(132.69)">M</text>
            <text class="cls-15" transform="matrix(-0.7, 0.71, -0.71, -0.7, 1322.54, 1122.45)">E</text>
            <text class="cls-15" transform="matrix(-0.72, 0.7, -0.7, -0.72, 1315.73, 1129.44)">N</text>
            <text class="cls-15" transform="translate(1306.35 1138.51) rotate(137.74)">D</text>
            <text class="cls-15" transform="translate(1296.76 1147.22) rotate(139.41)">A</text>
            <text class="cls-15" transform="matrix(-0.77, 0.63, -0.63, -0.77, 1288.69, 1154.14)">T</text>
            <text class="cls-15" transform="matrix(-0.78, 0.62, -0.62, -0.78, 1281.04, 1160.39)">I</text>
            <text class="cls-15" transform="matrix(-0.8, 0.61, -0.61, -0.8, 1277.38, 1163.34)">O</text>
            <text class="cls-15" transform="translate(1266.48 1171.63) rotate(144.32)">N</text>
            <text class="cls-16" transform="translate(1295.62 1077.28) rotate(133.22)">1</text>
            <text class="cls-16" transform="translate(1281.81 1092) rotate(136.25)">2</text>
            <g>
              <circle class="cls-13" cx="1371.91" cy="1176.37" r="17.32"/>
              <path class="cls-2" d="M1371.89,1173.39l4.08-4.08,2.94,2.94-4.08,4.08-2.95,3-4.09,4.08-2.94-2.94,4.08-4.09Z"/>
            </g>
            <g>
              <circle class="cls-13" cx="1371.91" cy="1176.37" r="17.32"/>
              <path class="cls-2" d="M1371.89,1173.39l4.08-4.08,2.94,2.94-4.08,4.08,4,4-2.95,3-4-4-4.09,4.08-2.94-2.94,4.08-4.09-4-4,3-3Z"/>
            </g>
          </g>
          <g>
            <text class="cls-14" transform="translate(1240.13 1311.99) rotate(151.76)">Q</text>
            <text class="cls-14" transform="matrix(-0.9, 0.44, -0.44, -0.9, 1223.75, 1320.78)">U</text>
            <text class="cls-14" transform="translate(1208.09 1328.52) rotate(155.28)">E</text>
            <text class="cls-14" transform="translate(1196.03 1334.08) rotate(156.76)">S</text>
            <text class="cls-14" transform="matrix(-0.93, 0.37, -0.37, -0.93, 1183.85, 1339.31)">T</text>
            <text class="cls-14" transform="matrix(-0.94, 0.35, -0.35, -0.94, 1171.35, 1344.26)">I</text>
            <text class="cls-14" transform="translate(1165.4 1346.58) rotate(160.81)">O</text>
            <text class="cls-14" transform="translate(1147.86 1352.68) rotate(162.83)">N</text>
            <text class="cls-15" transform="translate(1220.39 1202.77) rotate(147.84)">R</text>
            <text class="cls-15" transform="translate(1211.34 1208.46) rotate(148.85)">E</text>
            <text class="cls-15" transform="translate(1202.96 1213.53) rotate(149.98)">C</text>
            <text class="cls-15" transform="translate(1193.38 1219.09) rotate(151.36)">O</text>
            <text class="cls-15" transform="matrix(-0.89, 0.45, -0.45, -0.89, 1181.38, 1225.67)">M</text>
            <text class="cls-15" transform="translate(1167.14 1232.88) rotate(155.22)">M</text>
            <text class="cls-15" transform="translate(1152.62 1239.53) rotate(156.93)">E</text>
            <text class="cls-15" transform="translate(1143.66 1243.38) rotate(158.48)">N</text>
            <text class="cls-15" transform="translate(1131.52 1248.17) rotate(160.27)">D</text>
            <text class="cls-15" transform="matrix(-0.95, 0.31, -0.31, -0.95, 1119.32, 1252.54)">A</text>
            <text class="cls-15" transform="translate(1109.22 1255.84) rotate(163.19)">T</text>
            <text class="cls-15" transform="translate(1099.75 1258.67) rotate(164.12)">I</text>
            <text class="cls-15" transform="translate(1095.24 1260) rotate(165.27)">O</text>
            <text class="cls-15" transform="translate(1082 1263.48) rotate(166.84)">N</text>
            <text class="cls-16" transform="matrix(-0.91, 0.41, -0.41, -0.91, 1145.07, 1187.49)">1</text>
            <text class="cls-16" transform="translate(1126.67 1195.8) rotate(158.78)">3</text>
            <g>
              <circle class="cls-13" cx="1177.62" cy="1308.25" r="17.32"/>
              <path class="cls-2" d="M1178.73,1305.49l5.34-2.21,1.59,3.85-5.33,2.2-3.86,1.6-5.34,2.21-1.59-3.85,5.33-2.2Z"/>
            </g>
            <g>
              <circle class="cls-13" cx="1177.62" cy="1308.25" r="17.32"/>
              <path class="cls-2" d="M1178.73,1305.49l5.34-2.21,1.59,3.85-5.33,2.2,2.17,5.27-3.86,1.6-2.17-5.27-5.34,2.21-1.59-3.85,5.33-2.2-2.14-5.18,3.86-1.6Z"/>
            </g>
          </g>
          <g>
            <text class="cls-14" transform="translate(1007.92 1382.68) rotate(173.92)">Q</text>
            <text class="cls-14" transform="matrix(-1, 0.07, -0.07, -1, 989.43, 1384.65)">U</text>
            <text class="cls-14" transform="translate(972 1385.91) rotate(177.44)">E</text>
            <text class="cls-14" transform="translate(958.74 1386.5) rotate(178.92)">S</text>
            <text class="cls-14" transform="matrix(-1, -0.01, 0.01, -1, 945.48, 1386.76)">T</text>
            <text class="cls-14" transform="matrix(-1, -0.03, 0.03, -1, 932.04, 1386.62)">I</text>
            <text class="cls-14" transform="translate(925.66 1386.53) rotate(-177.03)">O</text>
            <text class="cls-14" transform="matrix(-1, -0.09, 0.09, -1, 907.11, 1385.56)">N</text>
            <text class="cls-15" transform="translate(1030.86 1274.06) rotate(170)">R</text>
            <text class="cls-15" transform="matrix(-0.99, 0.16, -0.16, -0.99, 1020.34, 1275.91)">E</text>
            <text class="cls-15" transform="translate(1010.67 1277.45) rotate(172.15)">C</text>
            <text class="cls-15" transform="translate(999.69 1278.99) rotate(173.52)">O</text>
            <text class="cls-15" transform="matrix(-1, 0.08, -0.08, -1, 986.1, 1280.55)">M</text>
            <text class="cls-15" transform="matrix(-1, 0.05, -0.05, -1, 970.19, 1281.86)">M</text>
            <text class="cls-15" transform="translate(954.24 1282.55) rotate(179.09)">E</text>
            <text class="cls-15" transform="matrix(-1, -0.01, 0.01, -1, 944.49, 1282.72)">N</text>
            <text class="cls-15" transform="translate(931.44 1282.58) rotate(-177.57)">D</text>
            <text class="cls-15" transform="matrix(-1, -0.07, 0.07, -1, 918.49, 1282.03)">A</text>
            <text class="cls-15" transform="translate(907.89 1281.27) rotate(-174.65)">T</text>
            <text class="cls-15" transform="matrix(-0.99, -0.11, 0.11, -0.99, 898.05, 1280.33)">I</text>
            <text class="cls-15" transform="translate(893.38 1279.86) rotate(-172.57)">O</text>
            <text class="cls-15" transform="matrix(-0.99, -0.16, 0.16, -0.99, 879.8, 1278.08)">N</text>
            <text class="cls-16" transform="translate(966.87 1231.5) rotate(177.91)">1</text>
            <text class="cls-16" transform="matrix(-1, -0.02, 0.02, -1, 946.7, 1232.25)">4</text>
            <g>
              <circle class="cls-13" cx="951.47" cy="1355.59" r="17.32"/>
              <path class="cls-1" d="M953.55,1353.45l5.77,0,0,4.16-5.78,0-4.18,0-5.77,0,0-4.16,5.77,0Z"/>
            </g>
            <g>
              <circle class="cls-13" cx="951.47" cy="1355.59" r="17.32"/>
              <path class="cls-1" d="M953.55,1353.45l5.77,0,0,4.16-5.78,0,0,5.7-4.17,0,0-5.69-5.77,0,0-4.16,5.77,0,0-5.61,4.18,0Z"/>
            </g>
          </g>
          <g>
            <text class="cls-14" transform="translate(763.66 1359.72) rotate(-163.67)">Q</text>
            <text class="cls-14" transform="translate(745.82 1354.49) rotate(-161.82)">U</text>
            <text class="cls-14" transform="translate(729.23 1349.01) rotate(-160.15)">E</text>
            <text class="cls-14" transform="translate(716.74 1344.51) rotate(-158.67)">S</text>
            <text class="cls-14" transform="translate(704.39 1339.69) rotate(-157.17)">T</text>
            <text class="cls-14" transform="translate(692.01 1334.44) rotate(-156.03)">I</text>
            <text class="cls-14" transform="translate(686.15 1331.92) rotate(-154.62)">O</text>
            <text class="cls-14" transform="matrix(-0.89, -0.46, 0.46, -0.89, 669.37, 1323.95)">N</text>
            <text class="cls-15" transform="translate(826.26 1268.07) rotate(-167.59)">R</text>
            <text class="cls-15" transform="matrix(-0.97, -0.23, 0.23, -0.97, 815.82, 1265.77)">E</text>
            <text class="cls-15" transform="matrix(-0.97, -0.25, 0.25, -0.97, 806.29, 1263.5)">C</text>
            <text class="cls-15" transform="translate(795.56 1260.74) rotate(-164.07)">O</text>
            <text class="cls-15" transform="translate(782.4 1257) rotate(-162.27)">M</text>
            <text class="cls-15" transform="matrix(-0.94, -0.34, 0.34, -0.94, 767.19, 1252.15)">M</text>
            <text class="cls-15" transform="translate(752.18 1246.7) rotate(-158.5)">E</text>
            <text class="cls-15" transform="translate(743.1 1243.15) rotate(-156.95)">N</text>
            <text class="cls-15" transform="matrix(-0.91, -0.42, 0.42, -0.91, 731.09, 1238.04)">D</text>
            <text class="cls-15" transform="matrix(-0.89, -0.45, 0.45, -0.89, 719.33, 1232.59)">A</text>
            <text class="cls-15" transform="translate(709.82 1227.85) rotate(-152.24)">T</text>
            <text class="cls-15" transform="matrix(-0.88, -0.48, 0.48, -0.88, 701.08, 1223.23)">I</text>
            <text class="cls-15" transform="matrix(-0.87, -0.5, 0.5, -0.87, 696.94, 1221.01)">O</text>
            <text class="cls-15" transform="matrix(-0.85, -0.52, 0.52, -0.85, 685.07, 1214.2)">N</text>
            <text class="cls-16" transform="translate(783.32 1204.32) rotate(-159.68)">1</text>
            <text class="cls-16" transform="translate(764.39 1197.33) rotate(-156.65)">5</text>
            <g>
              <circle class="cls-13" cx="721.75" cy="1313.17" r="17.32"/>
              <path class="cls-1" d="M724.49,1312l5.35,2.17-1.56,3.85-5.36-2.17-3.87-1.57-5.35-2.17,1.57-3.86,5.35,2.17Z"/>
            </g>
            <g>
              <circle class="cls-13" cx="721.75" cy="1313.17" r="17.32"/>
              <path class="cls-1" d="M724.49,1312l5.35,2.17-1.56,3.85-5.36-2.17-2.14,5.28-3.87-1.57,2.14-5.28-5.35-2.17,1.57-3.86,5.35,2.17,2.11-5.19,3.87,1.57Z"/>
            </g>
          </g>
        </g>
      </g>
    </g>
    <g id="R-Q">
      <g>
        <text class="cls-17" transform="translate(803.24 460.44)"><tspan class="cls-18">I</tspan><tspan x="7.26" y="0">n PWE and dep</tspan><tspan class="cls-19" x="190.73" y="0">r</tspan><tspan x="199.97" y="0">ession: </tspan><tspan x="-103.29" y="60.97">A. </tspan><tspan class="cls-20" x="-73.25" y="60.97">W</tspan><tspan class="cls-21" x="-48.74" y="60.97">h</tspan><tspan class="cls-22" x="-32.57" y="60.97">a</tspan><tspan class="cls-21" x="-18.64" y="60.97">t is the </tspan><tspan class="cls-23" x="68.32" y="60.97">r</tspan><tspan class="cls-21" x="77.56" y="60.97">e</tspan><tspan class="cls-24" x="92.16" y="60.97">c</tspan><tspan class="cls-21" x="105.04" y="60.97">ommended a</tspan><tspan class="cls-25" x="268.11" y="60.97">n</tspan><tspan class="cls-21" x="284.17" y="60.97">tiseizu</tspan><tspan class="cls-23" x="362.12" y="60.97">r</tspan><tspan class="cls-21" x="371.36" y="60.97">e </tspan><tspan class="cls-21"><tspan x="66.53" y="95.94">medic</tspan><tspan class="cls-26" x="141.74" y="95.94">a</tspan><tspan x="155.67" y="95.94">tion?</tspan></tspan><tspan class="cls-27" x="-114.7" y="130.91">B</tspan><tspan x="-99.28" y="130.91">. </tspan><tspan class="cls-20" x="-87.07" y="130.91">W</tspan><tspan class="cls-21" x="-62.57" y="130.91">h</tspan><tspan class="cls-22" x="-46.39" y="130.91">a</tspan><tspan class="cls-21" x="-32.46" y="130.91">t a</tspan><tspan class="cls-22" x="-2.59" y="130.91">n</tspan><tspan class="cls-21" x="13.46" y="130.91">tiseizu</tspan><tspan class="cls-23" x="91.42" y="130.91">r</tspan><tspan class="cls-21" x="100.65" y="130.91">e medic</tspan><tspan class="cls-22" x="196.64" y="130.91">a</tspan><tspan class="cls-21" x="210.57" y="130.91">tions should be </tspan><tspan class="cls-21"><tspan class="cls-28" x="86.51" y="165.88">a</tspan><tspan class="cls-19" x="100.32" y="165.88">v</tspan><tspan x="114.04" y="165.88">oided?</tspan></tspan></text>
        <text class="cls-29" transform="translate(839.26 409.2)">QUESTION</text>
      </g>
      <text class="cls-30" transform="translate(538.59 862.25)"><tspan class="cls-18">I</tspan><tspan x="7.26" y="0">n PWE and dep</tspan><tspan class="cls-19" x="190.73" y="0">r</tspan><tspan x="199.97" y="0">ession, the sele</tspan><tspan class="cls-31" x="383.06" y="0">c</tspan><tspan x="396.49" y="0">tion of a</tspan><tspan class="cls-26" x="496.04" y="0">n</tspan><tspan x="512.1" y="0">tiseizu</tspan><tspan class="cls-19" x="590.05" y="0">r</tspan><tspan x="599.29" y="0">e medic</tspan><tspan class="cls-26" x="695.28" y="0">a</tspan><tspan x="709.21" y="0">tion will </tspan><tspan x="33.3" y="34.97">depend on the cha</tspan><tspan class="cls-32" x="262.53" y="34.97">r</tspan><tspan x="271.91" y="34.97">a</tspan><tspan class="cls-31" x="285.96" y="34.97">c</tspan><tspan class="cls-33" x="299.39" y="34.97">t</tspan><tspan x="308.86" y="34.97">e</tspan><tspan class="cls-34" x="323.46" y="34.97">r</tspan><tspan x="333.11" y="34.97">istics of the disease and the p</tspan><tspan class="cls-26" x="687.75" y="34.97">a</tspan><tspan x="701.68" y="34.97">tie</tspan><tspan class="cls-35" x="732.75" y="34.97">n</tspan><tspan x="748.8" y="34.97">t&apos;s </tspan><tspan x="94.36" y="69.94">p</tspan><tspan class="cls-19" x="110.94" y="69.94">r</tspan><tspan x="120.18" y="69.94">ofil</tspan><tspan class="cls-36" x="158.3" y="69.94">e</tspan><tspan class="cls-37" x="172.55" y="69.94">. </tspan><tspan class="cls-18" x="184.76" y="69.94">I</tspan><tspan x="192.01" y="69.94">n gene</tspan><tspan class="cls-38" x="276.03" y="69.94">r</tspan><tspan x="285.41" y="69.94">a</tspan><tspan class="cls-19" x="299.46" y="69.94">l</tspan><tspan x="306.04" y="69.94">, the use of lamot</tspan><tspan class="cls-34" x="514.78" y="69.94">r</tspan><tspan x="524.43" y="69.94">i</tspan><tspan class="cls-39" x="531.24" y="69.94">g</tspan><tspan x="547.36" y="69.94">in</tspan><tspan class="cls-36" x="570.35" y="69.94">e</tspan><tspan x="584.6" y="69.94">, </tspan><tspan class="cls-26" x="596.81" y="69.94">v</tspan><tspan x="610.71" y="69.94">alp</tspan><tspan class="cls-19" x="648.22" y="69.94">r</tspan><tspan x="657.45" y="69.94">o</tspan><tspan class="cls-26" x="673.45" y="69.94">a</tspan><tspan class="cls-39" x="687.38" y="69.94">t</tspan><tspan class="cls-40" x="696.85" y="69.94">e</tspan><tspan x="711.1" y="69.94">, </tspan><tspan x="32.85" y="104.91">eslica</tspan><tspan class="cls-34" x="99.79" y="104.91">r</tspan><tspan x="109.43" y="104.91">ba</tspan><tspan class="cls-41" x="140.06" y="104.91">z</tspan><tspan x="152.33" y="104.91">epine a</tspan><tspan class="cls-39" x="241.33" y="104.91">c</tspan><tspan x="254.21" y="104.91">et</tspan><tspan class="cls-26" x="278.45" y="104.91">a</tspan><tspan class="cls-39" x="292.38" y="104.91">t</tspan><tspan class="cls-36" x="301.85" y="104.91">e</tspan><tspan x="316.1" y="104.91">, ca</tspan><tspan class="cls-34" x="355.41" y="104.91">r</tspan><tspan x="365.06" y="104.91">bama</tspan><tspan class="cls-41" x="434.04" y="104.91">z</tspan><tspan x="446.31" y="104.91">epin</tspan><tspan class="cls-40" x="500.48" y="104.91">e</tspan><tspan x="514.73" y="104.91">, and </tspan><tspan class="cls-42" x="579.77" y="104.91">o</tspan><tspan class="cls-43" x="595.36" y="104.91">x</tspan><tspan x="608.42" y="104.91">ca</tspan><tspan class="cls-34" x="635.52" y="104.91">r</tspan><tspan x="645.17" y="104.91">ba</tspan><tspan class="cls-41" x="675.79" y="104.91">z</tspan><tspan x="688.06" y="104.91">epine is </tspan><tspan class="cls-19" x="71.31" y="139.88">r</tspan><tspan x="80.55" y="139.88">e</tspan><tspan class="cls-39" x="95.15" y="139.88">c</tspan><tspan x="108.03" y="139.88">ommended; the use of le</tspan><tspan class="cls-19" x="410.22" y="139.88">v</tspan><tspan x="423.95" y="139.88">eti</tspan><tspan class="cls-38" x="455.01" y="139.88">r</tspan><tspan x="464.4" y="139.88">a</tspan><tspan class="cls-39" x="478.44" y="139.88">c</tspan><tspan x="491.32" y="139.88">etam, phenoba</tspan><tspan class="cls-34" x="676.28" y="139.88">r</tspan><tspan x="685.93" y="139.88">bita</tspan><tspan class="cls-19" x="733.02" y="139.88">l</tspan><tspan x="739.61" y="139.88">, </tspan><tspan class="cls-39" x="103.21" y="174.85">t</tspan><tspan x="112.68" y="174.85">opi</tspan><tspan class="cls-38" x="152.08" y="174.85">r</tspan><tspan x="161.47" y="174.85">am</tspan><tspan class="cls-26" x="199.82" y="174.85">a</tspan><tspan class="cls-39" x="213.75" y="174.85">t</tspan><tspan class="cls-40" x="223.22" y="174.85">e</tspan><tspan x="237.47" y="174.85">, and pe</tspan><tspan class="cls-38" x="333.69" y="174.85">r</tspan><tspan x="343.07" y="174.85">ampanel is less </tspan><tspan class="cls-19" x="531.15" y="174.85">r</tspan><tspan x="540.39" y="174.85">e</tspan><tspan class="cls-39" x="554.99" y="174.85">c</tspan><tspan x="567.87" y="174.85">ommende</tspan><tspan class="cls-19" x="694.29" y="174.85">d</tspan><tspan x="710.43" y="174.85">.</tspan></text>
      <text class="cls-29" transform="translate(745.95 773.83)">RE<tspan class="cls-44" x="49.26" y="0">C</tspan><tspan x="76" y="0">OMMEN</tspan><tspan class="cls-45" x="240.86" y="0">D</tspan><tspan class="cls-46" x="272.05" y="0">A</tspan><tspan x="297.63" y="0">TION</tspan></text>
    </g>
  </g>
</svg>
