<svg xmlns="http://www.w3.org/2000/svg" viewBox="0 0 1600 2300"><defs><style>.cls-1,.cls-17,.cls-49,.cls-51,.cls-7{fill:#004289;}.cls-2,.cls-6{fill:#662d91;}.cls-12,.cls-3,.cls-50,.cls-8{fill:#00b5e2;}.cls-34,.cls-35,.cls-4,.cls-5{fill:none;}.cls-12,.cls-34,.cls-35,.cls-4,.cls-5,.cls-6,.cls-7,.cls-8{stroke:#fff;stroke-miterlimit:10;}.cls-4{stroke-width:4px;}.cls-5{stroke-width:2.72px;}.cls-6,.cls-7,.cls-8{stroke-width:2.76px;}.cls-9{font-size:47.96px;}.cls-10,.cls-11,.cls-13,.cls-14,.cls-15,.cls-16,.cls-36,.cls-40,.cls-9{fill:#fff;}.cls-10,.cls-11,.cls-17,.cls-36,.cls-60,.cls-9{font-family:OpenSans-Extrabold, OpenSans Extrabold;font-weight:800;}.cls-10{font-size:47.78px;}.cls-11{font-size:47.96px;}.cls-12{stroke-width:3.1px;}.cls-14{font-size:27.19px;}.cls-14,.cls-15,.cls-19,.cls-20,.cls-21,.cls-22,.cls-23,.cls-24,.cls-25,.cls-26,.cls-27,.cls-28,.cls-29,.cls-30,.cls-31,.cls-40,.cls-54,.cls-61,.cls-62,.cls-63,.cls-64,.cls-65,.cls-66,.cls-67,.cls-68,.cls-69,.cls-70,.cls-71,.cls-72,.cls-76,.cls-77,.cls-78{font-family:OpenSans;}.cls-15{font-size:20px;}.cls-16{font-size:40px;}.cls-16,.cls-51{font-family:OpenSans-Bold, OpenSans Bold;font-weight:700;}.cls-17{font-size:12px;}.cls-18{letter-spacing:0em;}.cls-19,.cls-20,.cls-21,.cls-22,.cls-23,.cls-24,.cls-25,.cls-26,.cls-27,.cls-28,.cls-29,.cls-30,.cls-31,.cls-54,.cls-61,.cls-62,.cls-63,.cls-64,.cls-65,.cls-66,.cls-67,.cls-68,.cls-69,.cls-70,.cls-71,.cls-72,.cls-76,.cls-77,.cls-78{font-weight:400;}.cls-20{letter-spacing:-0.01em;}.cls-136,.cls-21{letter-spacing:-0.01em;}.cls-22{letter-spacing:-0.01em;}.cls-23{letter-spacing:0em;}.cls-24{letter-spacing:0em;}.cls-25{letter-spacing:0em;}.cls-26{letter-spacing:0.01em;}.cls-27{letter-spacing:-0.01em;}.cls-28,.cls-32{letter-spacing:0em;}.cls-29{letter-spacing:-0.01em;}.cls-30{letter-spacing:0.02em;}.cls-31{letter-spacing:0.02em;}.cls-33{letter-spacing:-0.02em;}.cls-34,.cls-35{stroke-linecap:round;stroke-width:3.04px;}.cls-35{stroke-dasharray:11.85 11.85;}.cls-36{font-size:47.83px;}.cls-37{letter-spacing:-0.02em;}.cls-38{letter-spacing:-0.01em;}.cls-39{letter-spacing:-0.08em;}.cls-40{font-size:29.14px;}.cls-41{letter-spacing:-0.03em;}.cls-42{letter-spacing:-0.01em;}.cls-43{letter-spacing:0em;}.cls-44{letter-spacing:-0.01em;}.cls-45{letter-spacing:0em;}.cls-46{letter-spacing:0.01em;}.cls-47{letter-spacing:-0.01em;}.cls-48{letter-spacing:0.02em;}.cls-49,.cls-50{fill-rule:evenodd;}.cls-51{font-size:25px;}.cls-52{letter-spacing:0em;}.cls-53{letter-spacing:-0.01em;}.cls-54{font-size:21px;}.cls-55{letter-spacing:0em;}.cls-56{letter-spacing:-0.01em;}.cls-57{letter-spacing:-0.01em;}.cls-58{letter-spacing:0.01em;}.cls-59{letter-spacing:-0.01em;}.cls-60,.cls-72{font-size:18px;}.cls-61{letter-spacing:0.72em;}.cls-62{letter-spacing:0em;}.cls-133,.cls-63{letter-spacing:-0.01em;}.cls-64{letter-spacing:0em;}.cls-65,.cls-74{letter-spacing:0em;}.cls-66{letter-spacing:-0.01em;}.cls-67{letter-spacing:-0.01em;}.cls-68,.cls-75{letter-spacing:-0.01em;}.cls-69{letter-spacing:0em;}.cls-70{letter-spacing:0em;}.cls-71{letter-spacing:0.01em;}.cls-73{letter-spacing:-0.01em;}.cls-76{letter-spacing:-0.01em;}.cls-111,.cls-77{letter-spacing:-0.01em;}.cls-78{font-size:15px;}.cls-79{letter-spacing:-0.01em;}.cls-80{letter-spacing:-0.04em;}.cls-81{letter-spacing:-0.02em;}.cls-82{letter-spacing:-0.01em;}.cls-83{letter-spacing:0em;}.cls-84{letter-spacing:-0.04em;}.cls-85{letter-spacing:0em;}.cls-86{letter-spacing:0em;}.cls-87{letter-spacing:0.02em;}.cls-88{letter-spacing:-0.01em;}.cls-89{letter-spacing:0em;}.cls-90{letter-spacing:-0.01em;}.cls-91{letter-spacing:0em;}.cls-92{letter-spacing:-0.01em;}.cls-93{letter-spacing:-0.01em;}.cls-94{letter-spacing:-0.02em;}.cls-95{letter-spacing:0em;}.cls-96{letter-spacing:-0.02em;}.cls-97{letter-spacing:0.01em;}.cls-98{letter-spacing:-0.03em;}.cls-99{letter-spacing:0.01em;}.cls-100{letter-spacing:0.01em;}.cls-101{letter-spacing:0.02em;}.cls-102{letter-spacing:0em;}.cls-103{letter-spacing:-0.03em;}.cls-104{letter-spacing:0.01em;}.cls-105{letter-spacing:-0.03em;}.cls-106{letter-spacing:0em;}.cls-107{letter-spacing:-0.01em;}.cls-108{letter-spacing:-0.05em;}.cls-109{letter-spacing:-0.01em;}.cls-110{letter-spacing:0em;}.cls-112{letter-spacing:-0.01em;}.cls-113{letter-spacing:0em;}.cls-114{letter-spacing:0em;}.cls-115{letter-spacing:-0.02em;}.cls-116{letter-spacing:-0.02em;}.cls-117{letter-spacing:-0.05em;}.cls-118{letter-spacing:-0.04em;}.cls-119{letter-spacing:-0.07em;}.cls-120{letter-spacing:-0.01em;}.cls-121{letter-spacing:0.01em;}.cls-122{letter-spacing:-0.02em;}.cls-123{letter-spacing:-0.04em;}.cls-124{letter-spacing:-0.07em;}.cls-125{letter-spacing:0.02em;}.cls-126{letter-spacing:0em;}.cls-127{letter-spacing:-0.01em;}.cls-128{font-size:36px;fill:#2c2c2c;font-family:OpenSans-Semibold, OpenSans Semibold;font-weight:600;}.cls-129,.cls-142{letter-spacing:-0.02em;}.cls-130{letter-spacing:-0.01em;}.cls-131{letter-spacing:-0.08em;}.cls-132{letter-spacing:-0.04em;}.cls-134{letter-spacing:-0.02em;}.cls-135{letter-spacing:-0.09em;}.cls-137{letter-spacing:-0.04em;}.cls-138{letter-spacing:0em;}.cls-139{letter-spacing:-0.03em;}.cls-140,.cls-141,.cls-142{fill:#c1272d;}.cls-141{letter-spacing:0.01em;}</style></defs><title>Infografia-Bial-5-v8</title><g id="Roda"><path class="cls-1" d="M534.24,860.18a695.23,695.23,0,0,0-377.34,377.5l644.35,266.73Z"/><path class="cls-2" d="M801.25,1480.34,156.9,1237.68a697.38,697.38,0,1,0,1288.7,533.47c34.38-83,51.52-168.9,53.09-277.7Z"/><path class="cls-3" d="M1445.49,1250.23A695.26,695.26,0,0,0,1068,872.9c-177.94-73.66-368.88-68.22-533.75.11l267,616.63,697.44,13.12C1500.48,1433.52,1481.93,1338.17,1445.49,1250.23Z"/><line class="cls-4" x1="800.7" y1="1498.57" x2="800.7" y2="2175.98"/><line class="cls-4" x1="1476.07" y1="1500.62" x2="125.34" y2="1500.62"/><line class="cls-4" x1="323.15" y1="1023.06" x2="1278.26" y2="1978.17"/><line class="cls-4" x1="1278.26" y1="1023.06" x2="323.15" y2="1978.17"/><circle class="cls-5" cx="801.25" cy="1500.56" r="571.74"/><line class="cls-4" x1="542.25" y1="876.66" x2="1059.15" y2="2124.57"/><line class="cls-4" x1="1424.66" y1="1242.17" x2="176.75" y2="1759.07"/><line class="cls-4" x1="176.75" y1="1242.17" x2="1424.66" y2="1759.07"/><line class="cls-4" x1="1059.15" y1="876.66" x2="542.25" y2="2124.57"/><path class="cls-6" d="M1421.5,1759.9c-141.93,342.88-534.95,505.77-877.83,363.84S37.9,1588.79,179.84,1245.91l-73.78-30.54-.08.17c-158.84,383.72,23.46,823.56,407.18,982.4s823.55-23.45,982.4-407.17c37.09-89.61,55.58-182.28,57.24-290.74l-80.15-1.51C1471.13,1597.17,1454.62,1679.9,1421.5,1759.9Z"/><path class="cls-7" d="M179.84,1243.78c71-171.44,204.7-297.88,363.56-363.72l-30.54-73.69C335.13,880,185.5,1021.47,106.06,1213.24l73.78,30.54Z"/><path class="cls-8" d="M1088.21,807.26c-191.86-79.42-397.75-73.56-575.52.13l30.54,73.69C702.09,815.24,886.06,810,1057.5,881c262.87,108.82,420,365.22,415,619.79l80.15,1.51C1558.09,1215.83,1382.32,929,1088.21,807.26Z"/><text class="cls-9" transform="translate(938.02 816.4) rotate(13.25)">S</text><text class="cls-9" transform="matrix(0.96, 0.26, -0.26, 0.96, 960.79, 821.73)">C</text><text class="cls-9" transform="matrix(0.95, 0.3, -0.3, 0.95, 987.32, 828.98)">R</text><text class="cls-9" transform="matrix(0.94, 0.33, -0.33, 0.94, 1011.69, 836.61)">E</text><text class="cls-9" transform="matrix(0.93, 0.36, -0.36, 0.93, 1033.75, 844.32)">E</text><text class="cls-9" transform="translate(1055.49 852.62) rotate(23.2)">N</text><text class="cls-9" transform="matrix(0.91, 0.42, -0.42, 0.91, 1084.24, 865.1)">I</text><text class="cls-9" transform="matrix(0.89, 0.45, -0.45, 0.89, 1094.51, 869.69)">N</text><text class="cls-9" transform="translate(1122.42 883.62) rotate(28.95)">G</text><text class="cls-9" transform="matrix(0.86, 0.51, -0.51, 0.86, 1149.29, 898.65)"> </text><text class="cls-9" transform="translate(1157.91 903.59) rotate(32.11)">A</text><text class="cls-9" transform="matrix(0.82, 0.57, -0.57, 0.82, 1182.53, 919)">N</text><text class="cls-9" transform="matrix(0.8, 0.6, -0.6, 0.8, 1208.24, 936.66)">D</text><text class="cls-9" transform="matrix(0.78, 0.62, -0.62, 0.78, 1233.48, 955.88)"> </text><text class="cls-9" transform="matrix(0.76, 0.65, -0.65, 0.76, 1241.34, 961.96)">D</text><text class="cls-9" transform="matrix(0.74, 0.67, -0.67, 0.74, 1265.42, 982.58)">I</text><text class="cls-9" transform="matrix(0.72, 0.69, -0.69, 0.72, 1273.85, 990.01)">A</text><text class="cls-9" transform="matrix(0.7, 0.72, -0.72, 0.7, 1294.37, 1009.52)">G</text><text class="cls-9" transform="matrix(0.66, 0.75, -0.75, 0.66, 1315.68, 1031.53)">N</text><text class="cls-9" transform="translate(1336.42 1054.86) rotate(50.94)">O</text><text class="cls-9" transform="matrix(0.6, 0.8, -0.8, 0.6, 1356.98, 1080.32)">S</text><text class="cls-9" transform="translate(1370.99 1099.13) rotate(54.53)">I</text><text class="cls-9" transform="translate(1377.6 1108.28) rotate(55.9)">S</text><text class="cls-10" transform="matrix(-1, -0.09, 0.09, -1, 774.33, 2198.57)">M</text><text class="cls-10" transform="translate(736.91 2195.16) rotate(-172.35)">A</text><text class="cls-10" transform="translate(708.24 2191.34) rotate(-170.01)">N</text><text class="cls-10" transform="translate(677.6 2185.93) rotate(-167.68)">A</text><text class="cls-10" transform="matrix(-0.97, -0.25, 0.25, -0.97, 650.01, 2179.94)">G</text><text class="cls-10" transform="translate(620.44 2172.2) rotate(-163.39)">E</text><text class="cls-10" transform="matrix(-0.95, -0.33, 0.33, -0.95, 598.16, 2165.72)">M</text><text class="cls-10" transform="translate(562.19 2153.2) rotate(-158.65)">E</text><text class="cls-10" transform="translate(540.53 2144.82) rotate(-156.53)">N</text><text class="cls-10" transform="translate(511.99 2132.36) rotate(-154.4)">T</text><text class="cls-10" transform="translate(490.78 2122.11) rotate(-153.09)"> </text><text class="cls-10" transform="translate(481.86 2117.78) rotate(-151.41)">O</text><text class="cls-10" transform="translate(453.26 2102.09) rotate(-149.23)">F</text><text class="cls-10" transform="matrix(-0.85, -0.53, 0.53, -0.85, 433.47, 2090.22)"> </text><text class="cls-10" transform="matrix(-0.83, -0.55, 0.55, -0.83, 425, 2085.1)">D</text><text class="cls-10" transform="translate(398.81 2067.55) rotate(-144.14)">E</text><text class="cls-10" transform="translate(379.95 2053.94) rotate(-142.24)">P</text><text class="cls-10" transform="matrix(-0.77, -0.64, 0.64, -0.77, 360.07, 2038.55)">R</text><text class="cls-10" transform="translate(340.52 2022.27) rotate(-138.34)">E</text><text class="cls-10" transform="matrix(-0.73, -0.69, 0.69, -0.73, 323.14, 2006.82)">S</text><text class="cls-10" transform="translate(306.23 1990.78) rotate(-134.7)">S</text><text class="cls-10" transform="translate(289.84 1974.12) rotate(-133.34)">I</text><text class="cls-10" transform="translate(282.04 1966.09) rotate(-131.63)">O</text><text class="cls-10" transform="translate(260.4 1941.74) rotate(-129.15)">N</text><text class="cls-11" transform="translate(229.98 1100.91) rotate(-53.56)">F</text><text class="cls-11" transform="matrix(0.62, -0.78, 0.78, 0.62, 243.59, 1082.31)">O</text><text class="cls-11" transform="matrix(0.65, -0.76, 0.76, 0.65, 264.11, 1056.78)">L</text><text class="cls-11" transform="translate(278.73 1039.84) rotate(-47.43)">L</text><text class="cls-11" transform="translate(292.5 1024.65) rotate(-45.39)">O</text><text class="cls-11" transform="matrix(0.74, -0.68, 0.68, 0.74, 315.36, 1001.33)">W</text><text class="cls-11" transform="matrix(0.76, -0.65, 0.65, 0.76, 344.7, 974.74)">-</text><text class="cls-11" transform="matrix(0.78, -0.62, 0.62, 0.78, 355.64, 965.27)">U</text><text class="cls-11" transform="matrix(0.81, -0.59, 0.59, 0.81, 379.7, 946.15)">P</text><circle class="cls-12" cx="801.25" cy="1500.56" r="451.07"/><circle class="cls-13" cx="799.62" cy="899.3" r="17.32"/><path class="cls-3" d="M797.52,901.41l-5.77,0,0-4.16,5.78,0,4.18,0,5.77,0,0,4.16-5.78,0Z"/><text class="cls-14" transform="translate(739.8 872.72) rotate(-4.63)">Q</text><text class="cls-14" transform="translate(758.35 871.22) rotate(-2.99)">U</text><text class="cls-14" transform="matrix(1, -0.03, 0.03, 1, 775.79, 870.34)">E</text><text class="cls-14" transform="translate(789.07 869.97) rotate(-0.37)">S</text><text class="cls-14" transform="matrix(1, 0.01, -0.01, 1, 802.37, 869.88)">T</text><text class="cls-14" transform="translate(815.83 870.11) rotate(1.76)">I</text><text class="cls-14" transform="translate(822.23 870.24) rotate(2.9)">O</text><text class="cls-14" transform="translate(840.83 871.19) rotate(4.56)">N</text><text class="cls-15" transform="matrix(0.99, -0.15, 0.15, 0.99, 715.63, 980.42)">R</text><text class="cls-15" transform="translate(726.18 978.82) rotate(-7.53)">E</text><text class="cls-15" transform="matrix(0.99, -0.11, 0.11, 0.99, 735.88, 977.53)">C</text><text class="cls-15" transform="matrix(1, -0.09, 0.09, 1, 746.92, 976.28)">O</text><text class="cls-15" transform="translate(760.53 975.06) rotate(-3.42)">M</text><text class="cls-15" transform="matrix(1, -0.03, 0.03, 1, 776.49, 974.11)">M</text><text class="cls-15" transform="matrix(1, 0, 0, 1, 792.5, 973.68)">E</text><text class="cls-15" transform="translate(802.26 973.61) rotate(0.98)">N</text><text class="cls-15" transform="matrix(1, 0.04, -0.04, 1, 815.32, 973.84)">D</text><text class="cls-15" transform="translate(828.27 974.38) rotate(3.77)">A</text><text class="cls-15" transform="translate(838.89 975.08) rotate(4.81)">T</text><text class="cls-15" transform="translate(848.73 975.92) rotate(5.6)">I</text><text class="cls-15" transform="translate(853.45 976.35) rotate(6.61)">O</text><text class="cls-15" transform="translate(867.04 977.92) rotate(8.06)">N</text><text class="cls-16" transform="matrix(1, 0, 0, 1, 787.74, 1024.13)">1</text><circle class="cls-13" cx="799.62" cy="899.3" r="17.32"/><path class="cls-3" d="M797.52,901.41l-5.77,0,0-4.16,5.78,0,0-5.7,4.18,0,0,5.7,5.77,0,0,4.16-5.78,0,0,5.6-4.17,0Z"/><text class="cls-14" transform="translate(1101.83 945.3) rotate(28.19)">Q</text><text class="cls-14" transform="matrix(0.87, 0.5, -0.5, 0.87, 1118.21, 954.09)">U</text><text class="cls-14" transform="matrix(0.85, 0.53, -0.53, 0.85, 1133.33, 962.86)">E</text><text class="cls-14" transform="translate(1144.62 969.83) rotate(33.19)">S</text><text class="cls-14" transform="translate(1155.72 977.09) rotate(34.69)">T</text><text class="cls-14" transform="matrix(0.81, 0.59, -0.59, 0.81, 1166.75, 984.77)">I</text><text class="cls-14" transform="translate(1171.98 988.44) rotate(37.24)">O</text><text class="cls-14" transform="matrix(0.77, 0.63, -0.63, 0.77, 1186.76, 999.69)">N</text><text class="cls-15" transform="matrix(0.91, 0.41, -0.41, 0.91, 1021.71, 1022.13)">R</text><text class="cls-15" transform="matrix(0.9, 0.43, -0.43, 0.9, 1031.45, 1026.52)">E</text><text class="cls-15" transform="matrix(0.9, 0.44, -0.44, 0.9, 1040.31, 1030.7)">C</text><text class="cls-15" transform="translate(1050.24 1035.61) rotate(27.79)">O</text><text class="cls-15" transform="translate(1062.36 1041.97) rotate(29.59)">M</text><text class="cls-15" transform="translate(1076.24 1049.85) rotate(31.64)">M</text><text class="cls-15" transform="matrix(0.84, 0.55, -0.55, 0.84, 1089.81, 1058.26)">E</text><text class="cls-15" transform="matrix(0.82, 0.57, -0.57, 0.82, 1097.97, 1063.6)">N</text><text class="cls-15" transform="translate(1108.67 1071.07) rotate(36.7)">D</text><text class="cls-15" transform="matrix(0.78, 0.62, -0.62, 0.78, 1119.06, 1078.82)">A</text><text class="cls-15" transform="matrix(0.77, 0.64, -0.64, 0.77, 1127.4, 1085.41)">T</text><text class="cls-15" transform="translate(1134.99 1091.73) rotate(40.55)">I</text><text class="cls-15" transform="matrix(0.75, 0.67, -0.67, 0.75, 1138.59, 1094.75)">O</text><text class="cls-15" transform="translate(1148.81 1103.86) rotate(43.27)">N</text><text class="cls-16" transform="matrix(0.83, 0.55, -0.55, 0.83, 1059.26, 1098.6)">2</text><circle class="cls-13" cx="1133.24" cy="999.46" r="17.32"/><path class="cls-3" d="M1130.32,1000.06l-4.79-3.22,2.32-3.45,4.79,3.22,3.47,2.33,4.79,3.23-2.32,3.45-4.79-3.22Z"/><circle class="cls-13" cx="1133.24" cy="999.46" r="17.32"/><path class="cls-3" d="M1130.32,1000.06l-4.79-3.22,2.32-3.45,4.79,3.22,3.19-4.73,3.46,2.34-3.18,4.72,4.79,3.23-2.32,3.45-4.79-3.22-3.13,4.64-3.47-2.33Z"/><text class="cls-14" transform="matrix(0.63, 0.77, -0.77, 0.63, 1291.88, 1103.14)">Q</text><text class="cls-14" transform="translate(1303.64 1117.54) rotate(52.61)">U</text><text class="cls-14" transform="matrix(0.58, 0.81, -0.81, 0.58, 1314.23, 1131.44)">E</text><text class="cls-14" transform="matrix(0.56, 0.83, -0.83, 0.56, 1321.98, 1142.22)">S</text><text class="cls-14" transform="translate(1329.45 1153.18) rotate(57.26)">T</text><text class="cls-14" transform="matrix(0.52, 0.85, -0.85, 0.52, 1336.69, 1164.5)">I</text><text class="cls-14" transform="translate(1340.1 1169.9) rotate(59.8)">O</text><text class="cls-14" transform="matrix(0.47, 0.88, -0.88, 0.47, 1349.44, 1185.96)">N</text><text class="cls-15" transform="translate(1188.41 1143.38) rotate(46.84)">R</text><text class="cls-15" transform="translate(1195.72 1151.17) rotate(47.85)">E</text><text class="cls-15" transform="matrix(0.66, 0.75, -0.75, 0.66, 1202.29, 1158.43)">C</text><text class="cls-15" transform="translate(1209.58 1166.77) rotate(50.36)">O</text><text class="cls-15" transform="matrix(0.61, 0.79, -0.79, 0.61, 1218.33, 1177.3)">M</text><text class="cls-15" transform="translate(1228.13 1189.9) rotate(54.21)">M</text><text class="cls-15" transform="matrix(0.56, 0.83, -0.83, 0.56, 1237.43, 1202.88)">E</text><text class="cls-15" transform="translate(1242.91 1210.94) rotate(57.48)">N</text><text class="cls-15" transform="matrix(0.51, 0.86, -0.86, 0.51, 1249.93, 1221.94)">D</text><text class="cls-15" transform="matrix(0.49, 0.87, -0.87, 0.49, 1256.55, 1233.08)">A</text><text class="cls-15" transform="translate(1261.72 1242.37) rotate(62.18)">T</text><text class="cls-15" transform="translate(1266.31 1251.12) rotate(63.12)">I</text><text class="cls-15" transform="translate(1268.48 1255.29) rotate(64.26)">O</text><text class="cls-15" transform="translate(1274.42 1267.63) rotate(65.84)">N</text><text class="cls-16" transform="translate(1193.74 1228.4) rotate(56.25)">3</text><circle class="cls-13" cx="1300.11" cy="1165.22" r="17.32"/><path class="cls-3" d="M1297.18,1164.65l-3.18-4.82,3.47-2.29,3.18,4.81,2.31,3.49,3.19,4.81-3.47,2.3-3.19-4.82Z"/><circle class="cls-13" cx="1300.11" cy="1165.22" r="17.32"/><path class="cls-3" d="M1297.18,1164.65l-3.18-4.82,3.47-2.29,3.18,4.81,4.76-3.14,2.3,3.48-4.75,3.15,3.19,4.81-3.47,2.3-3.19-4.82-4.68,3.1-2.3-3.49Z"/><text class="cls-14" transform="translate(1406.4 1320.39) rotate(73.18)">Q</text><text class="cls-14" transform="matrix(0.26, 0.97, -0.97, 0.26, 1411.78, 1338.18)">U</text><text class="cls-14" transform="translate(1416.26 1355.07) rotate(76.7)">E</text><text class="cls-14" transform="translate(1419.32 1367.99) rotate(78.18)">S</text><text class="cls-14" transform="translate(1422.04 1380.97) rotate(79.69)">T</text><text class="cls-14" transform="translate(1424.41 1394.2) rotate(80.82)">I</text><text class="cls-14" transform="translate(1425.51 1400.49) rotate(82.23)">O</text><text class="cls-14" transform="translate(1428.01 1418.89) rotate(84.25)">N</text><text class="cls-15" transform="matrix(0.35, 0.94, -0.94, 0.35, 1295.42, 1318.06)">R</text><text class="cls-15" transform="matrix(0.34, 0.94, -0.94, 0.34, 1299.2, 1328.06)">E</text><text class="cls-15" transform="matrix(0.32, 0.95, -0.95, 0.32, 1302.52, 1337.27)">C</text><text class="cls-15" transform="translate(1306.07 1347.77) rotate(72.78)">O</text><text class="cls-15" transform="matrix(0.27, 0.96, -0.96, 0.27, 1310.14, 1360.83)">M</text><text class="cls-15" transform="matrix(0.23, 0.97, -0.97, 0.23, 1314.39, 1376.22)">M</text><text class="cls-15" transform="matrix(0.2, 0.98, -0.98, 0.2, 1318.04, 1391.76)">E</text><text class="cls-15" transform="translate(1320.03 1401.31) rotate(79.9)">N</text><text class="cls-15" transform="translate(1322.32 1414.16) rotate(81.69)">D</text><text class="cls-15" transform="matrix(0.12, 0.99, -0.99, 0.12, 1324.19, 1426.98)">A</text><text class="cls-15" transform="matrix(0.09, 1, -1, 0.09, 1325.42, 1437.54)">T</text><text class="cls-15" transform="matrix(0.08, 1, -1, 0.08, 1326.33, 1447.38)">I</text><text class="cls-15" transform="translate(1326.74 1452.06) rotate(86.69)">O</text><text class="cls-15" transform="translate(1327.52 1465.73) rotate(88.26)">N</text><text class="cls-16" transform="translate(1267.91 1398.69) rotate(78.68)">4</text><circle class="cls-13" cx="1390.32" cy="1380.9" r="17.32"/><path class="cls-3" d="M1387.83,1379.26l-1.11-5.67,4.08-.79,1.11,5.66.8,4.1,1.11,5.67-4.08.8-1.11-5.67Z"/><circle class="cls-13" cx="1390.32" cy="1380.9" r="17.32"/><path class="cls-3" d="M1387.83,1379.26l-1.11-5.67,4.08-.79,1.11,5.66,5.59-1.09.81,4.1-5.6,1.09,1.11,5.67-4.08.8-1.11-5.67-5.5,1.08-.8-4.1Z"/><text class="cls-14" transform="translate(1429.12 1567.16) rotate(95.82)">Q</text><text class="cls-14" transform="translate(1427.23 1585.66) rotate(97.67)">U</text><text class="cls-14" transform="translate(1424.87 1602.97) rotate(99.33)">E</text><text class="cls-14" transform="matrix(-0.19, 0.98, -0.98, -0.19, 1422.72, 1616.07)">S</text><text class="cls-14" transform="matrix(-0.21, 0.98, -0.98, -0.21, 1420.24, 1629.1)">T</text><text class="cls-14" transform="translate(1417.34 1642.22) rotate(103.45)">I</text><text class="cls-14" transform="translate(1415.93 1648.45) rotate(104.87)">O</text><text class="cls-14" transform="matrix(-0.29, 0.96, -0.96, -0.29, 1411.15, 1666.4)">N</text><text class="cls-15" transform="translate(1327.55 1522.33) rotate(91.9)">R</text><text class="cls-15" transform="translate(1327.2 1533.02) rotate(92.91)">E</text><text class="cls-15" transform="translate(1326.71 1542.8) rotate(94.04)">C</text><text class="cls-15" transform="matrix(-0.09, 1, -1, -0.09, 1325.95, 1553.85)">O</text><text class="cls-15" transform="translate(1324.68 1567.47) rotate(97.22)">M</text><text class="cls-15" transform="matrix(-0.16, 0.99, -0.99, -0.16, 1322.68, 1583.31)">M</text><text class="cls-15" transform="translate(1320.06 1599.06) rotate(100.99)">E</text><text class="cls-15" transform="matrix(-0.22, 0.98, -0.98, -0.22, 1318.23, 1608.64)">N</text><text class="cls-15" transform="translate(1315.39 1621.38) rotate(104.33)">D</text><text class="cls-15" transform="translate(1312.18 1633.93) rotate(106)">A</text><text class="cls-15" transform="translate(1309.26 1644.15) rotate(107.24)">T</text><text class="cls-15" transform="translate(1306.31 1653.58) rotate(108.18)">I</text><text class="cls-15" transform="matrix(-0.33, 0.94, -0.94, -0.33, 1304.89, 1658.06)">O</text><text class="cls-15" transform="translate(1300.35 1670.98) rotate(110.9)">N</text><text class="cls-16" transform="translate(1271.13 1586.16) rotate(101.31)">5</text><circle class="cls-13" cx="1390.99" cy="1616.84" r="17.32"/><path class="cls-2" d="M1389.33,1614.37l1.16-5.66,4.07.83-1.16,5.66-.83,4.09-1.16,5.66-4.08-.83,1.16-5.66Z"/><circle class="cls-13" cx="1390.99" cy="1616.84" r="17.32"/><path class="cls-2" d="M1389.33,1614.37l1.16-5.66,4.07.83-1.16,5.66,5.59,1.15-.84,4.09-5.58-1.15-1.16,5.66-4.08-.83,1.16-5.66-5.49-1.13.84-4.09Z"/><text class="cls-14" transform="translate(1356.03 1802) rotate(118.28)">Q</text><text class="cls-14" transform="matrix(-0.5, 0.86, -0.86, -0.5, 1347.22, 1818.37)">U</text><text class="cls-14" transform="matrix(-0.53, 0.85, -0.85, -0.53, 1338.42, 1833.47)">E</text><text class="cls-14" transform="matrix(-0.55, 0.84, -0.84, -0.55, 1331.43, 1844.75)">S</text><text class="cls-14" transform="matrix(-0.57, 0.82, -0.82, -0.57, 1324.15, 1855.84)">T</text><text class="cls-14" transform="translate(1316.46 1866.86) rotate(125.91)">I</text><text class="cls-14" transform="translate(1312.78 1872.08) rotate(127.33)">O</text><text class="cls-14" transform="matrix(-0.63, 0.77, -0.77, -0.63, 1301.51, 1886.84)">N</text><text class="cls-15" transform="translate(1279.38 1721.73) rotate(114.36)">R</text><text class="cls-15" transform="matrix(-0.43, 0.9, -0.9, -0.43, 1274.97, 1731.47)">E</text><text class="cls-15" transform="translate(1270.78 1740.32) rotate(116.5)">C</text><text class="cls-15" transform="translate(1265.86 1750.25) rotate(117.88)">O</text><text class="cls-15" transform="translate(1259.48 1762.35) rotate(119.68)">M</text><text class="cls-15" transform="matrix(-0.53, 0.85, -0.85, -0.53, 1251.58, 1776.22)">M</text><text class="cls-15" transform="matrix(-0.55, 0.83, -0.83, -0.55, 1243.14, 1789.78)">E</text><text class="cls-15" transform="translate(1237.79 1797.93) rotate(125)">N</text><text class="cls-15" transform="matrix(-0.6, 0.8, -0.8, -0.6, 1230.3, 1808.62)">D</text><text class="cls-15" transform="translate(1222.54 1819) rotate(128.46)">A</text><text class="cls-15" transform="translate(1215.93 1827.32) rotate(129.71)">T</text><text class="cls-15" transform="matrix(-0.65, 0.76, -0.76, -0.65, 1209.6, 1834.91)">I</text><text class="cls-15" transform="matrix(-0.67, 0.75, -0.75, -0.67, 1206.58, 1838.51)">O</text><text class="cls-15" transform="translate(1197.45 1848.71) rotate(133.36)">N</text><text class="cls-16" transform="translate(1202.85 1759.16) rotate(123.77)">6</text><circle class="cls-13" cx="1301.83" cy="1833.34" r="17.32"/><path class="cls-2" d="M1301.23,1830.42l3.23-4.79,3.45,2.33-3.23,4.79-2.34,3.46-3.23,4.79-3.45-2.33,3.23-4.79Z"/><circle class="cls-13" cx="1301.83" cy="1833.34" r="17.32"/><path class="cls-2" d="M1301.23,1830.42l3.23-4.79,3.45,2.33-3.23,4.79,4.72,3.19-2.34,3.46-4.72-3.19-3.23,4.79-3.45-2.33,3.23-4.79-4.64-3.14,2.34-3.46Z"/><text class="cls-14" transform="translate(1198.72 1991.16) rotate(140.75)">Q</text><text class="cls-14" transform="matrix(-0.79, 0.61, -0.61, -0.79, 1184.32, 2002.92)">U</text><text class="cls-14" transform="matrix(-0.81, 0.58, -0.58, -0.81, 1170.42, 2013.51)">E</text><text class="cls-14" transform="translate(1159.65 2021.26) rotate(145.75)">S</text><text class="cls-14" transform="matrix(-0.84, 0.54, -0.54, -0.84, 1148.69, 2028.73)">T</text><text class="cls-14" transform="translate(1137.36 2035.97) rotate(148.38)">I</text><text class="cls-14" transform="translate(1131.97 2039.38) rotate(149.8)">O</text><text class="cls-14" transform="translate(1115.91 2048.72) rotate(151.82)">N</text><text class="cls-15" transform="matrix(-0.73, 0.68, -0.68, -0.73, 1158.49, 1887.68)">R</text><text class="cls-15" transform="translate(1150.69 1895) rotate(137.84)">E</text><text class="cls-15" transform="translate(1143.44 1901.57) rotate(138.97)">C</text><text class="cls-15" transform="translate(1135.1 1908.86) rotate(140.35)">O</text><text class="cls-15" transform="translate(1124.57 1917.61) rotate(142.15)">M</text><text class="cls-15" transform="matrix(-0.81, 0.58, -0.58, -0.81, 1111.97, 1927.41)">M</text><text class="cls-15" transform="matrix(-0.83, 0.56, -0.56, -0.83, 1098.99, 1936.71)">E</text><text class="cls-15" transform="translate(1090.93 1942.2) rotate(147.47)">N</text><text class="cls-15" transform="matrix(-0.86, 0.51, -0.51, -0.86, 1079.93, 1949.22)">D</text><text class="cls-15" transform="translate(1068.79 1955.84) rotate(150.93)">A</text><text class="cls-15" transform="translate(1059.5 1961) rotate(152.18)">T</text><text class="cls-15" transform="matrix(-0.89, 0.45, -0.45, -0.89, 1050.75, 1965.6)">I</text><text class="cls-15" transform="translate(1046.58 1967.76) rotate(154.26)">O</text><text class="cls-15" transform="translate(1034.25 1973.71) rotate(155.83)">N</text><text class="cls-16" transform="matrix(-0.83, 0.56, -0.56, -0.83, 1073.47, 1893.02)">7</text><circle class="cls-13" cx="1136.63" cy="1999.4" r="17.32"/><path class="cls-2" d="M1137.2,1996.47l4.81-3.19,2.3,3.47-4.82,3.19-3.48,2.31-4.82,3.18-2.29-3.47,4.81-3.18Z"/><circle class="cls-13" cx="1136.63" cy="1999.4" r="17.32"/><path class="cls-2" d="M1137.2,1996.47l4.81-3.19,2.3,3.47-4.82,3.19,3.15,4.75-3.49,2.31-3.14-4.75-4.82,3.18-2.29-3.47,4.81-3.18-3.09-4.68,3.48-2.3Z"/><text class="cls-14" transform="translate(977.64 2106.81) rotate(163.54)">Q</text><text class="cls-14" transform="translate(959.81 2112.08) rotate(165.39)">U</text><text class="cls-14" transform="matrix(-0.97, 0.22, -0.22, -0.97, 942.89, 2116.46)">E</text><text class="cls-14" transform="translate(929.96 2119.43) rotate(168.54)">S</text><text class="cls-14" transform="translate(916.96 2122.07) rotate(170.04)">T</text><text class="cls-14" transform="matrix(-0.99, 0.15, -0.15, -0.99, 903.72, 2124.36)">I</text><text class="cls-14" transform="translate(897.42 2125.42) rotate(172.59)">O</text><text class="cls-14" transform="translate(879 2127.8) rotate(174.61)">N</text><text class="cls-15" transform="translate(980.63 1995.85) rotate(159.62)">R</text><text class="cls-15" transform="translate(970.61 1999.57) rotate(160.63)">E</text><text class="cls-15" transform="matrix(-0.95, 0.31, -0.31, -0.95, 961.37, 2002.83)">C</text><text class="cls-15" transform="translate(950.86 2006.32) rotate(163.14)">O</text><text class="cls-15" transform="translate(937.76 2010.31) rotate(164.94)">M</text><text class="cls-15" transform="translate(922.35 2014.46) rotate(167)">M</text><text class="cls-15" transform="translate(906.78 2018.01) rotate(168.71)">E</text><text class="cls-15" transform="translate(897.22 2019.94) rotate(170.26)">N</text><text class="cls-15" transform="translate(884.36 2022.15) rotate(172.05)">D</text><text class="cls-15" transform="translate(871.53 2023.94) rotate(173.72)">A</text><text class="cls-15" transform="translate(860.96 2025.11) rotate(174.97)">T</text><text class="cls-15" transform="translate(851.12 2025.95) rotate(175.9)">I</text><text class="cls-15" transform="matrix(-1, 0.05, -0.05, -1, 846.43, 2026.33)">O</text><text class="cls-15" transform="matrix(-1, 0.02, -0.02, -1, 832.76, 2027.03)">N</text><text class="cls-16" transform="translate(900.17 1967.84) rotate(169.04)">8</text><circle class="cls-13" cx="917.22" cy="2090.36" r="17.32"/><path class="cls-2" d="M918.87,2087.89l5.68-1.08.77,4.09-5.67,1.07-4.11.78-5.67,1.07-.77-4.09,5.67-1.07Z"/><circle class="cls-13" cx="917.22" cy="2090.36" r="17.32"/><path class="cls-2" d="M918.87,2087.89l5.68-1.08.77,4.09-5.67,1.07,1.06,5.6-4.11.78-1.06-5.6-5.67,1.07-.77-4.09,5.67-1.07-1-5.51,4.1-.77Z"/><text class="cls-14" transform="translate(737.81 2128.75) rotate(-174.47)">Q</text><text class="cls-14" transform="translate(719.31 2126.95) rotate(-172.62)">U</text><text class="cls-14" transform="translate(701.98 2124.68) rotate(-170.95)">E</text><text class="cls-14" transform="matrix(-0.98, -0.18, 0.18, -0.98, 688.88, 2122.59)">S</text><text class="cls-14" transform="matrix(-0.98, -0.21, 0.21, -0.98, 675.83, 2120.17)">T</text><text class="cls-14" transform="matrix(-0.97, -0.23, 0.23, -0.97, 662.7, 2117.34)">I</text><text class="cls-14" transform="matrix(-0.97, -0.25, 0.25, -0.97, 656.46, 2115.96)">O</text><text class="cls-14" transform="translate(638.49 2111.28) rotate(-163.4)">N</text><text class="cls-15" transform="translate(782.12 2027.02) rotate(-178.39)">R</text><text class="cls-15" transform="matrix(-1, -0.05, 0.05, -1, 771.44, 2026.72)">E</text><text class="cls-15" transform="translate(761.66 2026.28) rotate(-176.25)">C</text><text class="cls-15" transform="translate(750.6 2025.57) rotate(-174.87)">O</text><text class="cls-15" transform="translate(736.97 2024.37) rotate(-173.07)">M</text><text class="cls-15" transform="translate(721.13 2022.45) rotate(-171.01)">M</text><text class="cls-15" transform="matrix(-0.98, -0.19, 0.19, -0.98, 705.36, 2019.91)">E</text><text class="cls-15" transform="matrix(-0.98, -0.21, 0.21, -0.98, 695.77, 2018.13)">N</text><text class="cls-15" transform="matrix(-0.97, -0.24, 0.24, -0.97, 683.02, 2015.36)">D</text><text class="cls-15" transform="matrix(-0.96, -0.27, 0.27, -0.96, 670.45, 2012.21)">A</text><text class="cls-15" transform="translate(660.21 2009.34) rotate(-163.04)">T</text><text class="cls-15" transform="matrix(-0.95, -0.31, 0.31, -0.95, 650.77, 2006.44)">I</text><text class="cls-15" transform="translate(646.28 2005.03) rotate(-160.97)">O</text><text class="cls-15" transform="matrix(-0.94, -0.35, 0.35, -0.94, 633.34, 2000.56)">N</text><text class="cls-16" transform="matrix(-0.98, -0.19, 0.19, -0.98, 718.01, 1970.92)">9</text><circle class="cls-13" cx="687.94" cy="2090.88" r="17.32"/><path class="cls-2" d="M690.4,2089.2l5.66,1.13-.81,4.08-5.66-1.13-4.1-.82-5.66-1.13.81-4.08,5.66,1.13Z"/><circle class="cls-13" cx="687.94" cy="2090.88" r="17.32"/><path class="cls-2" d="M690.4,2089.2l5.66,1.13-.81,4.08-5.66-1.13-1.12,5.59-4.09-.82,1.11-5.59-5.66-1.13.81-4.08,5.66,1.13,1.1-5.49,4.1.81Z"/><text class="cls-14" transform="matrix(-0.88, -0.47, 0.47, -0.88, 501.17, 2056.1)">Q</text><text class="cls-14" transform="translate(484.78 2047.33) rotate(-150.01)">U</text><text class="cls-14" transform="translate(469.66 2038.57) rotate(-148.35)">E</text><text class="cls-14" transform="translate(458.36 2031.61) rotate(-146.87)">S</text><text class="cls-14" transform="matrix(-0.82, -0.57, 0.57, -0.82, 447.25, 2024.36)">T</text><text class="cls-14" transform="matrix(-0.81, -0.58, 0.58, -0.81, 436.21, 2016.7)">I</text><text class="cls-14" transform="translate(430.98 2013.03) rotate(-142.81)">O</text><text class="cls-14" transform="translate(416.19 2001.79) rotate(-140.8)">N</text><text class="cls-15" transform="translate(581.22 1979.2) rotate(-155.78)">R</text><text class="cls-15" transform="matrix(-0.9, -0.43, 0.43, -0.9, 571.48, 1974.81)">E</text><text class="cls-15" transform="translate(562.61 1970.64) rotate(-153.64)">C</text><text class="cls-15" transform="translate(552.68 1965.74) rotate(-152.26)">O</text><text class="cls-15" transform="matrix(-0.87, -0.49, 0.49, -0.87, 540.55, 1959.39)">M</text><text class="cls-15" transform="translate(526.67 1951.53) rotate(-148.41)">M</text><text class="cls-15" transform="matrix(-0.84, -0.55, 0.55, -0.84, 513.09, 1943.12)">E</text><text class="cls-15" transform="matrix(-0.82, -0.57, 0.57, -0.82, 504.92, 1937.79)">N</text><text class="cls-15" transform="translate(494.21 1930.33) rotate(-143.35)">D</text><text class="cls-15" transform="translate(483.82 1922.6) rotate(-141.68)">A</text><text class="cls-15" transform="matrix(-0.77, -0.64, 0.64, -0.77, 475.48, 1916.01)">T</text><text class="cls-15" transform="translate(467.87 1909.7) rotate(-139.5)">I</text><text class="cls-15" transform="translate(464.27 1906.68) rotate(-138.36)">O</text><text class="cls-15" transform="matrix(-0.73, -0.68, 0.68, -0.73, 454.04, 1897.58)">N</text><text class="cls-16" transform="translate(552.24 1908.02) rotate(-147.88)">1</text><text class="cls-16" transform="matrix(-0.82, -0.58, 0.58, -0.82, 535.14, 1897.3)">0</text><circle class="cls-13" cx="469.72" cy="2001.96" r="17.32"/><path class="cls-2" d="M472.64,2001.36l4.79,3.22-2.32,3.45-4.79-3.22-3.47-2.33-4.79-3.22,2.32-3.45,4.79,3.22Z"/><circle class="cls-13" cx="469.72" cy="2001.96" r="17.32"/><path class="cls-2" d="M472.64,2001.36l4.79,3.22-2.32,3.45-4.79-3.22-3.18,4.73-3.47-2.33,3.18-4.73-4.79-3.22,2.32-3.45,4.79,3.22,3.13-4.65,3.47,2.33Z"/><text class="cls-14" transform="translate(313.18 1901.12) rotate(-129.61)">Q</text><text class="cls-14" transform="matrix(-0.61, -0.79, 0.79, -0.61, 301.33, 1886.8)">U</text><text class="cls-14" transform="translate(290.66 1872.97) rotate(-126.1)">E</text><text class="cls-14" transform="matrix(-0.57, -0.82, 0.82, -0.57, 282.83, 1862.25)">S</text><text class="cls-14" transform="translate(275.3 1851.33) rotate(-123.11)">T</text><text class="cls-14" transform="translate(267.98 1840.06) rotate(-121.98)">I</text><text class="cls-14" transform="translate(264.54 1834.68) rotate(-120.56)">O</text><text class="cls-14" transform="matrix(-0.48, -0.88, 0.88, -0.48, 255.1, 1818.68)">N</text><text class="cls-15" transform="translate(416.38 1860.26) rotate(-133.53)">R</text><text class="cls-15" transform="matrix(-0.68, -0.74, 0.74, -0.68, 409.02, 1852.51)">E</text><text class="cls-15" transform="translate(402.39 1845.3) rotate(-131.39)">C</text><text class="cls-15" transform="matrix(-0.64, -0.77, 0.77, -0.64, 395.05, 1837)">O</text><text class="cls-15" transform="translate(386.23 1826.53) rotate(-128.21)">M</text><text class="cls-15" transform="matrix(-0.59, -0.81, 0.81, -0.59, 376.36, 1814)">M</text><text class="cls-15" transform="translate(366.97 1801.08) rotate(-124.44)">E</text><text class="cls-15" transform="matrix(-0.54, -0.84, 0.84, -0.54, 361.44, 1793.05)">N</text><text class="cls-15" transform="translate(354.35 1782.09) rotate(-121.1)">D</text><text class="cls-15" transform="translate(347.66 1770.99) rotate(-119.43)">A</text><text class="cls-15" transform="translate(342.43 1761.74) rotate(-118.19)">T</text><text class="cls-15" transform="translate(337.78 1753.02) rotate(-117.25)">I</text><text class="cls-15" transform="translate(335.59 1748.86) rotate(-116.11)">O</text><text class="cls-15" transform="matrix(-0.42, -0.91, 0.91, -0.42, 329.57, 1736.56)">N</text><text class="cls-16" transform="matrix(-0.58, -0.81, 0.81, -0.58, 416.5, 1783.41)">1</text><text class="cls-16" transform="matrix(-0.54, -0.84, 0.84, -0.54, 404.73, 1767.01)">1</text><circle class="cls-13" cx="304.56" cy="1839.1" r="17.32"/><path class="cls-2" d="M307.49,1839.65l3.22,4.8-3.46,2.31L304,1842l-2.32-3.47-3.22-4.8,3.45-2.32,3.22,4.8Z"/><circle class="cls-13" cx="304.56" cy="1839.1" r="17.32"/><path class="cls-2" d="M307.49,1839.65l3.22,4.8-3.46,2.31L304,1842l-4.73,3.17-2.33-3.47,4.74-3.17-3.22-4.8,3.45-2.32,3.22,4.8,4.66-3.12,2.32,3.47Z"/><text class="cls-14" transform="translate(195.53 1678.66) rotate(-106.62)">Q</text><text class="cls-14" transform="translate(190.22 1660.85) rotate(-104.77)">U</text><text class="cls-14" transform="matrix(-0.23, -0.97, 0.97, -0.23, 185.79, 1643.95)">E</text><text class="cls-14" transform="translate(182.78 1631.02) rotate(-101.62)">S</text><text class="cls-14" transform="translate(180.1 1618.03) rotate(-100.12)">T</text><text class="cls-14" transform="translate(177.78 1604.79) rotate(-98.99)">I</text><text class="cls-14" transform="translate(176.7 1598.5) rotate(-97.57)">O</text><text class="cls-14" transform="matrix(-0.1, -1, 1, -0.1, 174.26, 1580.08)">N</text><text class="cls-15" transform="matrix(-0.35, -0.94, 0.94, -0.35, 306.47, 1681.32)">R</text><text class="cls-15" transform="translate(302.72 1671.31) rotate(-109.53)">E</text><text class="cls-15" transform="translate(299.44 1662.08) rotate(-108.4)">C</text><text class="cls-15" transform="translate(295.92 1651.58) rotate(-107.02)">O</text><text class="cls-15" transform="translate(291.89 1638.5) rotate(-105.22)">M</text><text class="cls-15" transform="translate(287.7 1623.1) rotate(-103.17)">M</text><text class="cls-15" transform="translate(284.1 1607.54) rotate(-101.45)">E</text><text class="cls-15" transform="translate(282.14 1597.99) rotate(-99.9)">N</text><text class="cls-15" transform="translate(279.9 1585.13) rotate(-98.11)">D</text><text class="cls-15" transform="translate(278.07 1572.3) rotate(-96.44)">A</text><text class="cls-15" transform="matrix(-0.09, -1, 1, -0.09, 276.88, 1561.74)">T</text><text class="cls-15" transform="translate(276 1551.9) rotate(-94.26)">I</text><text class="cls-15" transform="matrix(-0.05, -1, 1, -0.05, 275.61, 1547.21)">O</text><text class="cls-15" transform="matrix(-0.03, -1, 1, -0.03, 274.87, 1533.54)">N</text><text class="cls-16" transform="translate(336.6 1610.62) rotate(-102.64)">1</text><text class="cls-16" transform="translate(332.17 1590.93) rotate(-99.6)">2</text><circle class="cls-13" cx="211.78" cy="1618.19" r="17.32"/><path class="cls-2" d="M214.26,1619.84l1.09,5.67-4.09.78-1.08-5.67-.79-4.1-1.09-5.67,4.09-.79,1.08,5.67Z"/><circle class="cls-13" cx="211.78" cy="1618.19" r="17.32"/><path class="cls-2" d="M214.26,1619.84l1.09,5.67-4.09.78-1.08-5.67-5.6,1.07-.79-4.1,5.6-1.07-1.09-5.67,4.09-.79,1.08,5.67,5.51-1,.79,4.1Z"/><text class="cls-14" transform="translate(173.47 1432.98) rotate(-84.09)">Q</text><text class="cls-14" transform="matrix(0.14, -0.99, 0.99, 0.14, 175.39, 1414.48)">U</text><text class="cls-14" transform="translate(177.77 1397.18) rotate(-80.58)">E</text><text class="cls-14" transform="matrix(0.19, -0.98, 0.98, 0.19, 179.95, 1384.08)">S</text><text class="cls-14" transform="translate(182.45 1371.06) rotate(-77.59)">T</text><text class="cls-14" transform="translate(185.37 1357.94) rotate(-76.46)">I</text><text class="cls-14" transform="translate(186.79 1351.71) rotate(-75.04)">O</text><text class="cls-14" transform="matrix(0.29, -0.96, 0.96, 0.29, 191.59, 1333.77)">N</text><text class="cls-15" transform="matrix(0.03, -1, 1, 0.03, 274.95, 1477.97)">R</text><text class="cls-15" transform="matrix(0.05, -1, 1, 0.05, 275.32, 1467.29)">E</text><text class="cls-15" transform="translate(275.83 1457.51) rotate(-85.87)">C</text><text class="cls-15" transform="translate(276.6 1446.46) rotate(-84.49)">O</text><text class="cls-15" transform="translate(277.89 1432.84) rotate(-82.69)">M</text><text class="cls-15" transform="translate(279.92 1417.01) rotate(-80.64)">M</text><text class="cls-15" transform="translate(282.56 1401.25) rotate(-78.92)">E</text><text class="cls-15" transform="translate(284.41 1391.68) rotate(-77.37)">N</text><text class="cls-15" transform="matrix(0.25, -0.97, 0.97, 0.25, 287.26, 1378.95)">D</text><text class="cls-15" transform="matrix(0.28, -0.96, 0.96, 0.28, 290.49, 1366.4)">A</text><text class="cls-15" transform="translate(293.44 1356.18) rotate(-72.67)">T</text><text class="cls-15" transform="translate(296.4 1346.76) rotate(-71.73)">I</text><text class="cls-15" transform="translate(297.83 1342.28) rotate(-70.59)">O</text><text class="cls-15" transform="translate(302.39 1329.37) rotate(-69.01)">N</text><text class="cls-16" transform="matrix(0.17, -0.99, 0.99, 0.17, 329.87, 1424.21)">1</text><text class="cls-16" transform="translate(333.33 1404.33) rotate(-77.07)">3</text><circle class="cls-13" cx="211.7" cy="1383.36" r="17.32"/><path class="cls-2" d="M213.36,1385.83l-1.17,5.66-4.08-.84,1.17-5.66.85-4.09,1.16-5.65,4.08.84-1.17,5.65Z"/><circle class="cls-13" cx="211.7" cy="1383.36" r="17.32"/><path class="cls-2" d="M213.36,1385.83l-1.17,5.66-4.08-.84,1.17-5.66-5.58-1.15.85-4.09,5.58,1.15,1.16-5.65,4.08.84-1.17,5.65,5.49,1.14-.84,4.09Z"/><text class="cls-14" transform="matrix(0.47, -0.88, 0.88, 0.47, 245.37, 1201.16)">Q</text><text class="cls-14" transform="translate(254.12 1184.76) rotate(-60.08)">U</text><text class="cls-14" transform="matrix(0.52, -0.85, 0.85, 0.52, 262.86, 1169.63)">E</text><text class="cls-14" transform="matrix(0.55, -0.84, 0.84, 0.55, 269.81, 1158.32)">S</text><text class="cls-14" transform="matrix(0.57, -0.82, 0.82, 0.57, 277.04, 1147.21)">T</text><text class="cls-14" transform="matrix(0.58, -0.81, 0.81, 0.58, 284.7, 1136.16)">I</text><text class="cls-14" transform="translate(288.36 1130.93) rotate(-52.88)">O</text><text class="cls-14" transform="translate(299.57 1116.12) rotate(-50.87)">N</text><text class="cls-15" transform="translate(322.32 1281.15) rotate(-65.85)">R</text><text class="cls-15" transform="translate(326.7 1271.4) rotate(-64.84)">E</text><text class="cls-15" transform="translate(330.85 1262.53) rotate(-63.71)">C</text><text class="cls-15" transform="matrix(0.46, -0.89, 0.89, 0.46, 335.74, 1252.59)">O</text><text class="cls-15" transform="translate(342.08 1240.46) rotate(-60.53)">M</text><text class="cls-15" transform="translate(349.92 1226.56) rotate(-58.48)">M</text><text class="cls-15" transform="translate(358.31 1212.97) rotate(-56.76)">E</text><text class="cls-15" transform="translate(363.64 1204.8) rotate(-55.21)">N</text><text class="cls-15" transform="translate(371.08 1194.09) rotate(-53.42)">D</text><text class="cls-15" transform="matrix(0.62, -0.79, 0.79, 0.62, 378.81, 1183.68)">A</text><text class="cls-15" transform="translate(385.38 1175.33) rotate(-50.51)">T</text><text class="cls-15" transform="matrix(0.65, -0.76, 0.76, 0.65, 391.68, 1167.72)">I</text><text class="cls-15" transform="translate(394.7 1164.11) rotate(-48.43)">O</text><text class="cls-15" transform="matrix(0.68, -0.73, 0.73, 0.68, 403.79, 1153.87)">N</text><text class="cls-16" transform="matrix(0.53, -0.85, 0.85, 0.53, 393.46, 1252.08)">1</text><text class="cls-16" transform="translate(404.17 1234.97) rotate(-54.91)">4</text><circle class="cls-13" cx="299.46" cy="1169.63" r="17.32"/><path class="cls-1" d="M300.06,1172.55l-3.21,4.8-3.46-2.32,3.22-4.8,2.32-3.47,3.22-4.8,3.45,2.32-3.21,4.8Z"/><circle class="cls-13" cx="299.46" cy="1169.63" r="17.32"/><path class="cls-1" d="M300.06,1172.55l-3.21,4.8-3.46-2.32,3.22-4.8-4.74-3.17,2.33-3.47,4.73,3.17,3.22-4.8,3.45,2.32-3.21,4.8,4.65,3.12-2.32,3.47Z"/><text class="cls-14" transform="translate(401.46 1011.86) rotate(-39.52)">Q</text><text class="cls-14" transform="translate(415.8 1000.03) rotate(-37.67)">U</text><text class="cls-14" transform="translate(429.65 989.37) rotate(-36.01)">E</text><text class="cls-14" transform="translate(440.38 981.57) rotate(-34.53)">S</text><text class="cls-14" transform="translate(451.31 974.05) rotate(-33.02)">T</text><text class="cls-14" transform="translate(462.6 966.75) rotate(-31.89)">I</text><text class="cls-14" transform="translate(467.98 963.31) rotate(-30.47)">O</text><text class="cls-14" transform="matrix(0.88, -0.48, 0.48, 0.88, 483.99, 953.9)">N</text><text class="cls-15" transform="matrix(0.73, -0.69, 0.69, 0.73, 442.14, 1115.11)">R</text><text class="cls-15" transform="translate(449.91 1107.76) rotate(-42.43)">E</text><text class="cls-15" transform="translate(457.13 1101.15) rotate(-41.3)">C</text><text class="cls-15" transform="matrix(0.77, -0.64, 0.64, 0.77, 465.44, 1093.82)">O</text><text class="cls-15" transform="matrix(0.79, -0.62, 0.62, 0.79, 475.92, 1085.02)">M</text><text class="cls-15" transform="matrix(0.81, -0.59, 0.59, 0.81, 488.47, 1075.17)">M</text><text class="cls-15" transform="translate(501.41 1065.8) rotate(-34.35)">E</text><text class="cls-15" transform="translate(509.44 1060.28) rotate(-32.8)">N</text><text class="cls-15" transform="matrix(0.86, -0.52, 0.52, 0.86, 520.41, 1053.21)">D</text><text class="cls-15" transform="translate(531.52 1046.53) rotate(-29.34)">A</text><text class="cls-15" transform="matrix(0.88, -0.47, 0.47, 0.88, 540.78, 1041.32)">T</text><text class="cls-15" transform="matrix(0.89, -0.46, 0.46, 0.89, 549.51, 1036.68)">I</text><text class="cls-15" transform="translate(553.67 1034.5) rotate(-26.02)">O</text><text class="cls-15" transform="translate(565.98 1028.5) rotate(-24.44)">N</text><text class="cls-16" transform="translate(519 1115.35) rotate(-35.54)">1</text><text class="cls-16" transform="translate(535.41 1103.61) rotate(-32.5)">5</text><circle class="cls-13" cx="463.51" cy="1003.33" r="17.32"/><path class="cls-1" d="M463,1006.25l-4.81,3.21-2.31-3.46,4.8-3.21,3.48-2.32,4.8-3.21,2.31,3.46-4.8,3.21Z"/><circle class="cls-13" cx="463.51" cy="1003.33" r="17.32"/><path class="cls-1" d="M463,1006.25l-4.81,3.21-2.31-3.46,4.8-3.21-3.16-4.73,3.47-2.32,3.17,4.73,4.8-3.21,2.31,3.46-4.8,3.21,3.11,4.66-3.47,2.32Z"/></g><g id="R-Q"><text class="cls-17" transform="translate(49.91 2215.28)">NDDI-<tspan class="cls-18" x="30.43" y="0">E</tspan><tspan x="36.29" y="0">,</tspan><tspan class="cls-19" x="38.77" y="0" xml:space="preserve"> Neu</tspan><tspan class="cls-20" x="61.83" y="0">r</tspan><tspan class="cls-19" x="65.64" y="0">olo</tspan><tspan class="cls-21" x="81.65" y="0">g</tspan><tspan class="cls-19" x="88.28" y="0">ical Diso</tspan><tspan class="cls-22" x="129.77" y="0">r</tspan><tspan class="cls-23" x="133.57" y="0">ders </tspan><tspan class="cls-24" x="157.57" y="0">D</tspan><tspan class="cls-25" x="165.61" y="0">ep</tspan><tspan class="cls-20" x="178.45" y="0">r</tspan><tspan class="cls-19" x="182.25" y="0">ession </tspan><tspan class="cls-26" x="216.37" y="0">I</tspan><tspan class="cls-27" x="219.36" y="0">n</tspan><tspan class="cls-22" x="225.86" y="0">v</tspan><tspan class="cls-23" x="231.51" y="0">e</tspan><tspan class="cls-28" x="237.52" y="0">n</tspan><tspan class="cls-29" x="244.14" y="0">t</tspan><tspan class="cls-19" x="248.04" y="0">o</tspan><tspan class="cls-30" x="254.62" y="0">r</tspan><tspan class="cls-19" x="258.85" y="0">y in Epileps</tspan><tspan class="cls-31" x="315.02" y="0">y</tspan><tspan class="cls-19" x="320.96" y="0">; </tspan><tspan x="325.99" y="0">PW</tspan><tspan class="cls-32" x="342.52" y="0">E</tspan><tspan x="348.38" y="0">,</tspan><tspan class="cls-19" x="350.86" y="0"> </tspan><tspan class="cls-19"><tspan class="cls-33" x="0" y="14.4">P</tspan><tspan x="6.08" y="14.4">eople with Epilepsy</tspan></tspan></text><line class="cls-34" x1="530.95" y1="1408.22" x2="536.95" y2="1408.22"/><line class="cls-35" x1="548.8" y1="1408.22" x2="1064.43" y2="1408.22"/><line class="cls-34" x1="1070.35" y1="1408.22" x2="1076.35" y2="1408.22"/><text class="cls-36" transform="translate(605.02 1504.41)">RE<tspan class="cls-37" x="49.26" y="0">C</tspan><tspan x="76" y="0">OMMEN</tspan><tspan class="cls-38" x="240.86" y="0">D</tspan><tspan class="cls-39" x="272.05" y="0">A</tspan><tspan x="297.63" y="0">TION</tspan></text><text class="cls-40" transform="translate(500.36 1580.09)"><tspan class="cls-41">F</tspan><tspan x="13.29" y="0">or dep</tspan><tspan class="cls-42" x="92.61" y="0">r</tspan><tspan x="101.85" y="0">ession sc</tspan><tspan class="cls-42" x="209.29" y="0">r</tspan><tspan x="218.53" y="0">eening in PW</tspan><tspan class="cls-43" x="378.69" y="0">E</tspan><tspan x="392.91" y="0">, the Neu</tspan><tspan class="cls-42" x="501.55" y="0">r</tspan><tspan x="510.79" y="0">olo</tspan><tspan class="cls-44" x="549.66" y="0">g</tspan><tspan x="565.78" y="0">ical </tspan><tspan x="39.27" y="34.97">Diso</tspan><tspan class="cls-42" x="93.03" y="34.97">r</tspan><tspan x="102.27" y="34.97">ders </tspan><tspan class="cls-45" x="160.55" y="34.97">D</tspan><tspan x="180.08" y="34.97">ep</tspan><tspan class="cls-42" x="211.26" y="34.97">r</tspan><tspan x="220.5" y="34.97">ession </tspan><tspan class="cls-46" x="303.35" y="34.97">I</tspan><tspan class="cls-47" x="310.6" y="34.97">n</tspan><tspan class="cls-42" x="326.4" y="34.97">v</tspan><tspan x="340.12" y="34.97">e</tspan><tspan class="cls-43" x="354.72" y="34.97">n</tspan><tspan class="cls-44" x="370.78" y="34.97">t</tspan><tspan x="380.25" y="34.97">o</tspan><tspan class="cls-48" x="396.25" y="34.97">r</tspan><tspan x="406.51" y="34.97">y </tspan><tspan class="cls-47" x="426.41" y="34.97">f</tspan><tspan x="434.54" y="34.97">or Epilepsy </tspan><tspan x="81.8" y="69.94">(NDDI-E) with a cu</tspan><tspan class="cls-44" x="302.37" y="69.94">t</tspan><tspan x="311.84" y="69.94">off poi</tspan><tspan class="cls-43" x="390.4" y="69.94">n</tspan><tspan x="406.46" y="69.94">t of &gt;13 is </tspan><tspan class="cls-42" x="210.63" y="104.91">r</tspan><tspan x="219.87" y="104.91">e</tspan><tspan class="cls-44" x="234.47" y="104.91">c</tspan><tspan x="247.35" y="104.91">ommende</tspan><tspan class="cls-42" x="373.77" y="104.91">d</tspan><tspan x="389.91" y="104.91">.</tspan></text></g><g id="Header"><path class="cls-49" d="M1007.8,143.76l23-25.86h-24l-12.69,14.71-12.7-14.71H956.16L979.43,144,953.9,173h25.26l14.12-16.61,14.1,16.61h26ZM947.55,117.9H924.84V173h22.71Zm.14-15.28c0-5.13-5.37-8.36-11.43-8.36-6.35,0-11.72,3.35-11.72,8.36s5.51,8.36,11.58,8.36S947.69,107.86,947.69,102.62ZM842.89,173h22.3V133.4a22.92,22.92,0,0,1,12.14-3.57c10.59,0,12.56,5.57,12.56,14.27V173h22.43V136.63c0-4.68-.14-10.6-6.07-15.27-5.63-4.46-13.26-4.8-16.78-4.8a51.86,51.86,0,0,0-13.12,1.68l-11.16,12.15V117.9h-22.3ZM830.07,117.9H807.34V173h22.73Zm.12-15.28c0-5.13-5.35-8.36-11.41-8.36-6.36,0-11.72,3.35-11.72,8.36s5.5,8.36,11.57,8.36S830.19,107.86,830.19,102.62Zm-81.92,29a22.47,22.47,0,0,1,10.31-2.34c12.13,0,15.51,9,15.51,15.39,0,6.57-3.26,16.83-16.09,16.83a19.61,19.61,0,0,1-9.73-2.34Zm0-37.35h-23V168c10.44,3.79,21.46,6.35,32.88,6.35,30.35,0,39.52-17.94,39.52-30.66,0-14.6-10.72-27.09-30.49-27.09a54.54,54.54,0,0,0-9.17.78l-9.73,11.59Zm-81.2,44.26c1.69-8.13,8-11.25,14.24-11.25a14.94,14.94,0,0,1,9.46,3,10.59,10.59,0,0,1,4,8.24Zm47.26,20.18a72.77,72.77,0,0,1-22.58,3.69c-7,0-11.43-.79-16.36-3.35-5.65-2.9-7.91-9.69-7.91-10.82h49.25c0-5.79,0-15.16-8.18-22.74-8.75-8.14-21.32-8.92-28.08-8.92-24,0-37.26,12.71-37.26,29,0,14.38,10.72,28.76,41.35,28.76a112,112,0,0,0,19.76-1.77Zm-71.81-1.44H585.23l50.8-47.5V94.26H556V110h47.4L552.2,157.92V173h78.74Z"/><path class="cls-50" d="M819.4,60.19Q855.6,95.53,941,64.77c10.69-4.15,14,7.67,6.23,10.83-58.29,24.15-115.66,19.88-137-6.66C803.84,60.8,812.64,53.28,819.4,60.19Z"/><path class="cls-50" d="M858.54,51.3a18.88,18.88,0,1,1,18.89,18.9A18.88,18.88,0,0,1,858.54,51.3Z"/><path class="cls-50" d="M575.92,50.84c-4.18,0-7.14,3.54-7.14,8.26,0,4.48,2.72,8.17,7.2,8.17s7-4.17,7-8.14C583,54.26,580,50.84,575.92,50.84Z"/><path class="cls-50" d="M688.71,52.69c-.21.7-.24.82-.33,1.09l-3,8h6.59l-2.87-8A11.55,11.55,0,0,1,688.71,52.69Z"/><path class="cls-50" d="M665.51,51.48h-2.27V66.82H666a7.94,7.94,0,0,0,5.69-13.37C669.74,51.6,667.35,51.48,665.51,51.48Z"/><path class="cls-50" d="M555.81,38.26V80H748.27V38.26ZM576,70.32c-7,0-11.47-4.84-11.47-11.16a10.94,10.94,0,0,1,11.35-11.28c6.89,0,11.37,5,11.37,11.13S583,70.32,576,70.32Zm33.69-.54h-1.39L594.4,54.35l.12,15.43h-3.93V48.43h3.72L606,61.67l-.12-13.24h3.87Zm20.57-.06a18.94,18.94,0,0,1-4.84.6c-8,0-12.37-5-12.37-11.1s4.45-11.34,12.28-11.34a16.56,16.56,0,0,1,5.93,1v3.66a9.62,9.62,0,0,0-5.6-1.76c-5,0-8.38,3.48-8.38,8.17s3.27,8.41,9,8.41a18.86,18.86,0,0,0,6-1.12Zm16.61.06H634.72V48.43h12.52v3h-8.56v5.69h7.38v3h-7.38v6.57h10Zm25.67-1.27a12.41,12.41,0,0,1-6.14,1.27h-7.1V48.43h7.2a13.3,13.3,0,0,1,6.17,1.27A10.09,10.09,0,0,1,678,59,10.35,10.35,0,0,1,672.55,68.51Zm22.27,1.27-2-5.32h-8.5l-2,5.32h-4L687,48.43h3.87l8.32,21.35Zm10.1,0h-4V48.43h4Zm17.22,0H709.76V48.43h4v18.3h10.13Zm9.65-8.08v8.08h-4V61.7L720,48.43h4.39L730,58.07l5.5-9.64h4.08Z"/><path class="cls-1" d="M814,221.72h-11.4V203h4.94v15h8.64Z"/><path class="cls-1" d="M823,204.93a1.8,1.8,0,0,1-.65,1.46,2.44,2.44,0,0,1-3,0,1.76,1.76,0,0,1-.67-1.46,1.79,1.79,0,0,1,.65-1.45,2.38,2.38,0,0,1,1.56-.55,2.3,2.3,0,0,1,1.5.54A1.79,1.79,0,0,1,823,204.93Zm0,16.79h-4.28V208.57H823Z"/><path class="cls-1" d="M831.48,221.72h-4.36v-10.1h-1.91l1.62-3h.29v-.79c0-.46,0-1,.11-1.48a4.06,4.06,0,0,1,1.75-2.85,5.23,5.23,0,0,1,1.42-.67,5.61,5.61,0,0,1,1.29-.25c.39,0,.67,0,.85,0a9.22,9.22,0,0,1,1.53.1,9.82,9.82,0,0,1,1,.22V206a4.48,4.48,0,0,0-.59-.22,2.88,2.88,0,0,0-.9-.12,2.61,2.61,0,0,0-1.09.25,1.58,1.58,0,0,0-.82,1,2.14,2.14,0,0,0-.15.7c0,.24,0,.59,0,1.05h2.87v3h-2.87Z"/><path class="cls-1" d="M848,221.62a14.59,14.59,0,0,1-2.09.34c-.64,0-1.19.08-1.63.08a10,10,0,0,1-3.64-.58,6.45,6.45,0,0,1-2.41-1.56,6,6,0,0,1-1.33-2.2,8.11,8.11,0,0,1-.41-2.52,7.81,7.81,0,0,1,.47-2.72,6.09,6.09,0,0,1,3.54-3.65,7.81,7.81,0,0,1,3-.54c.32,0,.69,0,1.13.06a6.07,6.07,0,0,1,1.37.28,7.29,7.29,0,0,1,1.44.65,5.13,5.13,0,0,1,1.35,1.14,5.58,5.58,0,0,1,.89,1.42,8.32,8.32,0,0,1,.45,1.45,10,10,0,0,1,.17,1.38q0,.67,0,1.17h-9.28a2.73,2.73,0,0,0,.08.43,3.11,3.11,0,0,0,.27.7,6,6,0,0,0,.46.79,2.67,2.67,0,0,0,.68.66,4.71,4.71,0,0,0,1.38.63,7.43,7.43,0,0,0,1.7.17,10.47,10.47,0,0,0,2.18-.23,11.92,11.92,0,0,0,2.08-.65Zm-1.81-8.11c0-.23-.06-.53-.13-.9a2.14,2.14,0,0,0-.61-1.07,2.44,2.44,0,0,0-1.78-.71,2.62,2.62,0,0,0-1.66.61,3.14,3.14,0,0,0-1,2.07Z"/><path class="cls-1" d="M862.57,208.57h4.31v2.76l1.88-2.63,1-.27a6.82,6.82,0,0,1,1.6-.18,4.87,4.87,0,0,1,2.16.4,3.55,3.55,0,0,1,1.25.93,2.83,2.83,0,0,1,.6,1,6,6,0,0,1,.21.78l2-2.74a10.7,10.7,0,0,1,1.33-.32,8.51,8.51,0,0,1,1.33-.1,6,6,0,0,1,1.83.29,3.45,3.45,0,0,1,1.52,1,3.19,3.19,0,0,1,.78,1.6,12,12,0,0,1,.12,1.73v8.87h-4.3v-6.64c0-.75,0-1.31-.06-1.7a2.72,2.72,0,0,0-.26-1,1.7,1.7,0,0,0-.79-.76,2.61,2.61,0,0,0-1.1-.23,3.39,3.39,0,0,0-1.4.28,6.86,6.86,0,0,0-.91.5c0,.16,0,.34,0,.57v9h-4.3v-7.23a4.82,4.82,0,0,0-.44-2.31,1.86,1.86,0,0,0-1.77-.77,3.66,3.66,0,0,0-1.18.2,7.23,7.23,0,0,0-1.1.49v9.62h-4.31Z"/><path class="cls-1" d="M899.73,218.51c0,.6,0,1.18,0,1.75s0,1.05.08,1.46h-4.06a6.58,6.58,0,0,1-.06-.87c0-.29,0-.67,0-1.15l-1.79,2.21-.69.09a5.69,5.69,0,0,1-.77,0,5.84,5.84,0,0,1-2.73-.52,4,4,0,0,1-1.47-1.21,3.57,3.57,0,0,1-.59-1.36,6.53,6.53,0,0,1-.12-1,3.7,3.7,0,0,1,.32-1.63,4.34,4.34,0,0,1,.75-1.14,3.81,3.81,0,0,1,.89-.72l.72-.39a6.72,6.72,0,0,1,1.72-.46,13.34,13.34,0,0,1,1.79-.12c.42,0,.81,0,1.15.05s.62.07.82.11a5,5,0,0,0-.15-.94,2.14,2.14,0,0,0-.43-.85,1.92,1.92,0,0,0-.86-.61,3.85,3.85,0,0,0-1.49-.23,6.25,6.25,0,0,0-1.23.11,10.16,10.16,0,0,0-1.15.26,9.45,9.45,0,0,0-1,.35l-.77.32,1.94-3.38a15.33,15.33,0,0,1,1.75-.32,14.92,14.92,0,0,1,1.78-.11l.85,0a6.93,6.93,0,0,1,1.06.15,8,8,0,0,1,1.13.33,4,4,0,0,1,1.94,1.55,4,4,0,0,1,.46,1,4.83,4.83,0,0,1,.17.93q0,.44,0,.78Zm-4-2.45-.64-.05-.61,0a4.55,4.55,0,0,0-1.36.16,2.51,2.51,0,0,0-.77.35,1.55,1.55,0,0,0-.44.45,1.64,1.64,0,0,0-.2.48,2.28,2.28,0,0,0,0,.4,1.43,1.43,0,0,0,.52,1.14,2.35,2.35,0,0,0,1.58.45,3.76,3.76,0,0,0,1.15-.16,8,8,0,0,0,.82-.29Z"/><path class="cls-1" d="M916.68,221.72h-4.3V219l-1.81,2.68-.85.21a4.42,4.42,0,0,1-1.06.11,5.1,5.1,0,0,1-2.52-.58,5.35,5.35,0,0,1-1.74-1.53,6.57,6.57,0,0,1-1-2.15,9.35,9.35,0,0,1-.33-2.46,8.26,8.26,0,0,1,.44-2.75,7,7,0,0,1,1.23-2.25,5.75,5.75,0,0,1,1.9-1.5,5.55,5.55,0,0,1,2.46-.55,5.1,5.1,0,0,1,2.11.36,8.64,8.64,0,0,1,1.19.63V203h4.3Zm-4.3-9.67a7.37,7.37,0,0,0-.7-.41,2.54,2.54,0,0,0-1.27-.28,2.57,2.57,0,0,0-1.38.35,2.89,2.89,0,0,0-.91.93,4.14,4.14,0,0,0-.49,1.27,6.62,6.62,0,0,0-.14,1.39,7.21,7.21,0,0,0,.14,1.36,3.16,3.16,0,0,0,.68,1.4,2.53,2.53,0,0,0,.82.66,2.64,2.64,0,0,0,1.31.29,3.73,3.73,0,0,0,1-.14,5.39,5.39,0,0,0,.93-.41Z"/><path class="cls-1" d="M931.46,221.62a14.59,14.59,0,0,1-2.09.34c-.65,0-1.19.08-1.63.08a10,10,0,0,1-3.64-.58,6.45,6.45,0,0,1-2.41-1.56,6,6,0,0,1-1.33-2.2,8.11,8.11,0,0,1-.41-2.52,7.81,7.81,0,0,1,.47-2.72,6.3,6.3,0,0,1,1.35-2.19,6.15,6.15,0,0,1,2.19-1.46,7.81,7.81,0,0,1,3-.54c.32,0,.69,0,1.13.06a5.88,5.88,0,0,1,1.36.28,7.11,7.11,0,0,1,1.45.65,5.13,5.13,0,0,1,1.35,1.14,5.54,5.54,0,0,1,.88,1.42,7.59,7.59,0,0,1,.46,1.45,10,10,0,0,1,.17,1.38q0,.67,0,1.17h-9.28a2.73,2.73,0,0,0,.08.43,3.11,3.11,0,0,0,.27.7,6,6,0,0,0,.46.79,2.67,2.67,0,0,0,.68.66,4.71,4.71,0,0,0,1.38.63,7.43,7.43,0,0,0,1.7.17,10.47,10.47,0,0,0,2.18-.23,11.56,11.56,0,0,0,2.07-.65Zm-1.81-8.11c0-.23-.06-.53-.13-.9a2.14,2.14,0,0,0-.61-1.07,2.46,2.46,0,0,0-1.78-.71,2.67,2.67,0,0,0-1.67.61,3.18,3.18,0,0,0-1,2.07Z"/><path class="cls-1" d="M945.94,216.86l.68.49a6,6,0,0,0,1.08.6,11,11,0,0,0,1.58.56,6.2,6.2,0,0,0,1.55.21,3.9,3.9,0,0,0,1.2-.17,2.8,2.8,0,0,0,.83-.44,2.35,2.35,0,0,0,.51-.72,2.12,2.12,0,0,0,.2-.9,1.87,1.87,0,0,0-.2-.88,2.26,2.26,0,0,0-.5-.64,3.61,3.61,0,0,0-.69-.46,7.4,7.4,0,0,0-.76-.36l-1.06-.43c-.35-.14-.77-.34-1.27-.59a7.33,7.33,0,0,1-1.43-1,5.72,5.72,0,0,1-1.18-1.56,4.8,4.8,0,0,1-.49-2.23,5.91,5.91,0,0,1,.39-2.06,5.2,5.2,0,0,1,1.22-1.89,6.53,6.53,0,0,1,2.11-1.37,8.11,8.11,0,0,1,3.09-.53,10.51,10.51,0,0,1,2.45.27,11.84,11.84,0,0,1,2.33.82v4a7.51,7.51,0,0,0-2-1.23,5.83,5.83,0,0,0-2.28-.44,3.18,3.18,0,0,0-1.24.21,2.36,2.36,0,0,0-.77.52,1.82,1.82,0,0,0-.38.65,2.26,2.26,0,0,0-.11.64,1.74,1.74,0,0,0,.2.84,2.2,2.2,0,0,0,.52.62,3.55,3.55,0,0,0,.73.48c.27.14.55.28.84.4l1.35.56c.34.16.74.36,1.2.61a6.29,6.29,0,0,1,1.33,1,5.39,5.39,0,0,1,1.07,1.55,5.06,5.06,0,0,1,.44,2.24,5.78,5.78,0,0,1-.46,2.29,5.43,5.43,0,0,1-1.37,1.9,6.89,6.89,0,0,1-2.22,1.3,8.45,8.45,0,0,1-3,.49l-.8,0a9.84,9.84,0,0,1-1.26-.14c-.49-.08-1-.2-1.62-.35a13.86,13.86,0,0,1-1.85-.62Z"/><path class="cls-1" d="M966.09,204.93a1.78,1.78,0,0,1-.66,1.46,2.34,2.34,0,0,1-1.52.53,2.38,2.38,0,0,1-1.52-.53,1.94,1.94,0,0,1,0-2.91,2.35,2.35,0,0,1,1.55-.55,2.27,2.27,0,0,1,1.5.54A1.77,1.77,0,0,1,966.09,204.93Zm0,16.79h-4.28V208.57h4.28Z"/><path class="cls-1" d="M969.89,208.57h4.3v2.76l1.89-2.63,1-.27a6.73,6.73,0,0,1,1.59-.18,4.89,4.89,0,0,1,2.17.4,3.55,3.55,0,0,1,1.25.93,3.14,3.14,0,0,1,.6,1q.15.51.21.78l2-2.74a10.56,10.56,0,0,1,1.32-.32,8.6,8.6,0,0,1,1.33-.1,6.15,6.15,0,0,1,1.84.29,3.42,3.42,0,0,1,1.51,1,3.21,3.21,0,0,1,.79,1.6,13.6,13.6,0,0,1,.11,1.73v8.87h-4.3v-6.64c0-.75,0-1.31-.05-1.7a2.93,2.93,0,0,0-.27-1,1.68,1.68,0,0,0-.78-.76,2.65,2.65,0,0,0-1.11-.23,3.35,3.35,0,0,0-1.39.28,6.47,6.47,0,0,0-.92.5,4.56,4.56,0,0,1,0,.57v9h-4.31v-7.23a4.71,4.71,0,0,0-.44-2.31,1.85,1.85,0,0,0-1.76-.77,3.67,3.67,0,0,0-1.19.2,7.69,7.69,0,0,0-1.1.49v9.62h-4.3Z"/><path class="cls-1" d="M1001.78,208.59c.21-.07.47-.14.77-.21a4.67,4.67,0,0,1,1.06-.11,5.43,5.43,0,0,1,2.35.5,5.14,5.14,0,0,1,1.8,1.37,6,6,0,0,1,1.13,2.11,9.31,9.31,0,0,1,.38,2.72,8.58,8.58,0,0,1-.49,3,6.6,6.6,0,0,1-1.32,2.21,5.73,5.73,0,0,1-4.23,1.82,5,5,0,0,1-2-.34,13.62,13.62,0,0,1-1.22-.61v6.19h-4.36V208.59H1000l0,2.64Zm-1.76,9.62c.13.09.36.24.69.44a2.37,2.37,0,0,0,1.27.31,2.42,2.42,0,0,0,2.09-1.09,4.87,4.87,0,0,0,.76-2.85,5.88,5.88,0,0,0-.17-1.43,3.46,3.46,0,0,0-.54-1.25,2.94,2.94,0,0,0-.93-.78,2.57,2.57,0,0,0-1.29-.31,3.81,3.81,0,0,0-1,.13,4.43,4.43,0,0,0-.9.4Z"/><path class="cls-1" d="M1016.85,221.72h-4.36V203h4.36Z"/><path class="cls-1" d="M1031.57,221.62a14.59,14.59,0,0,1-2.09.34c-.64,0-1.19.08-1.63.08a10,10,0,0,1-3.64-.58,6.53,6.53,0,0,1-2.41-1.56,6,6,0,0,1-1.33-2.2,8.11,8.11,0,0,1-.41-2.52,7.81,7.81,0,0,1,.47-2.72,6.09,6.09,0,0,1,3.54-3.65,7.81,7.81,0,0,1,3-.54c.32,0,.69,0,1.13.06a6.07,6.07,0,0,1,1.37.28,7.29,7.29,0,0,1,1.44.65,5.13,5.13,0,0,1,1.35,1.14,5.58,5.58,0,0,1,.89,1.42,8.32,8.32,0,0,1,.45,1.45,10,10,0,0,1,.17,1.38q0,.67,0,1.17h-9.28a2.73,2.73,0,0,0,.08.43,3.68,3.68,0,0,0,.27.7,6,6,0,0,0,.46.79,2.84,2.84,0,0,0,.68.66,4.71,4.71,0,0,0,1.38.63,7.43,7.43,0,0,0,1.7.17,10.47,10.47,0,0,0,2.18-.23,11.92,11.92,0,0,0,2.08-.65Zm-1.81-8.11c0-.23-.06-.53-.13-.9a2.14,2.14,0,0,0-.61-1.07,2.44,2.44,0,0,0-1.78-.71,2.62,2.62,0,0,0-1.66.61,3.14,3.14,0,0,0-1,2.07Z"/><path class="cls-1" d="M1041.3,219.73a2.18,2.18,0,0,1-.63,1.58,2.13,2.13,0,0,1-1.61.65,2.08,2.08,0,0,1-1.63-.68,2.21,2.21,0,0,1-.63-1.55,2.29,2.29,0,0,1,.62-1.57,2,2,0,0,1,1.62-.69,2.24,2.24,0,0,1,1,.19,2,2,0,0,1,.72.5,2.1,2.1,0,0,1,.44.73A2.48,2.48,0,0,1,1041.3,219.73Z"/><path class="cls-49" d="M1041.8,130.35a6.45,6.45,0,1,1,6.45-6.47A6.41,6.41,0,0,1,1041.8,130.35Zm7.09-6.47a7.1,7.1,0,1,0-7.12,7.11A7,7,0,0,0,1048.89,123.88Zm-8.38-3.11h1.26c1.08,0,1.7.17,1.7,1s-.82,1.11-1.81,1.11h-1.15Zm-1.88-1.45v9h1.88v-3.92c1.53,0,2,0,2.27,1.29,0,.2.17,1.16.18,1.35a5,5,0,0,0,.4,1.28h2.16a8.19,8.19,0,0,1-.73-2.75c-.2-1.29-.6-1.5-1.14-1.79a2.22,2.22,0,0,0,1.7-2.13c0-1.86-1.55-2.32-3.15-2.37Z"/><path class="cls-3" d="M849.26,191.36a2.8,2.8,0,0,0,2.83,2.89,3,3,0,0,0,2.64-1.79l1.25.72a4.39,4.39,0,0,1-4,2.43,4.19,4.19,0,0,1-4.23-4.45c0-2.56,1.49-4.68,4.2-4.68s4.25,2.3,4.1,4.88Zm5.24-1.25a2.64,2.64,0,0,0-2.53-2.27,2.76,2.76,0,0,0-2.64,2.27Z"/><path class="cls-3" d="M861.4,188.73a1.38,1.38,0,0,0-1.17-.89,1.05,1.05,0,0,0-1.07,1c0,.79,1,1.09,2,1.51a2.62,2.62,0,0,1,2,2.48,2.83,2.83,0,0,1-2.93,2.82,3.11,3.11,0,0,1-3-2.19l1.31-.55c.36.81.79,1.38,1.76,1.38a1.32,1.32,0,0,0,1.4-1.33c0-1.93-3.9-1.27-3.9-4a2.47,2.47,0,0,1,2.58-2.45,2.62,2.62,0,0,1,2.3,1.6Z"/><path class="cls-3" d="M866.52,195.37H865V180.19h1.48Z"/><path class="cls-3" d="M871.15,183.46a1,1,0,1,1-2.09,0,1,1,0,1,1,2.09,0Zm-.31,11.91h-1.47v-8.65h1.47Z"/><path class="cls-3" d="M880.17,189.3h0a3.31,3.31,0,0,0-2.68-1.46,3.09,3.09,0,0,0-3.06,3.21,3,3,0,0,0,3,3.2,3.38,3.38,0,0,0,2.82-1.49h0v2a4.7,4.7,0,0,1-2.75.89,4.48,4.48,0,0,1-4.6-4.56,4.6,4.6,0,0,1,7.29-3.7Z"/><path class="cls-3" d="M890.24,195.37h-1.48v-1.2h0a3.64,3.64,0,0,1-3,1.44,4.27,4.27,0,0,1-4.15-4.55c0-2.46,1.57-4.58,4.16-4.58a3.75,3.75,0,0,1,3,1.47h0v-1.23h1.48ZM883.11,191c0,1.7,1,3.3,2.84,3.3s2.89-1.53,2.89-3.28a2.9,2.9,0,0,0-2.91-3.13A2.94,2.94,0,0,0,883.11,191Z"/><path class="cls-3" d="M894.19,187.66h0a2.21,2.21,0,0,1,1.91-1.18,2.63,2.63,0,0,1,1.33.41l-.7,1.34a1.48,1.48,0,0,0-.89-.39c-1.62,0-1.69,2.08-1.69,3.21v4.32h-1.47v-8.65h1.47Z"/><path class="cls-3" d="M898.72,180.19h1.47V188h0a3.72,3.72,0,0,1,3-1.47c2.57,0,4.16,2.12,4.16,4.57a4.27,4.27,0,0,1-4.14,4.56,3.65,3.65,0,0,1-3-1.44h0v1.2h-1.47ZM900.11,191c0,1.7,1,3.3,2.84,3.3s2.89-1.53,2.89-3.28a2.9,2.9,0,0,0-2.91-3.13A2.94,2.94,0,0,0,900.11,191Z"/><path class="cls-3" d="M917.13,195.37h-1.47v-1.2h0a3.65,3.65,0,0,1-3,1.44,4.27,4.27,0,0,1-4.14-4.55c0-2.46,1.57-4.58,4.16-4.58a3.75,3.75,0,0,1,3,1.47h0v-1.23h1.47ZM910,191c0,1.7,1,3.3,2.84,3.3s2.89-1.53,2.89-3.28a2.9,2.9,0,0,0-2.91-3.13A2.94,2.94,0,0,0,910,191Z"/><path class="cls-3" d="M927.42,194v1.36h-8.95l6.24-7.29h-5.08v-1.36h8L921.46,194Z"/><path class="cls-3" d="M929.81,191.36a2.8,2.8,0,0,0,2.83,2.89,3,3,0,0,0,2.63-1.79l1.26.72a4.39,4.39,0,0,1-4,2.43,4.19,4.19,0,0,1-4.23-4.45c0-2.56,1.49-4.68,4.2-4.68s4.25,2.3,4.1,4.88Zm5.24-1.25a2.64,2.64,0,0,0-2.54-2.27,2.75,2.75,0,0,0-2.63,2.27Z"/><path class="cls-3" d="M939.85,188h0a3.64,3.64,0,0,1,3-1.47,4.3,4.3,0,0,1,4.14,4.58c0,2.47-1.56,4.55-4.16,4.55a3.67,3.67,0,0,1-3-1.45h0v6.07h-1.47V186.72h1.47Zm-.07,3c0,1.7,1,3.3,2.83,3.3s2.89-1.53,2.89-3.28a2.89,2.89,0,0,0-2.9-3.13A2.93,2.93,0,0,0,939.78,191Z"/><path class="cls-3" d="M951,183.46a1.05,1.05,0,1,1-2.1,0,1.05,1.05,0,0,1,2.1,0Zm-.32,11.91h-1.47v-8.65h1.47Z"/><path class="cls-3" d="M955,187.77h0a2.91,2.91,0,0,1,2.47-1.29c2.39,0,2.94,1.73,2.94,3.76v5.13H959v-4.88c0-1.4-.11-2.65-1.82-2.65-2,0-2.16,1.88-2.16,3.43v4.1h-1.47v-8.65H955Z"/><path class="cls-3" d="M963.85,191.36a2.8,2.8,0,0,0,2.83,2.89,3,3,0,0,0,2.63-1.79l1.25.72a4.36,4.36,0,0,1-4,2.43,4.18,4.18,0,0,1-4.23-4.45c0-2.56,1.49-4.68,4.19-4.68s4.25,2.3,4.11,4.88Zm5.24-1.25a2.64,2.64,0,0,0-2.54-2.27,2.74,2.74,0,0,0-2.63,2.27Z"/><path class="cls-3" d="M985.89,195.37h-1.47v-1.2h0a3.63,3.63,0,0,1-3,1.44,4.27,4.27,0,0,1-4.14-4.55c0-2.46,1.56-4.58,4.16-4.58a3.73,3.73,0,0,1,3,1.47h0v-1.23h1.47ZM978.77,191c0,1.7,1,3.3,2.83,3.3s2.89-1.53,2.89-3.28a2.89,2.89,0,0,0-2.91-3.13A2.93,2.93,0,0,0,978.77,191Z"/><path class="cls-3" d="M994.87,189.3h0a3.33,3.33,0,0,0-2.69-1.46,3.09,3.09,0,0,0-3,3.21,3,3,0,0,0,3,3.2,3.4,3.4,0,0,0,2.82-1.49h0v2a4.65,4.65,0,0,1-2.74.89,4.48,4.48,0,0,1-4.6-4.56,4.57,4.57,0,0,1,4.62-4.57,4.63,4.63,0,0,1,2.67.87Z"/><path class="cls-3" d="M997.77,191.36a2.81,2.81,0,0,0,2.84,2.89,3,3,0,0,0,2.63-1.79l1.25.72a4.38,4.38,0,0,1-4,2.43,4.19,4.19,0,0,1-4.24-4.45c0-2.56,1.49-4.68,4.2-4.68s4.25,2.3,4.1,4.88Zm5.25-1.25a2.64,2.64,0,0,0-2.54-2.27,2.74,2.74,0,0,0-2.63,2.27Z"/><path class="cls-3" d="M1008,195.37h-1.48v-7.29h-.9v-1.36h.9v-3.11H1008v3.11h1.54v1.36H1008Z"/><path class="cls-3" d="M1018.57,195.37h-1.48v-1.2h0a3.65,3.65,0,0,1-3,1.44,4.27,4.27,0,0,1-4.14-4.55c0-2.46,1.57-4.58,4.16-4.58a3.75,3.75,0,0,1,3,1.47h0v-1.23h1.48Zm-7.13-4.42c0,1.7,1,3.3,2.84,3.3s2.89-1.53,2.89-3.28a2.9,2.9,0,0,0-2.91-3.13A2.94,2.94,0,0,0,1011.44,191Z"/><path class="cls-3" d="M1022.67,195.37h-1.48v-7.29h-.9v-1.36h.9v-3.11h1.48v3.11h1.54v1.36h-1.54Z"/><path class="cls-3" d="M1026.11,191.36a2.79,2.79,0,0,0,2.83,2.89,3,3,0,0,0,2.63-1.79l1.25.72a4.36,4.36,0,0,1-4,2.43,4.18,4.18,0,0,1-4.23-4.45c0-2.56,1.49-4.68,4.19-4.68s4.25,2.3,4.11,4.88Zm5.24-1.25a2.64,2.64,0,0,0-2.54-2.27,2.74,2.74,0,0,0-2.63,2.27Z"/><text class="cls-51" transform="translate(174.81 438.73)"><tspan class="cls-52">S</tspan><tspan x="12.25" y="0">tudy desi</tspan><tspan class="cls-53" x="107.85" y="0">g</tspan><tspan x="121.67" y="0">n</tspan><tspan class="cls-54"><tspan x="0" y="55.2">A qualit</tspan><tspan class="cls-55" x="67.64" y="55.2">a</tspan><tspan x="77.68" y="55.2">ti</tspan><tspan class="cls-56" x="89.54" y="55.2">v</tspan><tspan x="99.43" y="55.2">e study </tspan><tspan class="cls-57" x="167.43" y="55.2">c</tspan><tspan x="176.71" y="55.2">ondu</tspan><tspan class="cls-58" x="223.31" y="55.2">c</tspan><tspan class="cls-59" x="232.99" y="55.2">t</tspan><tspan x="239.82" y="55.2">ed in 4 s</tspan><tspan class="cls-59" x="311.19" y="55.2">t</tspan><tspan x="318.02" y="55.2">eps: </tspan></tspan><tspan class="cls-60"><tspan x="57.69" y="96.8">1.</tspan><tspan class="cls-61" x="70.65" y="96.8">	</tspan><tspan class="cls-62" x="87.43" y="96.8">D</tspan><tspan class="cls-19" x="99.48" y="96.8">e</tspan><tspan class="cls-63" x="108.5" y="96.8">v</tspan><tspan class="cls-19" x="116.98" y="96.8">elopme</tspan><tspan class="cls-64" x="174.4" y="96.8">n</tspan><tspan class="cls-19" x="184.32" y="96.8">t of a questionnai</tspan><tspan class="cls-63" x="314.65" y="96.8">r</tspan><tspan class="cls-19" x="320.36" y="96.8">e on the manageme</tspan><tspan class="cls-65" x="471.12" y="96.8">n</tspan><tspan class="cls-19" x="481.04" y="96.8">t of dep</tspan><tspan class="cls-66" x="539.18" y="96.8">r</tspan><tspan class="cls-19" x="544.89" y="96.8">ession in PWE </tspan><tspan class="cls-67" x="651.55" y="96.8">t</tspan><tspan class="cls-19" x="657.4" y="96.8">o be ans</tspan><tspan class="cls-66" x="719.97" y="96.8">w</tspan><tspan class="cls-19" x="733.04" y="96.8">e</tspan><tspan class="cls-63" x="742.06" y="96.8">r</tspan><tspan class="cls-19" x="747.76" y="96.8">ed; </tspan><tspan x="57.69" y="119.8">2.</tspan><tspan class="cls-61" x="70.65" y="119.8">	</tspan><tspan class="cls-19" x="87.43" y="119.8">Li</tspan><tspan class="cls-68" x="100.13" y="119.8">t</tspan><tspan class="cls-19" x="105.98" y="119.8">e</tspan><tspan class="cls-69" x="115" y="119.8">r</tspan><tspan class="cls-64" x="120.8" y="119.8">a</tspan><tspan class="cls-19" x="129.4" y="119.8">tu</tspan><tspan class="cls-63" x="145.28" y="119.8">r</tspan><tspan class="cls-19" x="150.98" y="119.8">e </tspan><tspan class="cls-63" x="163.82" y="119.8">r</tspan><tspan class="cls-70" x="169.52" y="119.8">eview and d</tspan><tspan class="cls-69" x="260.28" y="119.8">r</tspan><tspan class="cls-19" x="266.07" y="119.8">a</tspan><tspan class="cls-71" x="274.75" y="119.8">f</tspan><tspan class="cls-19" x="280.2" y="119.8">ting initial </tspan><tspan class="cls-63" x="359.56" y="119.8">r</tspan><tspan class="cls-19" x="365.27" y="119.8">e</tspan><tspan class="cls-68" x="374.29" y="119.8">c</tspan><tspan class="cls-19" x="382.24" y="119.8">ommend</tspan><tspan class="cls-64" x="451.31" y="119.8">a</tspan><tspan class="cls-19" x="459.91" y="119.8">tions; </tspan><tspan x="57.69" y="142.8">3.</tspan><tspan class="cls-61" x="70.65" y="142.8">	</tspan><tspan class="cls-19" x="87.43" y="142.8">A nominal </tspan><tspan class="cls-68" x="168.08" y="142.8">g</tspan><tspan class="cls-63" x="178.04" y="142.8">r</tspan><tspan class="cls-19" x="183.74" y="142.8">oup methodology </tspan><tspan class="cls-27" x="323.98" y="142.8">f</tspan><tspan class="cls-19" x="329" y="142.8">or </tspan><tspan class="cls-63" x="348.58" y="142.8">r</tspan><tspan class="cls-19" x="354.29" y="142.8">eviewing initial </tspan><tspan class="cls-63" x="471.84" y="142.8">r</tspan><tspan class="cls-19" x="477.55" y="142.8">e</tspan><tspan class="cls-68" x="486.57" y="142.8">c</tspan><tspan class="cls-19" x="494.52" y="142.8">ommend</tspan><tspan class="cls-64" x="563.59" y="142.8">a</tspan><tspan class="cls-19" x="572.19" y="142.8">tions and </tspan><tspan class="cls-27" x="645.81" y="142.8">f</tspan><tspan class="cls-19" x="650.83" y="142.8">o</tspan><tspan class="cls-62" x="660.72" y="142.8">r</tspan><tspan class="cls-19" x="666.67" y="142.8">mul</tspan><tspan class="cls-64" x="695.85" y="142.8">a</tspan><tspan class="cls-19" x="704.46" y="142.8">ting new </tspan><tspan class="cls-63" x="774.56" y="142.8">r</tspan><tspan class="cls-19" x="780.27" y="142.8">e</tspan><tspan class="cls-68" x="789.29" y="142.8">c</tspan><tspan class="cls-19" x="797.24" y="142.8">ommend</tspan><tspan class="cls-64" x="866.31" y="142.8">a</tspan><tspan class="cls-19" x="874.91" y="142.8">tions on those issues </tspan></tspan><tspan class="cls-72"><tspan x="89.89" y="162.8">without </tspan><tspan class="cls-73" x="152.87" y="162.8">a</tspan><tspan class="cls-74" x="161.4" y="162.8">v</tspan><tspan x="169.99" y="162.8">ailable eviden</tspan><tspan class="cls-75" x="274.17" y="162.8">c</tspan><tspan x="282.12" y="162.8">e; </tspan></tspan><tspan class="cls-60"><tspan x="57.69" y="185.8">4.</tspan><tspan class="cls-61" x="70.65" y="185.8">	</tspan><tspan class="cls-19" x="87.43" y="185.8">D</tspan><tspan class="cls-69" x="99.41" y="185.8">r</tspan><tspan class="cls-19" x="105.21" y="185.8">a</tspan><tspan class="cls-71" x="113.88" y="185.8">f</tspan><tspan class="cls-19" x="119.34" y="185.8">ting and app</tspan><tspan class="cls-63" x="215.17" y="185.8">r</tspan><tspan class="cls-76" x="220.87" y="185.8">o</tspan><tspan class="cls-19" x="230.63" y="185.8">ving the final </tspan><tspan class="cls-63" x="332.29" y="185.8">r</tspan><tspan class="cls-19" x="338" y="185.8">e</tspan><tspan class="cls-68" x="347.02" y="185.8">c</tspan><tspan class="cls-19" x="354.97" y="185.8">ommend</tspan><tspan class="cls-64" x="424.04" y="185.8">a</tspan><tspan class="cls-19" x="432.64" y="185.8">tion</tspan><tspan class="cls-77" x="462.68" y="185.8">s</tspan><tspan class="cls-19" x="469.61" y="185.8">.</tspan></tspan><tspan class="cls-78"><tspan x="0" y="228.4">*</tspan><tspan class="cls-79" x="6.22" y="228.4">A</tspan><tspan x="15.22" y="228.4">uthors:</tspan><tspan class="cls-80" x="58.96" y="228.4"> </tspan><tspan class="cls-81" x="61.6" y="228.4">V</tspan><tspan x="69.73" y="228.4">i</tspan><tspan class="cls-82" x="73.24" y="228.4">c</tspan><tspan x="79.87" y="228.4">e</tspan><tspan class="cls-83" x="87.39" y="228.4">n</tspan><tspan class="cls-82" x="95.65" y="228.4">t</tspan><tspan x="100.53" y="228.4">e</tspan><tspan class="cls-84" x="108.04" y="228.4"> </tspan><tspan class="cls-81" x="110.68" y="228.4">V</tspan><tspan class="cls-85" x="118.81" y="228.4">illanue</tspan><tspan class="cls-74" x="160.74" y="228.4">v</tspan><tspan x="167.89" y="228.4">a, Jess </tspan><tspan class="cls-86" x="217.8" y="228.4">A</tspan><tspan class="cls-87" x="226.93" y="228.4">r</tspan><tspan x="232.2" y="228.4">ta</tspan><tspan class="cls-88" x="244.39" y="228.4">l</tspan><tspan x="247.78" y="228.4">, Cla</tspan><tspan class="cls-89" x="273.54" y="228.4">r</tspan><tspan x="278.37" y="228.4">a-Isabel </tspan><tspan class="cls-90" x="329.73" y="228.4">C</tspan><tspan x="338.32" y="228.4">abeza</tspan><tspan class="cls-83" x="375.25" y="228.4">-</tspan><tspan class="cls-86" x="379.79" y="228.4">A</tspan><tspan x="388.93" y="228.4">l</tspan><tspan class="cls-74" x="392.47" y="228.4">v</tspan><tspan x="399.62" y="228.4">a</tspan><tspan class="cls-88" x="406.85" y="228.4">r</tspan><tspan x="411.61" y="228.4">ez, </tspan><tspan class="cls-91" x="431.83" y="228.4">D</tspan><tspan x="441.86" y="228.4">ul</tspan><tspan class="cls-82" x="453.67" y="228.4">c</tspan><tspan x="460.3" y="228.4">e </tspan><tspan class="cls-92" x="470.99" y="228.4">C</tspan><tspan x="479.59" y="228.4">ampo</tspan><tspan class="cls-93" x="516.1" y="228.4">s</tspan><tspan class="cls-85" x="521.87" y="228.4">, </tspan><tspan class="cls-82" x="528.16" y="228.4">A</tspan><tspan x="537.25" y="228.4">s</tspan><tspan class="cls-82" x="543.19" y="228.4">c</tspan><tspan x="549.82" y="228.4">ensin </tspan><tspan class="cls-92" x="594.85" y="228.4">C</tspan><tspan x="603.44" y="228.4">astill</tspan><tspan class="cls-94" x="632.17" y="228.4">o</tspan><tspan x="640.04" y="228.4">, </tspan><tspan class="cls-95" x="646.33" y="228.4">G</tspan><tspan x="656.09" y="228.4">e</tspan><tspan class="cls-89" x="663.61" y="228.4">r</tspan><tspan x="668.44" y="228.4">a</tspan><tspan class="cls-88" x="675.67" y="228.4">r</tspan><tspan x="680.42" y="228.4">do </tspan><tspan class="cls-96" x="700.3" y="228.4">F</tspan><tspan x="707.35" y="228.4">l</tspan><tspan class="cls-88" x="719.12" y="228.4">r</tspan><tspan x="723.88" y="228.4">ez, </tspan><tspan class="cls-97" x="744.09" y="228.4">M</tspan><tspan x="756.24" y="228.4">anuel </tspan><tspan class="cls-98" x="794.3" y="228.4">F</tspan><tspan class="cls-89" x="801.21" y="228.4">r</tspan><tspan x="806.04" y="228.4">an</tspan><tspan class="cls-82" x="821.6" y="228.4">c</tspan><tspan class="cls-99" x="828.23" y="228.4">o</tspan><tspan x="836.69" y="228.4">-</tspan><tspan class="cls-100" x="841.29" y="228.4">M</tspan><tspan x="853.44" y="228.4">a</tspan><tspan class="cls-101" x="860.67" y="228.4">r</tspan><tspan x="865.94" y="228.4">tin, </tspan><tspan class="cls-100" x="889.02" y="228.4">M</tspan><tspan x="901.17" y="228.4">a</tspan><tspan class="cls-102" x="908.4" y="228.4">r</tspan><tspan x="913.37" y="228.4">a </tspan><tspan class="cls-103" x="927.29" y="228.4">P</tspan><tspan x="934.88" y="228.4">az </tspan><tspan class="cls-104" x="951.71" y="228.4">G</tspan><tspan x="961.52" y="228.4">a</tspan><tspan class="cls-88" x="968.75" y="228.4">r</tspan><tspan x="973.5" y="228.4">ca-</tspan><tspan class="cls-105" x="995.57" y="228.4">P</tspan><tspan x="1003.17" y="228.4">o</tspan><tspan class="cls-87" x="1011.41" y="228.4">r</tspan><tspan x="1016.67" y="228.4">tilla, </tspan><tspan class="cls-102" x="1045.74" y="228.4">B</tspan><tspan x="1053.93" y="228.4">e</tspan><tspan class="cls-74" x="1061.45" y="228.4">a</tspan><tspan x="1068.62" y="228.4">t</tspan><tspan class="cls-102" x="1073.58" y="228.4">r</tspan><tspan x="1078.55" y="228.4">iz G. Gi</tspan><tspan class="cls-106" x="1120.83" y="228.4">r</tspan><tspan x="1125.66" y="228.4">ldez, </tspan><tspan class="cls-103" x="1165.11" y="228.4">F</tspan><tspan class="cls-106" x="1172.02" y="228.4">r</tspan><tspan x="1176.85" y="228.4">ancis</tspan><tspan class="cls-107" x="1208.58" y="228.4">c</tspan><tspan x="1215.21" y="228.4">o </tspan><tspan class="cls-95" x="0" y="246.4">G</tspan><tspan x="9.76" y="246.4">o</tspan><tspan class="cls-107" x="18" y="246.4">t</tspan><tspan x="22.87" y="246.4">o</tspan><tspan class="cls-108" x="31.11" y="246.4">r</tspan><tspan x="35.22" y="246.4">, </tspan><tspan class="cls-109" x="41.5" y="246.4">L</tspan><tspan x="48.36" y="246.4">uis Guti</tspan><tspan class="cls-102" x="103.2" y="246.4">r</tspan><tspan class="cls-88" x="108.16" y="246.4">r</tspan><tspan x="112.92" y="246.4">ez-</tspan><tspan class="cls-110" x="131.46" y="246.4">R</tspan><tspan x="139.59" y="246.4">oja</tspan><tspan class="cls-111" x="158.7" y="246.4">s</tspan><tspan x="164.47" y="246.4">, </tspan><tspan class="cls-86" x="170.76" y="246.4">A</tspan><tspan x="179.89" y="246.4">lbe</tspan><tspan class="cls-87" x="199.48" y="246.4">r</tspan><tspan x="204.75" y="246.4">t </tspan><tspan class="cls-97" x="212.89" y="246.4">M</tspan><tspan x="225.04" y="246.4">olins </tspan><tspan class="cls-86" x="257.77" y="246.4">A</tspan><tspan class="cls-85" x="266.91" y="246.4">lbanel</tspan><tspan class="cls-112" x="305.59" y="246.4">l</tspan><tspan class="cls-113" x="308.98" y="246.4">, </tspan><tspan class="cls-114" x="315.26" y="246.4">G</tspan><tspan x="325.03" y="246.4">onzalo </tspan><tspan class="cls-98" x="370.19" y="246.4">P</tspan><tspan x="377.78" y="246.4">aniagua, </tspan><tspan class="cls-115" x="434.24" y="246.4">L</tspan><tspan class="cls-85" x="441.1" y="246.4">uis </tspan><tspan class="cls-116" x="461.99" y="246.4">P</tspan><tspan class="cls-113" x="469.73" y="246.4">i</tspan><tspan class="cls-74" x="473.24" y="246.4">n</tspan><tspan class="cls-82" x="481.51" y="246.4">t</tspan><tspan x="486.38" y="246.4">o</tspan><tspan class="cls-117" x="494.62" y="246.4">r</tspan><tspan class="cls-85" x="498.73" y="246.4">, Juan Jos </tspan><tspan class="cls-105" x="567.98" y="246.4">P</tspan><tspan class="cls-90" x="575.59" y="246.4">o</tspan><tspan x="583.72" y="246.4">za,</tspan><tspan class="cls-118" x="600.47" y="246.4"> </tspan><tspan class="cls-119" x="603.04" y="246.4">T</tspan><tspan class="cls-85" x="609.43" y="246.4">e</tspan><tspan class="cls-120" x="616.94" y="246.4">r</tspan><tspan class="cls-85" x="621.7" y="246.4">esa Rubi</tspan><tspan class="cls-99" x="673.94" y="246.4">o</tspan><tspan class="cls-121" x="682.4" y="246.4">-</tspan><tspan x="687.22" y="246.4">G</tspan><tspan class="cls-106" x="696.91" y="246.4">r</tspan><tspan x="701.74" y="246.4">ane</tspan><tspan class="cls-120" x="724.81" y="246.4">r</tspan><tspan class="cls-122" x="729.56" y="246.4">o</tspan><tspan class="cls-85" x="737.44" y="246.4">, </tspan><tspan class="cls-100" x="743.72" y="246.4">M</tspan><tspan x="755.87" y="246.4">anuel</tspan><tspan class="cls-123" x="790.74" y="246.4"> </tspan><tspan class="cls-124" x="793.31" y="246.4">T</tspan><tspan x="799.7" y="246.4">oled</tspan><tspan class="cls-94" x="827.45" y="246.4">o</tspan><tspan class="cls-113" x="835.32" y="246.4">, Diego</tspan><tspan class="cls-123" x="879.24" y="246.4"> </tspan><tspan class="cls-124" x="881.81" y="246.4">T</tspan><tspan x="888.2" y="246.4">o</tspan><tspan class="cls-125" x="896.43" y="246.4">r</tspan><tspan class="cls-82" x="901.7" y="246.4">t</tspan><tspan x="906.57" y="246.4">osa</tspan><tspan class="cls-121" x="927.98" y="246.4">-</tspan><tspan class="cls-111" x="932.79" y="246.4">C</tspan><tspan x="941.33" y="246.4">onesa, Juan </tspan><tspan class="cls-102" x="1017.41" y="246.4">R</tspan><tspan x="1025.54" y="246.4">od</tspan><tspan class="cls-126" x="1042.23" y="246.4">r</tspan><tspan class="cls-113" x="1047.2" y="246.4">guez-U</tspan><tspan class="cls-127" x="1095.6" y="246.4">r</tspan><tspan x="1100.43" y="246.4">anga, Julio </tspan><tspan class="cls-110" x="1170.16" y="246.4">B</tspan><tspan x="1178.35" y="246.4">obe</tspan><tspan class="cls-111" x="1202.64" y="246.4">s</tspan><tspan class="cls-85" x="1208.41" y="246.4">.</tspan></tspan></text><text class="cls-128" transform="translate(175.46 313.93)">RE<tspan class="cls-129" x="37.08" y="0">C</tspan><tspan x="57.2" y="0">OMMEN</tspan><tspan class="cls-130" x="181.29" y="0">D</tspan><tspan class="cls-131" x="204.77" y="0">A</tspan><tspan x="224.03" y="0">TIONS FOR</tspan><tspan class="cls-132" x="386.1" y="0"> </tspan><tspan x="392.25" y="0">THE </tspan><tspan class="cls-133" x="458.96" y="0">M</tspan><tspan x="487.54" y="0">AN</tspan><tspan class="cls-134" x="533.26" y="0">A</tspan><tspan x="554.75" y="0">GEMENT OF DEPRESSION IN ADU</tspan><tspan class="cls-135" x="1048.92" y="0">L</tspan><tspan class="cls-136" x="1062.74" y="0">T</tspan><tspan x="1080.42" y="0">S</tspan><tspan class="cls-137" x="1098.17" y="0"> </tspan><tspan class="cls-138" x="1104.5" y="0">WITH EPI</tspan><tspan x="1238.02" y="0">-</tspan><tspan x="384.46" y="43.2">LEPS</tspan><tspan class="cls-139" x="456.06" y="43.2">Y</tspan><tspan x="474.35" y="43.2">: </tspan><tspan class="cls-140" x="489.43" y="43.2">AN EXPE</tspan><tspan class="cls-141" x="617.91" y="43.2">R</tspan><tspan class="cls-140" x="637.6" y="43.2">T </tspan><tspan class="cls-142" x="663.13" y="43.2">C</tspan><tspan class="cls-140" x="683.25" y="43.2">ONSENSUS</tspan><tspan x="849.68" y="43.2">*</tspan></text><path class="cls-3" d="M174.81,386.2c384.69-.57,843.13-.58,1227.81,0-384.7.58-843.14.58-1227.81,0Z"/><path class="cls-140" d="M852.61,745.33l-55.17,65.73-50.05-68.15a232.15,232.15,0,0,1,53.66-5.75,202.39,202.39,0,0,1,39.07,4.4c2.65.56,5.3,1.18,7.93,1.85"/></g></svg>